%TF.GenerationSoftware,KiCad,Pcbnew,7.0.10*%
%TF.CreationDate,2024-06-27T11:43:57+02:00*%
%TF.ProjectId,Traffic LED Riser,54726166-6669-4632-904c-454420526973,rev?*%
%TF.SameCoordinates,Original*%
%TF.FileFunction,Drillmap*%
%TF.FilePolarity,Positive*%
%FSLAX45Y45*%
G04 Gerber Fmt 4.5, Leading zero omitted, Abs format (unit mm)*
G04 Created by KiCad (PCBNEW 7.0.10) date 2024-06-27 11:43:57*
%MOMM*%
%LPD*%
G01*
G04 APERTURE LIST*
%ADD10C,0.034872*%
%ADD11C,0.200000*%
%ADD12C,0.100000*%
G04 APERTURE END LIST*
D10*
X10002223Y-11853736D02*
X10001768Y-11835739D01*
X10003576Y-11871498D02*
X10002223Y-11853736D01*
X10005803Y-11889003D02*
X10003576Y-11871498D01*
X10008884Y-11906230D02*
X10005803Y-11889003D01*
X10012795Y-11923155D02*
X10008884Y-11906230D01*
X10017514Y-11939757D02*
X10012795Y-11923155D01*
X10023020Y-11956014D02*
X10017514Y-11939757D01*
X10029291Y-11971904D02*
X10023020Y-11956014D01*
X10036304Y-11987404D02*
X10029291Y-11971904D01*
X10044037Y-12002494D02*
X10036304Y-11987404D01*
X10052469Y-12017149D02*
X10044037Y-12002494D01*
X10061576Y-12031350D02*
X10052469Y-12017149D01*
X10071339Y-12045072D02*
X10061576Y-12031350D01*
X10081733Y-12058295D02*
X10071339Y-12045072D01*
X10092737Y-12070997D02*
X10081733Y-12058295D01*
X10104330Y-12083154D02*
X10092737Y-12070997D01*
X10116488Y-12094746D02*
X10104330Y-12083154D01*
X10129190Y-12105750D02*
X10116488Y-12094746D01*
X10142414Y-12116144D02*
X10129190Y-12105750D01*
X10156138Y-12125906D02*
X10142414Y-12116144D01*
X10170340Y-12135013D02*
X10156138Y-12125906D01*
X10184997Y-12143445D02*
X10170340Y-12135013D01*
X10200088Y-12151178D02*
X10184997Y-12143445D01*
X10215590Y-12158191D02*
X10200088Y-12151178D01*
X10231482Y-12164462D02*
X10215590Y-12158191D01*
X10247741Y-12169968D02*
X10231482Y-12164462D01*
X10264346Y-12174687D02*
X10247741Y-12169968D01*
X10281274Y-12178598D02*
X10264346Y-12174687D01*
X10298503Y-12181678D02*
X10281274Y-12178598D01*
X10316011Y-12183906D02*
X10298503Y-12181678D01*
X10333777Y-12185258D02*
X10316011Y-12183906D01*
X10351778Y-12185714D02*
X10333777Y-12185258D01*
X10351778Y-12887651D02*
X10351778Y-12185714D01*
X11751768Y-12887651D02*
X10351778Y-12887651D01*
X11751768Y-12185714D02*
X11751768Y-12887651D01*
X11769768Y-12185258D02*
X11751768Y-12185714D01*
X11787533Y-12183906D02*
X11769768Y-12185258D01*
X11805041Y-12181678D02*
X11787533Y-12183906D01*
X11822269Y-12178598D02*
X11805041Y-12181678D01*
X11839196Y-12174687D02*
X11822269Y-12178598D01*
X11855800Y-12169968D02*
X11839196Y-12174687D01*
X11872059Y-12164462D02*
X11855800Y-12169968D01*
X11887950Y-12158191D02*
X11872059Y-12164462D01*
X11903452Y-12151178D02*
X11887950Y-12158191D01*
X11918542Y-12143445D02*
X11903452Y-12151178D01*
X11933199Y-12135013D02*
X11918542Y-12143445D01*
X11947400Y-12125906D02*
X11933199Y-12135013D01*
X11961124Y-12116144D02*
X11947400Y-12125906D01*
X11974347Y-12105750D02*
X11961124Y-12116144D01*
X11987049Y-12094746D02*
X11974347Y-12105750D01*
X11999207Y-12083154D02*
X11987049Y-12094746D01*
X12010799Y-12070997D02*
X11999207Y-12083154D01*
X12021803Y-12058295D02*
X12010799Y-12070997D01*
X12032197Y-12045072D02*
X12021803Y-12058295D01*
X12041959Y-12031350D02*
X12032197Y-12045072D01*
X12051066Y-12017149D02*
X12041959Y-12031350D01*
X12059498Y-12002494D02*
X12051066Y-12017149D01*
X12067231Y-11987404D02*
X12059498Y-12002494D01*
X12074244Y-11971904D02*
X12067231Y-11987404D01*
X12080514Y-11956014D02*
X12074244Y-11971904D01*
X12086020Y-11939757D02*
X12080514Y-11956014D01*
X12090739Y-11923155D02*
X12086020Y-11939757D01*
X12094650Y-11906230D02*
X12090739Y-11923155D01*
X12097730Y-11889003D02*
X12094650Y-11906230D01*
X12099958Y-11871498D02*
X12097730Y-11889003D01*
X12101310Y-11853736D02*
X12099958Y-11871498D01*
X12101766Y-11835739D02*
X12101310Y-11853736D01*
X12101766Y-7535738D02*
X12101766Y-11835739D01*
X12101310Y-7517737D02*
X12101766Y-7535738D01*
X12099958Y-7499971D02*
X12101310Y-7517737D01*
X12097730Y-7482462D02*
X12099958Y-7499971D01*
X12094650Y-7465233D02*
X12097730Y-7482462D01*
X12090739Y-7448304D02*
X12094650Y-7465233D01*
X12086020Y-7431699D02*
X12090739Y-7448304D01*
X12080514Y-7415440D02*
X12086020Y-7431699D01*
X12074244Y-7399547D02*
X12080514Y-7415440D01*
X12067231Y-7384045D02*
X12074244Y-7399547D01*
X12059498Y-7368953D02*
X12067231Y-7384045D01*
X12051066Y-7354296D02*
X12059498Y-7368953D01*
X12041959Y-7340094D02*
X12051066Y-7354296D01*
X12032197Y-7326370D02*
X12041959Y-7340094D01*
X12021803Y-7313145D02*
X12032197Y-7326370D01*
X12010799Y-7300442D02*
X12021803Y-7313145D01*
X11999207Y-7288284D02*
X12010799Y-7300442D01*
X11987049Y-7276691D02*
X11999207Y-7288284D01*
X11974347Y-7265686D02*
X11987049Y-7276691D01*
X11961124Y-7255292D02*
X11974347Y-7265686D01*
X11947400Y-7245529D02*
X11961124Y-7255292D01*
X11933199Y-7236421D02*
X11947400Y-7245529D01*
X11918542Y-7227989D02*
X11933199Y-7236421D01*
X11903452Y-7220255D02*
X11918542Y-7227989D01*
X11887950Y-7213242D02*
X11903452Y-7220255D01*
X11872059Y-7206971D02*
X11887950Y-7213242D01*
X11855800Y-7201465D02*
X11872059Y-7206971D01*
X11839196Y-7196745D02*
X11855800Y-7201465D01*
X11822269Y-7192834D02*
X11839196Y-7196745D01*
X11805041Y-7189754D02*
X11822269Y-7192834D01*
X11787533Y-7187527D02*
X11805041Y-7189754D01*
X11769768Y-7186174D02*
X11787533Y-7187527D01*
X11751768Y-7185718D02*
X11769768Y-7186174D01*
X10351778Y-7185718D02*
X11751768Y-7185718D01*
X10333777Y-7186174D02*
X10351778Y-7185718D01*
X10316011Y-7187527D02*
X10333777Y-7186174D01*
X10298503Y-7189754D02*
X10316011Y-7187527D01*
X10281274Y-7192834D02*
X10298503Y-7189754D01*
X10264346Y-7196745D02*
X10281274Y-7192834D01*
X10247741Y-7201465D02*
X10264346Y-7196745D01*
X10231482Y-7206971D02*
X10247741Y-7201465D01*
X10215590Y-7213242D02*
X10231482Y-7206971D01*
X10200088Y-7220255D02*
X10215590Y-7213242D01*
X10184997Y-7227989D02*
X10200088Y-7220255D01*
X10170340Y-7236421D02*
X10184997Y-7227989D01*
X10156138Y-7245529D02*
X10170340Y-7236421D01*
X10142414Y-7255292D02*
X10156138Y-7245529D01*
X10129190Y-7265686D02*
X10142414Y-7255292D01*
X10116488Y-7276691D02*
X10129190Y-7265686D01*
X10104330Y-7288284D02*
X10116488Y-7276691D01*
X10092737Y-7300442D02*
X10104330Y-7288284D01*
X10081733Y-7313145D02*
X10092737Y-7300442D01*
X10071339Y-7326370D02*
X10081733Y-7313145D01*
X10061576Y-7340094D02*
X10071339Y-7326370D01*
X10052469Y-7354296D02*
X10061576Y-7340094D01*
X10044037Y-7368953D02*
X10052469Y-7354296D01*
X10036304Y-7384045D02*
X10044037Y-7368953D01*
X10029291Y-7399547D02*
X10036304Y-7384045D01*
X10023020Y-7415440D02*
X10029291Y-7399547D01*
X10017514Y-7431699D02*
X10023020Y-7415440D01*
X10012795Y-7448304D02*
X10017514Y-7431699D01*
X10008884Y-7465233D02*
X10012795Y-7448304D01*
X10005803Y-7482462D02*
X10008884Y-7465233D01*
X10003576Y-7499971D02*
X10005803Y-7482462D01*
X10002223Y-7517737D02*
X10003576Y-7499971D01*
X10001768Y-7535738D02*
X10002223Y-7517737D01*
X10001768Y-11835739D02*
X10001768Y-7535738D01*
D11*
D12*
X10621767Y-7988200D02*
X10721767Y-8088200D01*
X10721767Y-7988200D02*
X10621767Y-8088200D01*
X10621767Y-12627800D02*
X10721767Y-12727800D01*
X10721767Y-12627800D02*
X10621767Y-12727800D01*
X10875767Y-7988200D02*
X10975767Y-8088200D01*
X10975767Y-7988200D02*
X10875767Y-8088200D01*
X10875767Y-12627800D02*
X10975767Y-12727800D01*
X10975767Y-12627800D02*
X10875767Y-12727800D01*
X11129767Y-7988200D02*
X11229767Y-8088200D01*
X11229767Y-7988200D02*
X11129767Y-8088200D01*
X11129767Y-12627800D02*
X11229767Y-12727800D01*
X11229767Y-12627800D02*
X11129767Y-12727800D01*
X11383767Y-7988200D02*
X11483767Y-8088200D01*
X11483767Y-7988200D02*
X11383767Y-8088200D01*
X11383767Y-12627800D02*
X11483767Y-12727800D01*
X11483767Y-12627800D02*
X11383767Y-12727800D01*
D11*
X10260801Y-13200878D02*
X10260801Y-13000878D01*
X10260801Y-13000878D02*
X10308420Y-13000878D01*
X10308420Y-13000878D02*
X10336991Y-13010402D01*
X10336991Y-13010402D02*
X10356039Y-13029450D01*
X10356039Y-13029450D02*
X10365563Y-13048497D01*
X10365563Y-13048497D02*
X10375087Y-13086592D01*
X10375087Y-13086592D02*
X10375087Y-13115164D01*
X10375087Y-13115164D02*
X10365563Y-13153259D01*
X10365563Y-13153259D02*
X10356039Y-13172307D01*
X10356039Y-13172307D02*
X10336991Y-13191354D01*
X10336991Y-13191354D02*
X10308420Y-13200878D01*
X10308420Y-13200878D02*
X10260801Y-13200878D01*
X10460801Y-13200878D02*
X10460801Y-13067545D01*
X10460801Y-13105640D02*
X10470325Y-13086592D01*
X10470325Y-13086592D02*
X10479848Y-13077069D01*
X10479848Y-13077069D02*
X10498896Y-13067545D01*
X10498896Y-13067545D02*
X10517944Y-13067545D01*
X10584610Y-13200878D02*
X10584610Y-13067545D01*
X10584610Y-13000878D02*
X10575087Y-13010402D01*
X10575087Y-13010402D02*
X10584610Y-13019926D01*
X10584610Y-13019926D02*
X10594134Y-13010402D01*
X10594134Y-13010402D02*
X10584610Y-13000878D01*
X10584610Y-13000878D02*
X10584610Y-13019926D01*
X10708420Y-13200878D02*
X10689372Y-13191354D01*
X10689372Y-13191354D02*
X10679848Y-13172307D01*
X10679848Y-13172307D02*
X10679848Y-13000878D01*
X10813182Y-13200878D02*
X10794134Y-13191354D01*
X10794134Y-13191354D02*
X10784610Y-13172307D01*
X10784610Y-13172307D02*
X10784610Y-13000878D01*
X11041753Y-13200878D02*
X11041753Y-13000878D01*
X11041753Y-13000878D02*
X11108420Y-13143735D01*
X11108420Y-13143735D02*
X11175087Y-13000878D01*
X11175087Y-13000878D02*
X11175087Y-13200878D01*
X11356039Y-13200878D02*
X11356039Y-13096116D01*
X11356039Y-13096116D02*
X11346515Y-13077069D01*
X11346515Y-13077069D02*
X11327467Y-13067545D01*
X11327467Y-13067545D02*
X11289372Y-13067545D01*
X11289372Y-13067545D02*
X11270325Y-13077069D01*
X11356039Y-13191354D02*
X11336991Y-13200878D01*
X11336991Y-13200878D02*
X11289372Y-13200878D01*
X11289372Y-13200878D02*
X11270325Y-13191354D01*
X11270325Y-13191354D02*
X11260801Y-13172307D01*
X11260801Y-13172307D02*
X11260801Y-13153259D01*
X11260801Y-13153259D02*
X11270325Y-13134211D01*
X11270325Y-13134211D02*
X11289372Y-13124688D01*
X11289372Y-13124688D02*
X11336991Y-13124688D01*
X11336991Y-13124688D02*
X11356039Y-13115164D01*
X11451277Y-13067545D02*
X11451277Y-13267545D01*
X11451277Y-13077069D02*
X11470325Y-13067545D01*
X11470325Y-13067545D02*
X11508420Y-13067545D01*
X11508420Y-13067545D02*
X11527467Y-13077069D01*
X11527467Y-13077069D02*
X11536991Y-13086592D01*
X11536991Y-13086592D02*
X11546515Y-13105640D01*
X11546515Y-13105640D02*
X11546515Y-13162783D01*
X11546515Y-13162783D02*
X11536991Y-13181830D01*
X11536991Y-13181830D02*
X11527467Y-13191354D01*
X11527467Y-13191354D02*
X11508420Y-13200878D01*
X11508420Y-13200878D02*
X11470325Y-13200878D01*
X11470325Y-13200878D02*
X11451277Y-13191354D01*
X11632229Y-13181830D02*
X11641753Y-13191354D01*
X11641753Y-13191354D02*
X11632229Y-13200878D01*
X11632229Y-13200878D02*
X11622706Y-13191354D01*
X11622706Y-13191354D02*
X11632229Y-13181830D01*
X11632229Y-13181830D02*
X11632229Y-13200878D01*
X11632229Y-13077069D02*
X11641753Y-13086592D01*
X11641753Y-13086592D02*
X11632229Y-13096116D01*
X11632229Y-13096116D02*
X11622706Y-13086592D01*
X11622706Y-13086592D02*
X11632229Y-13077069D01*
X11632229Y-13077069D02*
X11632229Y-13096116D01*
D12*
X9900024Y-13479394D02*
X10000024Y-13579394D01*
X10000024Y-13479394D02*
X9900024Y-13579394D01*
D11*
X10365563Y-13620878D02*
X10251277Y-13620878D01*
X10308420Y-13620878D02*
X10308420Y-13420878D01*
X10308420Y-13420878D02*
X10289372Y-13449450D01*
X10289372Y-13449450D02*
X10270325Y-13468497D01*
X10270325Y-13468497D02*
X10251277Y-13478021D01*
X10451277Y-13601830D02*
X10460801Y-13611354D01*
X10460801Y-13611354D02*
X10451277Y-13620878D01*
X10451277Y-13620878D02*
X10441753Y-13611354D01*
X10441753Y-13611354D02*
X10451277Y-13601830D01*
X10451277Y-13601830D02*
X10451277Y-13620878D01*
X10584610Y-13420878D02*
X10603658Y-13420878D01*
X10603658Y-13420878D02*
X10622706Y-13430402D01*
X10622706Y-13430402D02*
X10632229Y-13439926D01*
X10632229Y-13439926D02*
X10641753Y-13458973D01*
X10641753Y-13458973D02*
X10651277Y-13497069D01*
X10651277Y-13497069D02*
X10651277Y-13544688D01*
X10651277Y-13544688D02*
X10641753Y-13582783D01*
X10641753Y-13582783D02*
X10632229Y-13601830D01*
X10632229Y-13601830D02*
X10622706Y-13611354D01*
X10622706Y-13611354D02*
X10603658Y-13620878D01*
X10603658Y-13620878D02*
X10584610Y-13620878D01*
X10584610Y-13620878D02*
X10565563Y-13611354D01*
X10565563Y-13611354D02*
X10556039Y-13601830D01*
X10556039Y-13601830D02*
X10546515Y-13582783D01*
X10546515Y-13582783D02*
X10536991Y-13544688D01*
X10536991Y-13544688D02*
X10536991Y-13497069D01*
X10536991Y-13497069D02*
X10546515Y-13458973D01*
X10546515Y-13458973D02*
X10556039Y-13439926D01*
X10556039Y-13439926D02*
X10565563Y-13430402D01*
X10565563Y-13430402D02*
X10584610Y-13420878D01*
X10775087Y-13420878D02*
X10794134Y-13420878D01*
X10794134Y-13420878D02*
X10813182Y-13430402D01*
X10813182Y-13430402D02*
X10822706Y-13439926D01*
X10822706Y-13439926D02*
X10832229Y-13458973D01*
X10832229Y-13458973D02*
X10841753Y-13497069D01*
X10841753Y-13497069D02*
X10841753Y-13544688D01*
X10841753Y-13544688D02*
X10832229Y-13582783D01*
X10832229Y-13582783D02*
X10822706Y-13601830D01*
X10822706Y-13601830D02*
X10813182Y-13611354D01*
X10813182Y-13611354D02*
X10794134Y-13620878D01*
X10794134Y-13620878D02*
X10775087Y-13620878D01*
X10775087Y-13620878D02*
X10756039Y-13611354D01*
X10756039Y-13611354D02*
X10746515Y-13601830D01*
X10746515Y-13601830D02*
X10736991Y-13582783D01*
X10736991Y-13582783D02*
X10727468Y-13544688D01*
X10727468Y-13544688D02*
X10727468Y-13497069D01*
X10727468Y-13497069D02*
X10736991Y-13458973D01*
X10736991Y-13458973D02*
X10746515Y-13439926D01*
X10746515Y-13439926D02*
X10756039Y-13430402D01*
X10756039Y-13430402D02*
X10775087Y-13420878D01*
X10965563Y-13420878D02*
X10984610Y-13420878D01*
X10984610Y-13420878D02*
X11003658Y-13430402D01*
X11003658Y-13430402D02*
X11013182Y-13439926D01*
X11013182Y-13439926D02*
X11022706Y-13458973D01*
X11022706Y-13458973D02*
X11032229Y-13497069D01*
X11032229Y-13497069D02*
X11032229Y-13544688D01*
X11032229Y-13544688D02*
X11022706Y-13582783D01*
X11022706Y-13582783D02*
X11013182Y-13601830D01*
X11013182Y-13601830D02*
X11003658Y-13611354D01*
X11003658Y-13611354D02*
X10984610Y-13620878D01*
X10984610Y-13620878D02*
X10965563Y-13620878D01*
X10965563Y-13620878D02*
X10946515Y-13611354D01*
X10946515Y-13611354D02*
X10936991Y-13601830D01*
X10936991Y-13601830D02*
X10927468Y-13582783D01*
X10927468Y-13582783D02*
X10917944Y-13544688D01*
X10917944Y-13544688D02*
X10917944Y-13497069D01*
X10917944Y-13497069D02*
X10927468Y-13458973D01*
X10927468Y-13458973D02*
X10936991Y-13439926D01*
X10936991Y-13439926D02*
X10946515Y-13430402D01*
X10946515Y-13430402D02*
X10965563Y-13420878D01*
X11117944Y-13620878D02*
X11117944Y-13487545D01*
X11117944Y-13506592D02*
X11127468Y-13497069D01*
X11127468Y-13497069D02*
X11146515Y-13487545D01*
X11146515Y-13487545D02*
X11175087Y-13487545D01*
X11175087Y-13487545D02*
X11194134Y-13497069D01*
X11194134Y-13497069D02*
X11203658Y-13516116D01*
X11203658Y-13516116D02*
X11203658Y-13620878D01*
X11203658Y-13516116D02*
X11213182Y-13497069D01*
X11213182Y-13497069D02*
X11232229Y-13487545D01*
X11232229Y-13487545D02*
X11260801Y-13487545D01*
X11260801Y-13487545D02*
X11279848Y-13497069D01*
X11279848Y-13497069D02*
X11289372Y-13516116D01*
X11289372Y-13516116D02*
X11289372Y-13620878D01*
X11384610Y-13620878D02*
X11384610Y-13487545D01*
X11384610Y-13506592D02*
X11394134Y-13497069D01*
X11394134Y-13497069D02*
X11413182Y-13487545D01*
X11413182Y-13487545D02*
X11441753Y-13487545D01*
X11441753Y-13487545D02*
X11460801Y-13497069D01*
X11460801Y-13497069D02*
X11470325Y-13516116D01*
X11470325Y-13516116D02*
X11470325Y-13620878D01*
X11470325Y-13516116D02*
X11479848Y-13497069D01*
X11479848Y-13497069D02*
X11498896Y-13487545D01*
X11498896Y-13487545D02*
X11527467Y-13487545D01*
X11527467Y-13487545D02*
X11546515Y-13497069D01*
X11546515Y-13497069D02*
X11556039Y-13516116D01*
X11556039Y-13516116D02*
X11556039Y-13620878D01*
X11946515Y-13411354D02*
X11775087Y-13668497D01*
X12203658Y-13420878D02*
X12222706Y-13420878D01*
X12222706Y-13420878D02*
X12241753Y-13430402D01*
X12241753Y-13430402D02*
X12251277Y-13439926D01*
X12251277Y-13439926D02*
X12260801Y-13458973D01*
X12260801Y-13458973D02*
X12270325Y-13497069D01*
X12270325Y-13497069D02*
X12270325Y-13544688D01*
X12270325Y-13544688D02*
X12260801Y-13582783D01*
X12260801Y-13582783D02*
X12251277Y-13601830D01*
X12251277Y-13601830D02*
X12241753Y-13611354D01*
X12241753Y-13611354D02*
X12222706Y-13620878D01*
X12222706Y-13620878D02*
X12203658Y-13620878D01*
X12203658Y-13620878D02*
X12184610Y-13611354D01*
X12184610Y-13611354D02*
X12175087Y-13601830D01*
X12175087Y-13601830D02*
X12165563Y-13582783D01*
X12165563Y-13582783D02*
X12156039Y-13544688D01*
X12156039Y-13544688D02*
X12156039Y-13497069D01*
X12156039Y-13497069D02*
X12165563Y-13458973D01*
X12165563Y-13458973D02*
X12175087Y-13439926D01*
X12175087Y-13439926D02*
X12184610Y-13430402D01*
X12184610Y-13430402D02*
X12203658Y-13420878D01*
X12356039Y-13601830D02*
X12365563Y-13611354D01*
X12365563Y-13611354D02*
X12356039Y-13620878D01*
X12356039Y-13620878D02*
X12346515Y-13611354D01*
X12346515Y-13611354D02*
X12356039Y-13601830D01*
X12356039Y-13601830D02*
X12356039Y-13620878D01*
X12489372Y-13420878D02*
X12508420Y-13420878D01*
X12508420Y-13420878D02*
X12527468Y-13430402D01*
X12527468Y-13430402D02*
X12536991Y-13439926D01*
X12536991Y-13439926D02*
X12546515Y-13458973D01*
X12546515Y-13458973D02*
X12556039Y-13497069D01*
X12556039Y-13497069D02*
X12556039Y-13544688D01*
X12556039Y-13544688D02*
X12546515Y-13582783D01*
X12546515Y-13582783D02*
X12536991Y-13601830D01*
X12536991Y-13601830D02*
X12527468Y-13611354D01*
X12527468Y-13611354D02*
X12508420Y-13620878D01*
X12508420Y-13620878D02*
X12489372Y-13620878D01*
X12489372Y-13620878D02*
X12470325Y-13611354D01*
X12470325Y-13611354D02*
X12460801Y-13601830D01*
X12460801Y-13601830D02*
X12451277Y-13582783D01*
X12451277Y-13582783D02*
X12441753Y-13544688D01*
X12441753Y-13544688D02*
X12441753Y-13497069D01*
X12441753Y-13497069D02*
X12451277Y-13458973D01*
X12451277Y-13458973D02*
X12460801Y-13439926D01*
X12460801Y-13439926D02*
X12470325Y-13430402D01*
X12470325Y-13430402D02*
X12489372Y-13420878D01*
X12622706Y-13420878D02*
X12746515Y-13420878D01*
X12746515Y-13420878D02*
X12679849Y-13497069D01*
X12679849Y-13497069D02*
X12708420Y-13497069D01*
X12708420Y-13497069D02*
X12727468Y-13506592D01*
X12727468Y-13506592D02*
X12736991Y-13516116D01*
X12736991Y-13516116D02*
X12746515Y-13535164D01*
X12746515Y-13535164D02*
X12746515Y-13582783D01*
X12746515Y-13582783D02*
X12736991Y-13601830D01*
X12736991Y-13601830D02*
X12727468Y-13611354D01*
X12727468Y-13611354D02*
X12708420Y-13620878D01*
X12708420Y-13620878D02*
X12651277Y-13620878D01*
X12651277Y-13620878D02*
X12632230Y-13611354D01*
X12632230Y-13611354D02*
X12622706Y-13601830D01*
X12841753Y-13620878D02*
X12879849Y-13620878D01*
X12879849Y-13620878D02*
X12898896Y-13611354D01*
X12898896Y-13611354D02*
X12908420Y-13601830D01*
X12908420Y-13601830D02*
X12927468Y-13573259D01*
X12927468Y-13573259D02*
X12936991Y-13535164D01*
X12936991Y-13535164D02*
X12936991Y-13458973D01*
X12936991Y-13458973D02*
X12927468Y-13439926D01*
X12927468Y-13439926D02*
X12917944Y-13430402D01*
X12917944Y-13430402D02*
X12898896Y-13420878D01*
X12898896Y-13420878D02*
X12860801Y-13420878D01*
X12860801Y-13420878D02*
X12841753Y-13430402D01*
X12841753Y-13430402D02*
X12832230Y-13439926D01*
X12832230Y-13439926D02*
X12822706Y-13458973D01*
X12822706Y-13458973D02*
X12822706Y-13506592D01*
X12822706Y-13506592D02*
X12832230Y-13525640D01*
X12832230Y-13525640D02*
X12841753Y-13535164D01*
X12841753Y-13535164D02*
X12860801Y-13544688D01*
X12860801Y-13544688D02*
X12898896Y-13544688D01*
X12898896Y-13544688D02*
X12917944Y-13535164D01*
X12917944Y-13535164D02*
X12927468Y-13525640D01*
X12927468Y-13525640D02*
X12936991Y-13506592D01*
X13108420Y-13487545D02*
X13108420Y-13620878D01*
X13060801Y-13411354D02*
X13013182Y-13554211D01*
X13013182Y-13554211D02*
X13136991Y-13554211D01*
X13203658Y-13420878D02*
X13203658Y-13458973D01*
X13279849Y-13420878D02*
X13279849Y-13458973D01*
X13575087Y-13697069D02*
X13565563Y-13687545D01*
X13565563Y-13687545D02*
X13546515Y-13658973D01*
X13546515Y-13658973D02*
X13536992Y-13639926D01*
X13536992Y-13639926D02*
X13527468Y-13611354D01*
X13527468Y-13611354D02*
X13517944Y-13563735D01*
X13517944Y-13563735D02*
X13517944Y-13525640D01*
X13517944Y-13525640D02*
X13527468Y-13478021D01*
X13527468Y-13478021D02*
X13536992Y-13449450D01*
X13536992Y-13449450D02*
X13546515Y-13430402D01*
X13546515Y-13430402D02*
X13565563Y-13401830D01*
X13565563Y-13401830D02*
X13575087Y-13392307D01*
X13679849Y-13506592D02*
X13660801Y-13497069D01*
X13660801Y-13497069D02*
X13651277Y-13487545D01*
X13651277Y-13487545D02*
X13641753Y-13468497D01*
X13641753Y-13468497D02*
X13641753Y-13458973D01*
X13641753Y-13458973D02*
X13651277Y-13439926D01*
X13651277Y-13439926D02*
X13660801Y-13430402D01*
X13660801Y-13430402D02*
X13679849Y-13420878D01*
X13679849Y-13420878D02*
X13717944Y-13420878D01*
X13717944Y-13420878D02*
X13736992Y-13430402D01*
X13736992Y-13430402D02*
X13746515Y-13439926D01*
X13746515Y-13439926D02*
X13756039Y-13458973D01*
X13756039Y-13458973D02*
X13756039Y-13468497D01*
X13756039Y-13468497D02*
X13746515Y-13487545D01*
X13746515Y-13487545D02*
X13736992Y-13497069D01*
X13736992Y-13497069D02*
X13717944Y-13506592D01*
X13717944Y-13506592D02*
X13679849Y-13506592D01*
X13679849Y-13506592D02*
X13660801Y-13516116D01*
X13660801Y-13516116D02*
X13651277Y-13525640D01*
X13651277Y-13525640D02*
X13641753Y-13544688D01*
X13641753Y-13544688D02*
X13641753Y-13582783D01*
X13641753Y-13582783D02*
X13651277Y-13601830D01*
X13651277Y-13601830D02*
X13660801Y-13611354D01*
X13660801Y-13611354D02*
X13679849Y-13620878D01*
X13679849Y-13620878D02*
X13717944Y-13620878D01*
X13717944Y-13620878D02*
X13736992Y-13611354D01*
X13736992Y-13611354D02*
X13746515Y-13601830D01*
X13746515Y-13601830D02*
X13756039Y-13582783D01*
X13756039Y-13582783D02*
X13756039Y-13544688D01*
X13756039Y-13544688D02*
X13746515Y-13525640D01*
X13746515Y-13525640D02*
X13736992Y-13516116D01*
X13736992Y-13516116D02*
X13717944Y-13506592D01*
X13994134Y-13620878D02*
X13994134Y-13420878D01*
X14079849Y-13620878D02*
X14079849Y-13516116D01*
X14079849Y-13516116D02*
X14070325Y-13497069D01*
X14070325Y-13497069D02*
X14051277Y-13487545D01*
X14051277Y-13487545D02*
X14022706Y-13487545D01*
X14022706Y-13487545D02*
X14003658Y-13497069D01*
X14003658Y-13497069D02*
X13994134Y-13506592D01*
X14203658Y-13620878D02*
X14184611Y-13611354D01*
X14184611Y-13611354D02*
X14175087Y-13601830D01*
X14175087Y-13601830D02*
X14165563Y-13582783D01*
X14165563Y-13582783D02*
X14165563Y-13525640D01*
X14165563Y-13525640D02*
X14175087Y-13506592D01*
X14175087Y-13506592D02*
X14184611Y-13497069D01*
X14184611Y-13497069D02*
X14203658Y-13487545D01*
X14203658Y-13487545D02*
X14232230Y-13487545D01*
X14232230Y-13487545D02*
X14251277Y-13497069D01*
X14251277Y-13497069D02*
X14260801Y-13506592D01*
X14260801Y-13506592D02*
X14270325Y-13525640D01*
X14270325Y-13525640D02*
X14270325Y-13582783D01*
X14270325Y-13582783D02*
X14260801Y-13601830D01*
X14260801Y-13601830D02*
X14251277Y-13611354D01*
X14251277Y-13611354D02*
X14232230Y-13620878D01*
X14232230Y-13620878D02*
X14203658Y-13620878D01*
X14384611Y-13620878D02*
X14365563Y-13611354D01*
X14365563Y-13611354D02*
X14356039Y-13592307D01*
X14356039Y-13592307D02*
X14356039Y-13420878D01*
X14536992Y-13611354D02*
X14517944Y-13620878D01*
X14517944Y-13620878D02*
X14479849Y-13620878D01*
X14479849Y-13620878D02*
X14460801Y-13611354D01*
X14460801Y-13611354D02*
X14451277Y-13592307D01*
X14451277Y-13592307D02*
X14451277Y-13516116D01*
X14451277Y-13516116D02*
X14460801Y-13497069D01*
X14460801Y-13497069D02*
X14479849Y-13487545D01*
X14479849Y-13487545D02*
X14517944Y-13487545D01*
X14517944Y-13487545D02*
X14536992Y-13497069D01*
X14536992Y-13497069D02*
X14546515Y-13516116D01*
X14546515Y-13516116D02*
X14546515Y-13535164D01*
X14546515Y-13535164D02*
X14451277Y-13554211D01*
X14622706Y-13611354D02*
X14641754Y-13620878D01*
X14641754Y-13620878D02*
X14679849Y-13620878D01*
X14679849Y-13620878D02*
X14698896Y-13611354D01*
X14698896Y-13611354D02*
X14708420Y-13592307D01*
X14708420Y-13592307D02*
X14708420Y-13582783D01*
X14708420Y-13582783D02*
X14698896Y-13563735D01*
X14698896Y-13563735D02*
X14679849Y-13554211D01*
X14679849Y-13554211D02*
X14651277Y-13554211D01*
X14651277Y-13554211D02*
X14632230Y-13544688D01*
X14632230Y-13544688D02*
X14622706Y-13525640D01*
X14622706Y-13525640D02*
X14622706Y-13516116D01*
X14622706Y-13516116D02*
X14632230Y-13497069D01*
X14632230Y-13497069D02*
X14651277Y-13487545D01*
X14651277Y-13487545D02*
X14679849Y-13487545D01*
X14679849Y-13487545D02*
X14698896Y-13497069D01*
X14775087Y-13697069D02*
X14784611Y-13687545D01*
X14784611Y-13687545D02*
X14803658Y-13658973D01*
X14803658Y-13658973D02*
X14813182Y-13639926D01*
X14813182Y-13639926D02*
X14822706Y-13611354D01*
X14822706Y-13611354D02*
X14832230Y-13563735D01*
X14832230Y-13563735D02*
X14832230Y-13525640D01*
X14832230Y-13525640D02*
X14822706Y-13478021D01*
X14822706Y-13478021D02*
X14813182Y-13449450D01*
X14813182Y-13449450D02*
X14803658Y-13430402D01*
X14803658Y-13430402D02*
X14784611Y-13401830D01*
X14784611Y-13401830D02*
X14775087Y-13392307D01*
M02*
