G04 #@! TF.GenerationSoftware,KiCad,Pcbnew,7.0.10*
G04 #@! TF.CreationDate,2024-06-27T11:43:53+02:00*
G04 #@! TF.ProjectId,Traffic LED Riser,54726166-6669-4632-904c-454420526973,rev?*
G04 #@! TF.SameCoordinates,Original*
G04 #@! TF.FileFunction,Copper,L2,Bot*
G04 #@! TF.FilePolarity,Positive*
%FSLAX46Y46*%
G04 Gerber Fmt 4.6, Leading zero omitted, Abs format (unit mm)*
G04 Created by KiCad (PCBNEW 7.0.10) date 2024-06-27 11:43:53*
%MOMM*%
%LPD*%
G01*
G04 APERTURE LIST*
G04 #@! TA.AperFunction,ComponentPad*
%ADD10R,1.700000X1.700000*%
G04 #@! TD*
G04 #@! TA.AperFunction,ComponentPad*
%ADD11O,1.700000X1.700000*%
G04 #@! TD*
G04 #@! TA.AperFunction,Conductor*
%ADD12C,1.000000*%
G04 #@! TD*
G04 APERTURE END LIST*
D10*
X106717668Y-80382000D03*
D11*
X109257668Y-80382000D03*
X111797668Y-80382000D03*
X114337668Y-80382000D03*
X114337668Y-126778000D03*
X111797668Y-126778000D03*
X109257668Y-126778000D03*
D10*
X106717668Y-126778000D03*
D12*
X114337668Y-80382000D02*
X114337668Y-126778000D01*
X111797668Y-80382000D02*
X111797668Y-126778000D01*
X109257668Y-80382000D02*
X109257668Y-126778000D01*
X106717668Y-80382000D02*
X106717668Y-126778000D01*
G04 #@! TA.AperFunction,Conductor*
G36*
X117517168Y-72022759D02*
G01*
X117686171Y-72027039D01*
X117692424Y-72027356D01*
X117855477Y-72039772D01*
X117861691Y-72040404D01*
X118022308Y-72060839D01*
X118028413Y-72061773D01*
X118186405Y-72090020D01*
X118192482Y-72091264D01*
X118347649Y-72127115D01*
X118353622Y-72128652D01*
X118505846Y-72171922D01*
X118511704Y-72173745D01*
X118660751Y-72224222D01*
X118666451Y-72226311D01*
X118812143Y-72283802D01*
X118817706Y-72286156D01*
X118959875Y-72350475D01*
X118965288Y-72353084D01*
X119096472Y-72420315D01*
X119103674Y-72424006D01*
X119108952Y-72426875D01*
X119243385Y-72504212D01*
X119248480Y-72507308D01*
X119378782Y-72590882D01*
X119383685Y-72594195D01*
X119473686Y-72658219D01*
X119509629Y-72683788D01*
X119514381Y-72687343D01*
X119635735Y-72782735D01*
X119640284Y-72786490D01*
X119756888Y-72887514D01*
X119761235Y-72891465D01*
X119871996Y-72997077D01*
X119872846Y-72997887D01*
X119877002Y-73002043D01*
X119983417Y-73113659D01*
X119987382Y-73118022D01*
X120088397Y-73234632D01*
X120092152Y-73239182D01*
X120187561Y-73360571D01*
X120191083Y-73365281D01*
X120280653Y-73491208D01*
X120283974Y-73496122D01*
X120336309Y-73577730D01*
X120367549Y-73626444D01*
X120370654Y-73631554D01*
X120447995Y-73766008D01*
X120450864Y-73771287D01*
X120521768Y-73909656D01*
X120524391Y-73915098D01*
X120588684Y-74057227D01*
X120591052Y-74062823D01*
X120648539Y-74208521D01*
X120650641Y-74214259D01*
X120675298Y-74287076D01*
X120701103Y-74363281D01*
X120702930Y-74369152D01*
X120746186Y-74521348D01*
X120747728Y-74527336D01*
X120783578Y-74682516D01*
X120784825Y-74688607D01*
X120813063Y-74846569D01*
X120814007Y-74852742D01*
X120834437Y-75013341D01*
X120835070Y-75019575D01*
X120847483Y-75182608D01*
X120847801Y-75188882D01*
X120852082Y-75357885D01*
X120852122Y-75361025D01*
X120852122Y-118353730D01*
X120852082Y-118356870D01*
X120847802Y-118525831D01*
X120847484Y-118532107D01*
X120835070Y-118695119D01*
X120834436Y-118701353D01*
X120814010Y-118861897D01*
X120813066Y-118868073D01*
X120784827Y-119026000D01*
X120783580Y-119032090D01*
X120747731Y-119187242D01*
X120746189Y-119193231D01*
X120702931Y-119345408D01*
X120701103Y-119351279D01*
X120650648Y-119500258D01*
X120648545Y-119505999D01*
X120591061Y-119651668D01*
X120588693Y-119657263D01*
X120524392Y-119799390D01*
X120521768Y-119804832D01*
X120450860Y-119943192D01*
X120447990Y-119948473D01*
X120370663Y-120082884D01*
X120367558Y-120087993D01*
X120283988Y-120218292D01*
X120280653Y-120223227D01*
X120191103Y-120349110D01*
X120187549Y-120353860D01*
X120092164Y-120475209D01*
X120088396Y-120479775D01*
X119987383Y-120596370D01*
X119983407Y-120600744D01*
X119877022Y-120712319D01*
X119872857Y-120716483D01*
X119775132Y-120809657D01*
X119761255Y-120822888D01*
X119756882Y-120826862D01*
X119640309Y-120927852D01*
X119635743Y-120931621D01*
X119514374Y-121027017D01*
X119509623Y-121030571D01*
X119473651Y-121056159D01*
X119383725Y-121120125D01*
X119378792Y-121123458D01*
X119248490Y-121207027D01*
X119243384Y-121210130D01*
X119141125Y-121268956D01*
X119108964Y-121287457D01*
X119103685Y-121290325D01*
X118965321Y-121361232D01*
X118959880Y-121363856D01*
X118817727Y-121428166D01*
X118812129Y-121430534D01*
X118666472Y-121488008D01*
X118660733Y-121490111D01*
X118511697Y-121540583D01*
X118505826Y-121542410D01*
X118353655Y-121585663D01*
X118347666Y-121587205D01*
X118192497Y-121623056D01*
X118186424Y-121624300D01*
X118028439Y-121652545D01*
X118022279Y-121653487D01*
X117861711Y-121673917D01*
X117855475Y-121674551D01*
X117692431Y-121686966D01*
X117686156Y-121687284D01*
X117568691Y-121690259D01*
X117550602Y-121689395D01*
X117538233Y-121687892D01*
X117511463Y-121691143D01*
X117499663Y-121692007D01*
X117493404Y-121692165D01*
X117491750Y-121692409D01*
X117476701Y-121695363D01*
X117457226Y-121697728D01*
X117445563Y-121702151D01*
X117434654Y-121708234D01*
X117420316Y-121721599D01*
X117406211Y-121732941D01*
X117390068Y-121744084D01*
X117381794Y-121753422D01*
X117374963Y-121763876D01*
X117368478Y-121782376D01*
X117361258Y-121798976D01*
X117352145Y-121816339D01*
X117349159Y-121828455D01*
X117347968Y-121840883D01*
X117350456Y-121857788D01*
X117350823Y-121860276D01*
X117352145Y-121878336D01*
X117352145Y-128586969D01*
X117332460Y-128654008D01*
X117279656Y-128699763D01*
X117228145Y-128710969D01*
X103807314Y-128710969D01*
X103740275Y-128691284D01*
X103694520Y-128638480D01*
X103683314Y-128586969D01*
X103683314Y-127676654D01*
X105359168Y-127676654D01*
X105365679Y-127737202D01*
X105365679Y-127737204D01*
X105416779Y-127874204D01*
X105504407Y-127991261D01*
X105621464Y-128078889D01*
X105758467Y-128129989D01*
X105785718Y-128132918D01*
X105819013Y-128136499D01*
X105819030Y-128136500D01*
X107616306Y-128136500D01*
X107616322Y-128136499D01*
X107643360Y-128133591D01*
X107676869Y-128129989D01*
X107813872Y-128078889D01*
X107930929Y-127991261D01*
X108018557Y-127874204D01*
X108063806Y-127752887D01*
X108105677Y-127696956D01*
X108171142Y-127672539D01*
X108239414Y-127687391D01*
X108271213Y-127712236D01*
X108334428Y-127780906D01*
X108512092Y-127919189D01*
X108512093Y-127919189D01*
X108512095Y-127919191D01*
X108571982Y-127951600D01*
X108710094Y-128026342D01*
X108923033Y-128099444D01*
X109145099Y-128136500D01*
X109370237Y-128136500D01*
X109592303Y-128099444D01*
X109805242Y-128026342D01*
X110003244Y-127919189D01*
X110180908Y-127780906D01*
X110302262Y-127649082D01*
X110333383Y-127615276D01*
X110333383Y-127615275D01*
X110333390Y-127615268D01*
X110423861Y-127476790D01*
X110477006Y-127431437D01*
X110546237Y-127422013D01*
X110609573Y-127451515D01*
X110631472Y-127476787D01*
X110721946Y-127615268D01*
X110721951Y-127615273D01*
X110721952Y-127615276D01*
X110848636Y-127752889D01*
X110874428Y-127780906D01*
X111052092Y-127919189D01*
X111052093Y-127919189D01*
X111052095Y-127919191D01*
X111111982Y-127951600D01*
X111250094Y-128026342D01*
X111463033Y-128099444D01*
X111685099Y-128136500D01*
X111910237Y-128136500D01*
X112132303Y-128099444D01*
X112345242Y-128026342D01*
X112543244Y-127919189D01*
X112720908Y-127780906D01*
X112842262Y-127649082D01*
X112873383Y-127615276D01*
X112873383Y-127615275D01*
X112873390Y-127615268D01*
X112967417Y-127471347D01*
X113020562Y-127425994D01*
X113089793Y-127416570D01*
X113153129Y-127446072D01*
X113172798Y-127468048D01*
X113299558Y-127649078D01*
X113466585Y-127816105D01*
X113660089Y-127951600D01*
X113874175Y-128051429D01*
X113874184Y-128051433D01*
X114087668Y-128108634D01*
X114087668Y-127213501D01*
X114195353Y-127262680D01*
X114301905Y-127278000D01*
X114373431Y-127278000D01*
X114479983Y-127262680D01*
X114587668Y-127213501D01*
X114587668Y-128108633D01*
X114801151Y-128051433D01*
X114801160Y-128051429D01*
X115015246Y-127951600D01*
X115208750Y-127816105D01*
X115375773Y-127649082D01*
X115511268Y-127455578D01*
X115611097Y-127241492D01*
X115611100Y-127241486D01*
X115668304Y-127028000D01*
X114771354Y-127028000D01*
X114797161Y-126987844D01*
X114837668Y-126849889D01*
X114837668Y-126706111D01*
X114797161Y-126568156D01*
X114771354Y-126528000D01*
X115668304Y-126528000D01*
X115668303Y-126527999D01*
X115611100Y-126314513D01*
X115611097Y-126314507D01*
X115511268Y-126100422D01*
X115511267Y-126100420D01*
X115375781Y-125906926D01*
X115375776Y-125906920D01*
X115208750Y-125739894D01*
X115015246Y-125604399D01*
X114801160Y-125504570D01*
X114801154Y-125504567D01*
X114587668Y-125447364D01*
X114587668Y-126342498D01*
X114479983Y-126293320D01*
X114373431Y-126278000D01*
X114301905Y-126278000D01*
X114195353Y-126293320D01*
X114087668Y-126342498D01*
X114087668Y-125447364D01*
X114087667Y-125447364D01*
X113874181Y-125504567D01*
X113874175Y-125504570D01*
X113660090Y-125604399D01*
X113660088Y-125604400D01*
X113466594Y-125739886D01*
X113466588Y-125739891D01*
X113299559Y-125906920D01*
X113299558Y-125906922D01*
X113172799Y-126087952D01*
X113118222Y-126131577D01*
X113048723Y-126138769D01*
X112986369Y-126107247D01*
X112967420Y-126084656D01*
X112873390Y-125940732D01*
X112838938Y-125903307D01*
X112808016Y-125840654D01*
X112806168Y-125819325D01*
X112806168Y-118750001D01*
X115994390Y-118750001D01*
X116014804Y-119035433D01*
X116075628Y-119315037D01*
X116075630Y-119315043D01*
X116075631Y-119315046D01*
X116144712Y-119500258D01*
X116175635Y-119583166D01*
X116312770Y-119834309D01*
X116312775Y-119834317D01*
X116484254Y-120063387D01*
X116484270Y-120063405D01*
X116686594Y-120265729D01*
X116686612Y-120265745D01*
X116915682Y-120437224D01*
X116915690Y-120437229D01*
X117166833Y-120574364D01*
X117166832Y-120574364D01*
X117166836Y-120574365D01*
X117166839Y-120574367D01*
X117434954Y-120674369D01*
X117434960Y-120674370D01*
X117434962Y-120674371D01*
X117714566Y-120735195D01*
X117714568Y-120735195D01*
X117714572Y-120735196D01*
X117928552Y-120750500D01*
X118071448Y-120750500D01*
X118285428Y-120735196D01*
X118371396Y-120716495D01*
X118565037Y-120674371D01*
X118565037Y-120674370D01*
X118565046Y-120674369D01*
X118833161Y-120574367D01*
X119084315Y-120437226D01*
X119313395Y-120265739D01*
X119515739Y-120063395D01*
X119687226Y-119834315D01*
X119824367Y-119583161D01*
X119924369Y-119315046D01*
X119924371Y-119315037D01*
X119985195Y-119035433D01*
X119985195Y-119035432D01*
X119985196Y-119035428D01*
X120005610Y-118750000D01*
X119985196Y-118464572D01*
X119970756Y-118398194D01*
X119924371Y-118184962D01*
X119924370Y-118184960D01*
X119924369Y-118184954D01*
X119824367Y-117916839D01*
X119687226Y-117665685D01*
X119687224Y-117665682D01*
X119515745Y-117436612D01*
X119515729Y-117436594D01*
X119313405Y-117234270D01*
X119313387Y-117234254D01*
X119084317Y-117062775D01*
X119084309Y-117062770D01*
X118833166Y-116925635D01*
X118833167Y-116925635D01*
X118725915Y-116885632D01*
X118565046Y-116825631D01*
X118565043Y-116825630D01*
X118565037Y-116825628D01*
X118285433Y-116764804D01*
X118071450Y-116749500D01*
X118071448Y-116749500D01*
X117928552Y-116749500D01*
X117928549Y-116749500D01*
X117714566Y-116764804D01*
X117434962Y-116825628D01*
X117166833Y-116925635D01*
X116915690Y-117062770D01*
X116915682Y-117062775D01*
X116686612Y-117234254D01*
X116686594Y-117234270D01*
X116484270Y-117436594D01*
X116484254Y-117436612D01*
X116312775Y-117665682D01*
X116312770Y-117665690D01*
X116175635Y-117916833D01*
X116075628Y-118184962D01*
X116014804Y-118464566D01*
X115994390Y-118749998D01*
X115994390Y-118750001D01*
X112806168Y-118750001D01*
X112806168Y-81340674D01*
X112825853Y-81273635D01*
X112838935Y-81256694D01*
X112873390Y-81219268D01*
X112967417Y-81075347D01*
X113020562Y-81029994D01*
X113089793Y-81020570D01*
X113153129Y-81050072D01*
X113172798Y-81072048D01*
X113299558Y-81253078D01*
X113466585Y-81420105D01*
X113660089Y-81555600D01*
X113874175Y-81655429D01*
X113874184Y-81655433D01*
X114087668Y-81712634D01*
X114087668Y-80817501D01*
X114195353Y-80866680D01*
X114301905Y-80882000D01*
X114373431Y-80882000D01*
X114479983Y-80866680D01*
X114587668Y-80817501D01*
X114587668Y-81712633D01*
X114801151Y-81655433D01*
X114801160Y-81655429D01*
X115015246Y-81555600D01*
X115208750Y-81420105D01*
X115375773Y-81253082D01*
X115511268Y-81059578D01*
X115611097Y-80845492D01*
X115611100Y-80845486D01*
X115668304Y-80632000D01*
X114771354Y-80632000D01*
X114797161Y-80591844D01*
X114837668Y-80453889D01*
X114837668Y-80310111D01*
X114797161Y-80172156D01*
X114771354Y-80132000D01*
X115668304Y-80132000D01*
X115668303Y-80131999D01*
X115611100Y-79918513D01*
X115611097Y-79918507D01*
X115511268Y-79704422D01*
X115511267Y-79704420D01*
X115375781Y-79510926D01*
X115375776Y-79510920D01*
X115208750Y-79343894D01*
X115015246Y-79208399D01*
X114801160Y-79108570D01*
X114801154Y-79108567D01*
X114587668Y-79051364D01*
X114587668Y-79946498D01*
X114479983Y-79897320D01*
X114373431Y-79882000D01*
X114301905Y-79882000D01*
X114195353Y-79897320D01*
X114087668Y-79946498D01*
X114087668Y-79051364D01*
X114087667Y-79051364D01*
X113874181Y-79108567D01*
X113874175Y-79108570D01*
X113660090Y-79208399D01*
X113660088Y-79208400D01*
X113466594Y-79343886D01*
X113466588Y-79343891D01*
X113299559Y-79510920D01*
X113299558Y-79510922D01*
X113172799Y-79691952D01*
X113118222Y-79735577D01*
X113048723Y-79742769D01*
X112986369Y-79711247D01*
X112967420Y-79688656D01*
X112873390Y-79544732D01*
X112873383Y-79544725D01*
X112873383Y-79544723D01*
X112720911Y-79379097D01*
X112720906Y-79379092D01*
X112543245Y-79240812D01*
X112543240Y-79240808D01*
X112345248Y-79133661D01*
X112345245Y-79133659D01*
X112345242Y-79133658D01*
X112345239Y-79133657D01*
X112345237Y-79133656D01*
X112132305Y-79060556D01*
X111910237Y-79023500D01*
X111685099Y-79023500D01*
X111463030Y-79060556D01*
X111250098Y-79133656D01*
X111250087Y-79133661D01*
X111052095Y-79240808D01*
X111052090Y-79240812D01*
X110874429Y-79379092D01*
X110874424Y-79379097D01*
X110721952Y-79544723D01*
X110721944Y-79544734D01*
X110631476Y-79683206D01*
X110578330Y-79728562D01*
X110509099Y-79737986D01*
X110445763Y-79708484D01*
X110423860Y-79683206D01*
X110333391Y-79544734D01*
X110333383Y-79544723D01*
X110180911Y-79379097D01*
X110180906Y-79379092D01*
X110003245Y-79240812D01*
X110003240Y-79240808D01*
X109805248Y-79133661D01*
X109805245Y-79133659D01*
X109805242Y-79133658D01*
X109805239Y-79133657D01*
X109805237Y-79133656D01*
X109592305Y-79060556D01*
X109370237Y-79023500D01*
X109145099Y-79023500D01*
X108923030Y-79060556D01*
X108710098Y-79133656D01*
X108710087Y-79133661D01*
X108512095Y-79240808D01*
X108512090Y-79240812D01*
X108334429Y-79379092D01*
X108271216Y-79447760D01*
X108211329Y-79483750D01*
X108141491Y-79481649D01*
X108083875Y-79442124D01*
X108063806Y-79407110D01*
X108018557Y-79285796D01*
X107984882Y-79240812D01*
X107930929Y-79168739D01*
X107813872Y-79081111D01*
X107676871Y-79030011D01*
X107616322Y-79023500D01*
X107616306Y-79023500D01*
X105819030Y-79023500D01*
X105819013Y-79023500D01*
X105758465Y-79030011D01*
X105758463Y-79030011D01*
X105621463Y-79081111D01*
X105504407Y-79168739D01*
X105416779Y-79285795D01*
X105365679Y-79422795D01*
X105365679Y-79422797D01*
X105359168Y-79483345D01*
X105359168Y-81280654D01*
X105365679Y-81341202D01*
X105365679Y-81341204D01*
X105403432Y-81442421D01*
X105416779Y-81478204D01*
X105504407Y-81595261D01*
X105621464Y-81682889D01*
X105628502Y-81685514D01*
X105684435Y-81727384D01*
X105708852Y-81792848D01*
X105709168Y-81801695D01*
X105709168Y-125358304D01*
X105689483Y-125425343D01*
X105636679Y-125471098D01*
X105628510Y-125474482D01*
X105625709Y-125475527D01*
X105621463Y-125477111D01*
X105504407Y-125564739D01*
X105416779Y-125681795D01*
X105365679Y-125818795D01*
X105365679Y-125818797D01*
X105359168Y-125879345D01*
X105359168Y-127676654D01*
X103683314Y-127676654D01*
X103683314Y-121912360D01*
X103684636Y-121894300D01*
X103686451Y-121881970D01*
X103683879Y-121855123D01*
X103683314Y-121843298D01*
X103683314Y-121837047D01*
X103683109Y-121835364D01*
X103680539Y-121820267D01*
X103678669Y-121800740D01*
X103678667Y-121800737D01*
X103678667Y-121800735D01*
X103674542Y-121788966D01*
X103668739Y-121777910D01*
X103655735Y-121763232D01*
X103644754Y-121748844D01*
X103634027Y-121732430D01*
X103634024Y-121732428D01*
X103624898Y-121723920D01*
X103614624Y-121716828D01*
X103596288Y-121709874D01*
X103579877Y-121702237D01*
X103579723Y-121702151D01*
X103562755Y-121692690D01*
X103562752Y-121692689D01*
X103550720Y-121689398D01*
X103538323Y-121687892D01*
X103518860Y-121690256D01*
X103500775Y-121691120D01*
X103349283Y-121687283D01*
X103343009Y-121686965D01*
X103179980Y-121674552D01*
X103173744Y-121673918D01*
X103013179Y-121653490D01*
X103007006Y-121652547D01*
X102848984Y-121624296D01*
X102842894Y-121623048D01*
X102687768Y-121587208D01*
X102681785Y-121585668D01*
X102602604Y-121563163D01*
X102529586Y-121542409D01*
X102523716Y-121540582D01*
X102374683Y-121490114D01*
X102368944Y-121488011D01*
X102223272Y-121430534D01*
X102217674Y-121428165D01*
X102075515Y-121363855D01*
X102070073Y-121361232D01*
X101931715Y-121290331D01*
X101926436Y-121287462D01*
X101791980Y-121210117D01*
X101786870Y-121207011D01*
X101656625Y-121123483D01*
X101651692Y-121120150D01*
X101525732Y-121030555D01*
X101520979Y-121027000D01*
X101399626Y-120931618D01*
X101395062Y-120927851D01*
X101278483Y-120826862D01*
X101274108Y-120822885D01*
X101162519Y-120716496D01*
X101158341Y-120712319D01*
X101122157Y-120674371D01*
X101051927Y-120600716D01*
X101047976Y-120596369D01*
X100946960Y-120479775D01*
X100943209Y-120475230D01*
X100847802Y-120353858D01*
X100844248Y-120349106D01*
X100754689Y-120223212D01*
X100751355Y-120218279D01*
X100667792Y-120087996D01*
X100664685Y-120082885D01*
X100587349Y-119948460D01*
X100584480Y-119943181D01*
X100513564Y-119804811D01*
X100510963Y-119799415D01*
X100446645Y-119657257D01*
X100444279Y-119651666D01*
X100386798Y-119506005D01*
X100384708Y-119500301D01*
X100334228Y-119351257D01*
X100332404Y-119345394D01*
X100311779Y-119272839D01*
X100289148Y-119193224D01*
X100287606Y-119187236D01*
X100251757Y-119032092D01*
X100250510Y-119026001D01*
X100237816Y-118955008D01*
X100222269Y-118868061D01*
X100221326Y-118861892D01*
X100207089Y-118750001D01*
X100994390Y-118750001D01*
X101014804Y-119035433D01*
X101075628Y-119315037D01*
X101075630Y-119315043D01*
X101075631Y-119315046D01*
X101144712Y-119500258D01*
X101175635Y-119583166D01*
X101312770Y-119834309D01*
X101312775Y-119834317D01*
X101484254Y-120063387D01*
X101484270Y-120063405D01*
X101686594Y-120265729D01*
X101686612Y-120265745D01*
X101915682Y-120437224D01*
X101915690Y-120437229D01*
X102166833Y-120574364D01*
X102166832Y-120574364D01*
X102166836Y-120574365D01*
X102166839Y-120574367D01*
X102434954Y-120674369D01*
X102434960Y-120674370D01*
X102434962Y-120674371D01*
X102714566Y-120735195D01*
X102714568Y-120735195D01*
X102714572Y-120735196D01*
X102928552Y-120750500D01*
X103071448Y-120750500D01*
X103285428Y-120735196D01*
X103371396Y-120716495D01*
X103565037Y-120674371D01*
X103565037Y-120674370D01*
X103565046Y-120674369D01*
X103833161Y-120574367D01*
X104084315Y-120437226D01*
X104313395Y-120265739D01*
X104515739Y-120063395D01*
X104687226Y-119834315D01*
X104824367Y-119583161D01*
X104924369Y-119315046D01*
X104924371Y-119315037D01*
X104985195Y-119035433D01*
X104985195Y-119035432D01*
X104985196Y-119035428D01*
X105005610Y-118750000D01*
X104985196Y-118464572D01*
X104970756Y-118398194D01*
X104924371Y-118184962D01*
X104924370Y-118184960D01*
X104924369Y-118184954D01*
X104824367Y-117916839D01*
X104687226Y-117665685D01*
X104687224Y-117665682D01*
X104515745Y-117436612D01*
X104515729Y-117436594D01*
X104313405Y-117234270D01*
X104313387Y-117234254D01*
X104084317Y-117062775D01*
X104084309Y-117062770D01*
X103833166Y-116925635D01*
X103833167Y-116925635D01*
X103725915Y-116885632D01*
X103565046Y-116825631D01*
X103565043Y-116825630D01*
X103565037Y-116825628D01*
X103285433Y-116764804D01*
X103071450Y-116749500D01*
X103071448Y-116749500D01*
X102928552Y-116749500D01*
X102928549Y-116749500D01*
X102714566Y-116764804D01*
X102434962Y-116825628D01*
X102166833Y-116925635D01*
X101915690Y-117062770D01*
X101915682Y-117062775D01*
X101686612Y-117234254D01*
X101686594Y-117234270D01*
X101484270Y-117436594D01*
X101484254Y-117436612D01*
X101312775Y-117665682D01*
X101312770Y-117665690D01*
X101175635Y-117916833D01*
X101075628Y-118184962D01*
X101014804Y-118464566D01*
X100994390Y-118749998D01*
X100994390Y-118750001D01*
X100207089Y-118750001D01*
X100200898Y-118701348D01*
X100200264Y-118695111D01*
X100191677Y-118582341D01*
X100187850Y-118532092D01*
X100187533Y-118525827D01*
X100187010Y-118505185D01*
X100183255Y-118356870D01*
X100183215Y-118353737D01*
X100183215Y-94273464D01*
X100183234Y-94271270D01*
X100403934Y-81801695D01*
X100521179Y-75177367D01*
X100524318Y-75000001D01*
X100994390Y-75000001D01*
X101014804Y-75285433D01*
X101075628Y-75565037D01*
X101175635Y-75833166D01*
X101312770Y-76084309D01*
X101312775Y-76084317D01*
X101484254Y-76313387D01*
X101484270Y-76313405D01*
X101686594Y-76515729D01*
X101686612Y-76515745D01*
X101915682Y-76687224D01*
X101915690Y-76687229D01*
X102166833Y-76824364D01*
X102166832Y-76824364D01*
X102166836Y-76824365D01*
X102166839Y-76824367D01*
X102434954Y-76924369D01*
X102434960Y-76924370D01*
X102434962Y-76924371D01*
X102714566Y-76985195D01*
X102714568Y-76985195D01*
X102714572Y-76985196D01*
X102928552Y-77000500D01*
X103071448Y-77000500D01*
X103285428Y-76985196D01*
X103565046Y-76924369D01*
X103833161Y-76824367D01*
X104084315Y-76687226D01*
X104313395Y-76515739D01*
X104515739Y-76313395D01*
X104687226Y-76084315D01*
X104824367Y-75833161D01*
X104924369Y-75565046D01*
X104965634Y-75375352D01*
X104985195Y-75285433D01*
X104985195Y-75285432D01*
X104985196Y-75285428D01*
X105005610Y-75000001D01*
X115994390Y-75000001D01*
X116014804Y-75285433D01*
X116075628Y-75565037D01*
X116175635Y-75833166D01*
X116312770Y-76084309D01*
X116312775Y-76084317D01*
X116484254Y-76313387D01*
X116484270Y-76313405D01*
X116686594Y-76515729D01*
X116686612Y-76515745D01*
X116915682Y-76687224D01*
X116915690Y-76687229D01*
X117166833Y-76824364D01*
X117166832Y-76824364D01*
X117166836Y-76824365D01*
X117166839Y-76824367D01*
X117434954Y-76924369D01*
X117434960Y-76924370D01*
X117434962Y-76924371D01*
X117714566Y-76985195D01*
X117714568Y-76985195D01*
X117714572Y-76985196D01*
X117928552Y-77000500D01*
X118071448Y-77000500D01*
X118285428Y-76985196D01*
X118565046Y-76924369D01*
X118833161Y-76824367D01*
X119084315Y-76687226D01*
X119313395Y-76515739D01*
X119515739Y-76313395D01*
X119687226Y-76084315D01*
X119824367Y-75833161D01*
X119924369Y-75565046D01*
X119965634Y-75375352D01*
X119985195Y-75285433D01*
X119985195Y-75285432D01*
X119985196Y-75285428D01*
X120005610Y-75000000D01*
X119985196Y-74714572D01*
X119973118Y-74659052D01*
X119924371Y-74434962D01*
X119924370Y-74434960D01*
X119924369Y-74434954D01*
X119824367Y-74166839D01*
X119805122Y-74131595D01*
X119687229Y-73915690D01*
X119687224Y-73915682D01*
X119515745Y-73686612D01*
X119515729Y-73686594D01*
X119313405Y-73484270D01*
X119313387Y-73484254D01*
X119084317Y-73312775D01*
X119084309Y-73312770D01*
X118833166Y-73175635D01*
X118833167Y-73175635D01*
X118678700Y-73118022D01*
X118565046Y-73075631D01*
X118565043Y-73075630D01*
X118565037Y-73075628D01*
X118285433Y-73014804D01*
X118071450Y-72999500D01*
X118071448Y-72999500D01*
X117928552Y-72999500D01*
X117928549Y-72999500D01*
X117714566Y-73014804D01*
X117434962Y-73075628D01*
X117166833Y-73175635D01*
X116915690Y-73312770D01*
X116915682Y-73312775D01*
X116686612Y-73484254D01*
X116686594Y-73484270D01*
X116484270Y-73686594D01*
X116484254Y-73686612D01*
X116312775Y-73915682D01*
X116312770Y-73915690D01*
X116175635Y-74166833D01*
X116075628Y-74434962D01*
X116014804Y-74714566D01*
X115994390Y-74999998D01*
X115994390Y-75000001D01*
X105005610Y-75000001D01*
X105005610Y-75000000D01*
X104985196Y-74714572D01*
X104973118Y-74659052D01*
X104924371Y-74434962D01*
X104924370Y-74434960D01*
X104924369Y-74434954D01*
X104824367Y-74166839D01*
X104805122Y-74131595D01*
X104687229Y-73915690D01*
X104687224Y-73915682D01*
X104515745Y-73686612D01*
X104515729Y-73686594D01*
X104313405Y-73484270D01*
X104313387Y-73484254D01*
X104084317Y-73312775D01*
X104084309Y-73312770D01*
X103833166Y-73175635D01*
X103833167Y-73175635D01*
X103678700Y-73118022D01*
X103565046Y-73075631D01*
X103565043Y-73075630D01*
X103565037Y-73075628D01*
X103285433Y-73014804D01*
X103071450Y-72999500D01*
X103071448Y-72999500D01*
X102928552Y-72999500D01*
X102928549Y-72999500D01*
X102714566Y-73014804D01*
X102434962Y-73075628D01*
X102166833Y-73175635D01*
X101915690Y-73312770D01*
X101915682Y-73312775D01*
X101686612Y-73484254D01*
X101686594Y-73484270D01*
X101484270Y-73686594D01*
X101484254Y-73686612D01*
X101312775Y-73915682D01*
X101312770Y-73915690D01*
X101175635Y-74166833D01*
X101075628Y-74434962D01*
X101014804Y-74714566D01*
X100994390Y-74999998D01*
X100994390Y-75000001D01*
X100524318Y-75000001D01*
X100544182Y-73877691D01*
X100557805Y-73823345D01*
X100584507Y-73771237D01*
X100587331Y-73766041D01*
X100664707Y-73631531D01*
X100667797Y-73626449D01*
X100689189Y-73593093D01*
X100751364Y-73496142D01*
X100754664Y-73491256D01*
X100844291Y-73365253D01*
X100847799Y-73360563D01*
X100943220Y-73239161D01*
X100946963Y-73234627D01*
X101047978Y-73118022D01*
X101051931Y-73113671D01*
X101158355Y-73002050D01*
X101162522Y-72997884D01*
X101274149Y-72891448D01*
X101278463Y-72887526D01*
X101395086Y-72786489D01*
X101399606Y-72782758D01*
X101521019Y-72687322D01*
X101525740Y-72683792D01*
X101651663Y-72594217D01*
X101656574Y-72590898D01*
X101786924Y-72507296D01*
X101791965Y-72504233D01*
X101926462Y-72426859D01*
X101931668Y-72424030D01*
X102070099Y-72353088D01*
X102075499Y-72350485D01*
X102217685Y-72286161D01*
X102223244Y-72283808D01*
X102368967Y-72226307D01*
X102374623Y-72224234D01*
X102523749Y-72173731D01*
X102529550Y-72171925D01*
X102681840Y-72128641D01*
X102687695Y-72127133D01*
X102842990Y-72091254D01*
X102848960Y-72090032D01*
X103007025Y-72061772D01*
X103013150Y-72060836D01*
X103173769Y-72040401D01*
X103179962Y-72039772D01*
X103343030Y-72027356D01*
X103349274Y-72027039D01*
X103518285Y-72022759D01*
X103521424Y-72022720D01*
X117514030Y-72022720D01*
X117517168Y-72022759D01*
G37*
G04 #@! TD.AperFunction*
M02*
