G04 #@! TF.GenerationSoftware,KiCad,Pcbnew,7.0.10*
G04 #@! TF.CreationDate,2024-07-28T21:48:16+02:00*
G04 #@! TF.ProjectId,Traffic LED Board,54726166-6669-4632-904c-454420426f61,rev?*
G04 #@! TF.SameCoordinates,Original*
G04 #@! TF.FileFunction,Legend,Top*
G04 #@! TF.FilePolarity,Positive*
%FSLAX46Y46*%
G04 Gerber Fmt 4.6, Leading zero omitted, Abs format (unit mm)*
G04 Created by KiCad (PCBNEW 7.0.10) date 2024-07-28 21:48:16*
%MOMM*%
%LPD*%
G01*
G04 APERTURE LIST*
%ADD10C,0.150000*%
%ADD11C,0.100000*%
%ADD12C,0.200000*%
%ADD13C,0.120000*%
%ADD14C,2.000000*%
%ADD15R,1.700000X1.700000*%
%ADD16O,1.700000X1.700000*%
%ADD17C,5.000000*%
%ADD18C,1.600000*%
%ADD19O,1.600000X1.600000*%
G04 APERTURE END LIST*
D10*
X116271922Y-114439819D02*
X116843350Y-114439819D01*
X116557636Y-115439819D02*
X116557636Y-114439819D01*
X117176684Y-115439819D02*
X117176684Y-114773152D01*
X117176684Y-114963628D02*
X117224303Y-114868390D01*
X117224303Y-114868390D02*
X117271922Y-114820771D01*
X117271922Y-114820771D02*
X117367160Y-114773152D01*
X117367160Y-114773152D02*
X117462398Y-114773152D01*
X118224303Y-115439819D02*
X118224303Y-114916009D01*
X118224303Y-114916009D02*
X118176684Y-114820771D01*
X118176684Y-114820771D02*
X118081446Y-114773152D01*
X118081446Y-114773152D02*
X117890970Y-114773152D01*
X117890970Y-114773152D02*
X117795732Y-114820771D01*
X118224303Y-115392200D02*
X118129065Y-115439819D01*
X118129065Y-115439819D02*
X117890970Y-115439819D01*
X117890970Y-115439819D02*
X117795732Y-115392200D01*
X117795732Y-115392200D02*
X117748113Y-115296961D01*
X117748113Y-115296961D02*
X117748113Y-115201723D01*
X117748113Y-115201723D02*
X117795732Y-115106485D01*
X117795732Y-115106485D02*
X117890970Y-115058866D01*
X117890970Y-115058866D02*
X118129065Y-115058866D01*
X118129065Y-115058866D02*
X118224303Y-115011247D01*
X118557637Y-114773152D02*
X118938589Y-114773152D01*
X118700494Y-115439819D02*
X118700494Y-114582676D01*
X118700494Y-114582676D02*
X118748113Y-114487438D01*
X118748113Y-114487438D02*
X118843351Y-114439819D01*
X118843351Y-114439819D02*
X118938589Y-114439819D01*
X119129066Y-114773152D02*
X119510018Y-114773152D01*
X119271923Y-115439819D02*
X119271923Y-114582676D01*
X119271923Y-114582676D02*
X119319542Y-114487438D01*
X119319542Y-114487438D02*
X119414780Y-114439819D01*
X119414780Y-114439819D02*
X119510018Y-114439819D01*
X119843352Y-115439819D02*
X119843352Y-114773152D01*
X119843352Y-114439819D02*
X119795733Y-114487438D01*
X119795733Y-114487438D02*
X119843352Y-114535057D01*
X119843352Y-114535057D02*
X119890971Y-114487438D01*
X119890971Y-114487438D02*
X119843352Y-114439819D01*
X119843352Y-114439819D02*
X119843352Y-114535057D01*
X120748113Y-115392200D02*
X120652875Y-115439819D01*
X120652875Y-115439819D02*
X120462399Y-115439819D01*
X120462399Y-115439819D02*
X120367161Y-115392200D01*
X120367161Y-115392200D02*
X120319542Y-115344580D01*
X120319542Y-115344580D02*
X120271923Y-115249342D01*
X120271923Y-115249342D02*
X120271923Y-114963628D01*
X120271923Y-114963628D02*
X120319542Y-114868390D01*
X120319542Y-114868390D02*
X120367161Y-114820771D01*
X120367161Y-114820771D02*
X120462399Y-114773152D01*
X120462399Y-114773152D02*
X120652875Y-114773152D01*
X120652875Y-114773152D02*
X120748113Y-114820771D01*
X122414780Y-115439819D02*
X121938590Y-115439819D01*
X121938590Y-115439819D02*
X121938590Y-114439819D01*
X122748114Y-114916009D02*
X123081447Y-114916009D01*
X123224304Y-115439819D02*
X122748114Y-115439819D01*
X122748114Y-115439819D02*
X122748114Y-114439819D01*
X122748114Y-114439819D02*
X123224304Y-114439819D01*
X123652876Y-115439819D02*
X123652876Y-114439819D01*
X123652876Y-114439819D02*
X123890971Y-114439819D01*
X123890971Y-114439819D02*
X124033828Y-114487438D01*
X124033828Y-114487438D02*
X124129066Y-114582676D01*
X124129066Y-114582676D02*
X124176685Y-114677914D01*
X124176685Y-114677914D02*
X124224304Y-114868390D01*
X124224304Y-114868390D02*
X124224304Y-115011247D01*
X124224304Y-115011247D02*
X124176685Y-115201723D01*
X124176685Y-115201723D02*
X124129066Y-115296961D01*
X124129066Y-115296961D02*
X124033828Y-115392200D01*
X124033828Y-115392200D02*
X123890971Y-115439819D01*
X123890971Y-115439819D02*
X123652876Y-115439819D01*
X124605257Y-115392200D02*
X124700495Y-115439819D01*
X124700495Y-115439819D02*
X124890971Y-115439819D01*
X124890971Y-115439819D02*
X124986209Y-115392200D01*
X124986209Y-115392200D02*
X125033828Y-115296961D01*
X125033828Y-115296961D02*
X125033828Y-115249342D01*
X125033828Y-115249342D02*
X124986209Y-115154104D01*
X124986209Y-115154104D02*
X124890971Y-115106485D01*
X124890971Y-115106485D02*
X124748114Y-115106485D01*
X124748114Y-115106485D02*
X124652876Y-115058866D01*
X124652876Y-115058866D02*
X124605257Y-114963628D01*
X124605257Y-114963628D02*
X124605257Y-114916009D01*
X124605257Y-114916009D02*
X124652876Y-114820771D01*
X124652876Y-114820771D02*
X124748114Y-114773152D01*
X124748114Y-114773152D02*
X124890971Y-114773152D01*
X124890971Y-114773152D02*
X124986209Y-114820771D01*
D11*
X101540360Y-114750907D02*
X101711789Y-115350907D01*
X101711789Y-115350907D02*
X101883217Y-114922335D01*
X101883217Y-114922335D02*
X102054646Y-115350907D01*
X102054646Y-115350907D02*
X102226074Y-114750907D01*
X102568931Y-115350907D02*
X102568931Y-114450907D01*
X102954646Y-115350907D02*
X102954646Y-114879478D01*
X102954646Y-114879478D02*
X102911788Y-114793764D01*
X102911788Y-114793764D02*
X102826074Y-114750907D01*
X102826074Y-114750907D02*
X102697503Y-114750907D01*
X102697503Y-114750907D02*
X102611788Y-114793764D01*
X102611788Y-114793764D02*
X102568931Y-114836621D01*
X103383217Y-115350907D02*
X103383217Y-114750907D01*
X103383217Y-114450907D02*
X103340360Y-114493764D01*
X103340360Y-114493764D02*
X103383217Y-114536621D01*
X103383217Y-114536621D02*
X103426074Y-114493764D01*
X103426074Y-114493764D02*
X103383217Y-114450907D01*
X103383217Y-114450907D02*
X103383217Y-114536621D01*
X103726074Y-114750907D02*
X104197503Y-114750907D01*
X104197503Y-114750907D02*
X103726074Y-115350907D01*
X103726074Y-115350907D02*
X104197503Y-115350907D01*
X104454645Y-114750907D02*
X104926074Y-114750907D01*
X104926074Y-114750907D02*
X104454645Y-115350907D01*
X104454645Y-115350907D02*
X104926074Y-115350907D01*
X105268930Y-115350907D02*
X105268930Y-114450907D01*
X105268930Y-114793764D02*
X105354645Y-114750907D01*
X105354645Y-114750907D02*
X105526073Y-114750907D01*
X105526073Y-114750907D02*
X105611787Y-114793764D01*
X105611787Y-114793764D02*
X105654645Y-114836621D01*
X105654645Y-114836621D02*
X105697502Y-114922335D01*
X105697502Y-114922335D02*
X105697502Y-115179478D01*
X105697502Y-115179478D02*
X105654645Y-115265192D01*
X105654645Y-115265192D02*
X105611787Y-115308050D01*
X105611787Y-115308050D02*
X105526073Y-115350907D01*
X105526073Y-115350907D02*
X105354645Y-115350907D01*
X105354645Y-115350907D02*
X105268930Y-115308050D01*
X106083216Y-115350907D02*
X106083216Y-114750907D01*
X106083216Y-114450907D02*
X106040359Y-114493764D01*
X106040359Y-114493764D02*
X106083216Y-114536621D01*
X106083216Y-114536621D02*
X106126073Y-114493764D01*
X106126073Y-114493764D02*
X106083216Y-114450907D01*
X106083216Y-114450907D02*
X106083216Y-114536621D01*
X106426073Y-114750907D02*
X106897502Y-114750907D01*
X106897502Y-114750907D02*
X106426073Y-115350907D01*
X106426073Y-115350907D02*
X106897502Y-115350907D01*
X107154644Y-114750907D02*
X107626073Y-114750907D01*
X107626073Y-114750907D02*
X107154644Y-115350907D01*
X107154644Y-115350907D02*
X107626073Y-115350907D01*
X107968929Y-115265192D02*
X108011786Y-115308050D01*
X108011786Y-115308050D02*
X107968929Y-115350907D01*
X107968929Y-115350907D02*
X107926072Y-115308050D01*
X107926072Y-115308050D02*
X107968929Y-115265192D01*
X107968929Y-115265192D02*
X107968929Y-115350907D01*
X108783215Y-115308050D02*
X108697500Y-115350907D01*
X108697500Y-115350907D02*
X108526072Y-115350907D01*
X108526072Y-115350907D02*
X108440357Y-115308050D01*
X108440357Y-115308050D02*
X108397500Y-115265192D01*
X108397500Y-115265192D02*
X108354643Y-115179478D01*
X108354643Y-115179478D02*
X108354643Y-114922335D01*
X108354643Y-114922335D02*
X108397500Y-114836621D01*
X108397500Y-114836621D02*
X108440357Y-114793764D01*
X108440357Y-114793764D02*
X108526072Y-114750907D01*
X108526072Y-114750907D02*
X108697500Y-114750907D01*
X108697500Y-114750907D02*
X108783215Y-114793764D01*
X109297501Y-115350907D02*
X109211786Y-115308050D01*
X109211786Y-115308050D02*
X109168929Y-115265192D01*
X109168929Y-115265192D02*
X109126072Y-115179478D01*
X109126072Y-115179478D02*
X109126072Y-114922335D01*
X109126072Y-114922335D02*
X109168929Y-114836621D01*
X109168929Y-114836621D02*
X109211786Y-114793764D01*
X109211786Y-114793764D02*
X109297501Y-114750907D01*
X109297501Y-114750907D02*
X109426072Y-114750907D01*
X109426072Y-114750907D02*
X109511786Y-114793764D01*
X109511786Y-114793764D02*
X109554644Y-114836621D01*
X109554644Y-114836621D02*
X109597501Y-114922335D01*
X109597501Y-114922335D02*
X109597501Y-115179478D01*
X109597501Y-115179478D02*
X109554644Y-115265192D01*
X109554644Y-115265192D02*
X109511786Y-115308050D01*
X109511786Y-115308050D02*
X109426072Y-115350907D01*
X109426072Y-115350907D02*
X109297501Y-115350907D01*
X109983215Y-115350907D02*
X109983215Y-114750907D01*
X109983215Y-114836621D02*
X110026072Y-114793764D01*
X110026072Y-114793764D02*
X110111787Y-114750907D01*
X110111787Y-114750907D02*
X110240358Y-114750907D01*
X110240358Y-114750907D02*
X110326072Y-114793764D01*
X110326072Y-114793764D02*
X110368930Y-114879478D01*
X110368930Y-114879478D02*
X110368930Y-115350907D01*
X110368930Y-114879478D02*
X110411787Y-114793764D01*
X110411787Y-114793764D02*
X110497501Y-114750907D01*
X110497501Y-114750907D02*
X110626072Y-114750907D01*
X110626072Y-114750907D02*
X110711787Y-114793764D01*
X110711787Y-114793764D02*
X110754644Y-114879478D01*
X110754644Y-114879478D02*
X110754644Y-115350907D01*
D10*
X109982000Y-123660455D02*
X109982000Y-124136646D01*
X109648667Y-123136646D02*
X109982000Y-123660455D01*
X109982000Y-123660455D02*
X110315333Y-123136646D01*
X104340819Y-107862666D02*
X103864628Y-108195999D01*
X104340819Y-108434094D02*
X103340819Y-108434094D01*
X103340819Y-108434094D02*
X103340819Y-108053142D01*
X103340819Y-108053142D02*
X103388438Y-107957904D01*
X103388438Y-107957904D02*
X103436057Y-107910285D01*
X103436057Y-107910285D02*
X103531295Y-107862666D01*
X103531295Y-107862666D02*
X103674152Y-107862666D01*
X103674152Y-107862666D02*
X103769390Y-107910285D01*
X103769390Y-107910285D02*
X103817009Y-107957904D01*
X103817009Y-107957904D02*
X103864628Y-108053142D01*
X103864628Y-108053142D02*
X103864628Y-108434094D01*
X104340819Y-106910285D02*
X104340819Y-107481713D01*
X104340819Y-107195999D02*
X103340819Y-107195999D01*
X103340819Y-107195999D02*
X103483676Y-107291237D01*
X103483676Y-107291237D02*
X103578914Y-107386475D01*
X103578914Y-107386475D02*
X103626533Y-107481713D01*
X123390819Y-107862666D02*
X122914628Y-108195999D01*
X123390819Y-108434094D02*
X122390819Y-108434094D01*
X122390819Y-108434094D02*
X122390819Y-108053142D01*
X122390819Y-108053142D02*
X122438438Y-107957904D01*
X122438438Y-107957904D02*
X122486057Y-107910285D01*
X122486057Y-107910285D02*
X122581295Y-107862666D01*
X122581295Y-107862666D02*
X122724152Y-107862666D01*
X122724152Y-107862666D02*
X122819390Y-107910285D01*
X122819390Y-107910285D02*
X122867009Y-107957904D01*
X122867009Y-107957904D02*
X122914628Y-108053142D01*
X122914628Y-108053142D02*
X122914628Y-108434094D01*
X122390819Y-107529332D02*
X122390819Y-106910285D01*
X122390819Y-106910285D02*
X122771771Y-107243618D01*
X122771771Y-107243618D02*
X122771771Y-107100761D01*
X122771771Y-107100761D02*
X122819390Y-107005523D01*
X122819390Y-107005523D02*
X122867009Y-106957904D01*
X122867009Y-106957904D02*
X122962247Y-106910285D01*
X122962247Y-106910285D02*
X123200342Y-106910285D01*
X123200342Y-106910285D02*
X123295580Y-106957904D01*
X123295580Y-106957904D02*
X123343200Y-107005523D01*
X123343200Y-107005523D02*
X123390819Y-107100761D01*
X123390819Y-107100761D02*
X123390819Y-107386475D01*
X123390819Y-107386475D02*
X123343200Y-107481713D01*
X123343200Y-107481713D02*
X123295580Y-107529332D01*
X116895523Y-124136646D02*
X116562190Y-123660455D01*
X116324095Y-124136646D02*
X116324095Y-123136646D01*
X116324095Y-123136646D02*
X116705047Y-123136646D01*
X116705047Y-123136646D02*
X116800285Y-123184265D01*
X116800285Y-123184265D02*
X116847904Y-123231884D01*
X116847904Y-123231884D02*
X116895523Y-123327122D01*
X116895523Y-123327122D02*
X116895523Y-123469979D01*
X116895523Y-123469979D02*
X116847904Y-123565217D01*
X116847904Y-123565217D02*
X116800285Y-123612836D01*
X116800285Y-123612836D02*
X116705047Y-123660455D01*
X116705047Y-123660455D02*
X116324095Y-123660455D01*
D12*
X122682095Y-123181665D02*
X122586857Y-123134046D01*
X122586857Y-123134046D02*
X122444000Y-123134046D01*
X122444000Y-123134046D02*
X122301143Y-123181665D01*
X122301143Y-123181665D02*
X122205905Y-123276903D01*
X122205905Y-123276903D02*
X122158286Y-123372141D01*
X122158286Y-123372141D02*
X122110667Y-123562617D01*
X122110667Y-123562617D02*
X122110667Y-123705474D01*
X122110667Y-123705474D02*
X122158286Y-123895950D01*
X122158286Y-123895950D02*
X122205905Y-123991188D01*
X122205905Y-123991188D02*
X122301143Y-124086427D01*
X122301143Y-124086427D02*
X122444000Y-124134046D01*
X122444000Y-124134046D02*
X122539238Y-124134046D01*
X122539238Y-124134046D02*
X122682095Y-124086427D01*
X122682095Y-124086427D02*
X122729714Y-124038807D01*
X122729714Y-124038807D02*
X122729714Y-123705474D01*
X122729714Y-123705474D02*
X122539238Y-123705474D01*
X123158286Y-124134046D02*
X123158286Y-123134046D01*
X123158286Y-123134046D02*
X123729714Y-124134046D01*
X123729714Y-124134046D02*
X123729714Y-123134046D01*
X124205905Y-124134046D02*
X124205905Y-123134046D01*
X124205905Y-123134046D02*
X124444000Y-123134046D01*
X124444000Y-123134046D02*
X124586857Y-123181665D01*
X124586857Y-123181665D02*
X124682095Y-123276903D01*
X124682095Y-123276903D02*
X124729714Y-123372141D01*
X124729714Y-123372141D02*
X124777333Y-123562617D01*
X124777333Y-123562617D02*
X124777333Y-123705474D01*
X124777333Y-123705474D02*
X124729714Y-123895950D01*
X124729714Y-123895950D02*
X124682095Y-123991188D01*
X124682095Y-123991188D02*
X124586857Y-124086427D01*
X124586857Y-124086427D02*
X124444000Y-124134046D01*
X124444000Y-124134046D02*
X124205905Y-124134046D01*
D10*
X113107333Y-109928819D02*
X112774000Y-109452628D01*
X112535905Y-109928819D02*
X112535905Y-108928819D01*
X112535905Y-108928819D02*
X112916857Y-108928819D01*
X112916857Y-108928819D02*
X113012095Y-108976438D01*
X113012095Y-108976438D02*
X113059714Y-109024057D01*
X113059714Y-109024057D02*
X113107333Y-109119295D01*
X113107333Y-109119295D02*
X113107333Y-109262152D01*
X113107333Y-109262152D02*
X113059714Y-109357390D01*
X113059714Y-109357390D02*
X113012095Y-109405009D01*
X113012095Y-109405009D02*
X112916857Y-109452628D01*
X112916857Y-109452628D02*
X112535905Y-109452628D01*
X113488286Y-109024057D02*
X113535905Y-108976438D01*
X113535905Y-108976438D02*
X113631143Y-108928819D01*
X113631143Y-108928819D02*
X113869238Y-108928819D01*
X113869238Y-108928819D02*
X113964476Y-108976438D01*
X113964476Y-108976438D02*
X114012095Y-109024057D01*
X114012095Y-109024057D02*
X114059714Y-109119295D01*
X114059714Y-109119295D02*
X114059714Y-109214533D01*
X114059714Y-109214533D02*
X114012095Y-109357390D01*
X114012095Y-109357390D02*
X113440667Y-109928819D01*
X113440667Y-109928819D02*
X114059714Y-109928819D01*
X103385904Y-123184265D02*
X103290666Y-123136646D01*
X103290666Y-123136646D02*
X103147809Y-123136646D01*
X103147809Y-123136646D02*
X103004952Y-123184265D01*
X103004952Y-123184265D02*
X102909714Y-123279503D01*
X102909714Y-123279503D02*
X102862095Y-123374741D01*
X102862095Y-123374741D02*
X102814476Y-123565217D01*
X102814476Y-123565217D02*
X102814476Y-123708074D01*
X102814476Y-123708074D02*
X102862095Y-123898550D01*
X102862095Y-123898550D02*
X102909714Y-123993788D01*
X102909714Y-123993788D02*
X103004952Y-124089027D01*
X103004952Y-124089027D02*
X103147809Y-124136646D01*
X103147809Y-124136646D02*
X103243047Y-124136646D01*
X103243047Y-124136646D02*
X103385904Y-124089027D01*
X103385904Y-124089027D02*
X103433523Y-124041407D01*
X103433523Y-124041407D02*
X103433523Y-123708074D01*
X103433523Y-123708074D02*
X103243047Y-123708074D01*
D13*
X108144000Y-107248000D02*
X108144000Y-105918000D01*
X109474000Y-107248000D02*
X108144000Y-107248000D01*
X110744000Y-107248000D02*
X118424000Y-107248000D01*
X110744000Y-107248000D02*
X110744000Y-104588000D01*
X118424000Y-107248000D02*
X118424000Y-104588000D01*
X110744000Y-104588000D02*
X118424000Y-104588000D01*
X103774000Y-111736000D02*
X103774000Y-110966000D01*
X102404000Y-110966000D02*
X105144000Y-110966000D01*
X105144000Y-110966000D02*
X105144000Y-104426000D01*
X102404000Y-104426000D02*
X102404000Y-110966000D01*
X105144000Y-104426000D02*
X102404000Y-104426000D01*
X103774000Y-103656000D02*
X103774000Y-104426000D01*
X122774000Y-111736000D02*
X122774000Y-110966000D01*
X121404000Y-110966000D02*
X124144000Y-110966000D01*
X124144000Y-110966000D02*
X124144000Y-104426000D01*
X121404000Y-104426000D02*
X121404000Y-110966000D01*
X124144000Y-104426000D02*
X121404000Y-104426000D01*
X122774000Y-103656000D02*
X122774000Y-104426000D01*
X118424000Y-101794000D02*
X118424000Y-103124000D01*
X117094000Y-101794000D02*
X118424000Y-101794000D01*
X115824000Y-101794000D02*
X108144000Y-101794000D01*
X115824000Y-101794000D02*
X115824000Y-104454000D01*
X108144000Y-101794000D02*
X108144000Y-104454000D01*
X115824000Y-104454000D02*
X108144000Y-104454000D01*
X109234000Y-109474000D02*
X110004000Y-109474000D01*
X110004000Y-108104000D02*
X110004000Y-110844000D01*
X110004000Y-110844000D02*
X116544000Y-110844000D01*
X116544000Y-108104000D02*
X110004000Y-108104000D01*
X116544000Y-110844000D02*
X116544000Y-108104000D01*
X117314000Y-109474000D02*
X116544000Y-109474000D01*
%LPC*%
D14*
X113274000Y-115000000D03*
D15*
X109474000Y-105918000D03*
D16*
X112014000Y-105918000D03*
X114554000Y-105918000D03*
X117094000Y-105918000D03*
D17*
X109950599Y-120064356D03*
D18*
X103774000Y-112776000D03*
D19*
X103774000Y-102616000D03*
D18*
X122774000Y-112776000D03*
D19*
X122774000Y-102616000D03*
D15*
X117094000Y-103124000D03*
D16*
X114554000Y-103124000D03*
X112014000Y-103124000D03*
X109474000Y-103124000D03*
D17*
X103283933Y-120064356D03*
X123283933Y-120064356D03*
D18*
X108194000Y-109474000D03*
D19*
X118354000Y-109474000D03*
D17*
X116617265Y-120064356D03*
%LPD*%
M02*
