G04 #@! TF.GenerationSoftware,KiCad,Pcbnew,7.0.10*
G04 #@! TF.CreationDate,2024-07-28T21:48:16+02:00*
G04 #@! TF.ProjectId,Traffic LED Board,54726166-6669-4632-904c-454420426f61,rev?*
G04 #@! TF.SameCoordinates,Original*
G04 #@! TF.FileFunction,Copper,L1,Top*
G04 #@! TF.FilePolarity,Positive*
%FSLAX46Y46*%
G04 Gerber Fmt 4.6, Leading zero omitted, Abs format (unit mm)*
G04 Created by KiCad (PCBNEW 7.0.10) date 2024-07-28 21:48:16*
%MOMM*%
%LPD*%
G01*
G04 APERTURE LIST*
G04 #@! TA.AperFunction,ComponentPad*
%ADD10R,1.700000X1.700000*%
G04 #@! TD*
G04 #@! TA.AperFunction,ComponentPad*
%ADD11O,1.700000X1.700000*%
G04 #@! TD*
G04 #@! TA.AperFunction,ComponentPad*
%ADD12C,5.000000*%
G04 #@! TD*
G04 #@! TA.AperFunction,ComponentPad*
%ADD13C,1.600000*%
G04 #@! TD*
G04 #@! TA.AperFunction,ComponentPad*
%ADD14O,1.600000X1.600000*%
G04 #@! TD*
G04 #@! TA.AperFunction,Conductor*
%ADD15C,1.500000*%
G04 #@! TD*
G04 #@! TA.AperFunction,Conductor*
%ADD16C,1.000000*%
G04 #@! TD*
G04 APERTURE END LIST*
D10*
X109474000Y-105918000D03*
D11*
X112014000Y-105918000D03*
X114554000Y-105918000D03*
X117094000Y-105918000D03*
D12*
X109950599Y-120064356D03*
D13*
X103774000Y-112776000D03*
D14*
X103774000Y-102616000D03*
D13*
X122774000Y-112776000D03*
D14*
X122774000Y-102616000D03*
D10*
X117094000Y-103124000D03*
D11*
X114554000Y-103124000D03*
X112014000Y-103124000D03*
X109474000Y-103124000D03*
D12*
X103283933Y-120064356D03*
X123283933Y-120064356D03*
D13*
X108194000Y-109474000D03*
D14*
X118354000Y-109474000D03*
D12*
X116617265Y-120064356D03*
D15*
X119888000Y-105918000D02*
X117094000Y-105918000D01*
X124714000Y-108458000D02*
X122174000Y-105918000D01*
D16*
X109474000Y-103124000D02*
X111252000Y-101346000D01*
D15*
X124714000Y-118634289D02*
X124714000Y-108458000D01*
X123283933Y-120064356D02*
X124714000Y-118634289D01*
D16*
X111252000Y-101346000D02*
X118416000Y-101346000D01*
D15*
X122174000Y-105918000D02*
X119888000Y-105918000D01*
D16*
X119888000Y-102818000D02*
X119888000Y-105918000D01*
X118416000Y-101346000D02*
X119888000Y-102818000D01*
D15*
X103283933Y-113266067D02*
X103774000Y-112776000D01*
X103283933Y-120064356D02*
X103283933Y-113266067D01*
X109950599Y-111230599D02*
X108194000Y-109474000D01*
X109950599Y-120064356D02*
X109950599Y-111230599D01*
X116617265Y-120064356D02*
X116617265Y-118932735D01*
X116617265Y-118932735D02*
X122774000Y-112776000D01*
X107076000Y-105918000D02*
X103774000Y-102616000D01*
X109474000Y-105918000D02*
X107076000Y-105918000D01*
D16*
X112014000Y-105918000D02*
X112014000Y-105664000D01*
X112014000Y-105664000D02*
X114554000Y-103124000D01*
D15*
X114367919Y-109474000D02*
X112014000Y-107120081D01*
X118354000Y-109474000D02*
X114367919Y-109474000D01*
X112014000Y-107120081D02*
X112014000Y-105918000D01*
G04 #@! TA.AperFunction,Conductor*
G36*
X126551500Y-100185224D02*
G01*
X126597255Y-100238028D01*
X126608461Y-100289539D01*
X126608461Y-124710461D01*
X126588776Y-124777500D01*
X126535972Y-124823255D01*
X126484461Y-124834461D01*
X100063539Y-124834461D01*
X99996500Y-124814776D01*
X99950745Y-124761972D01*
X99939539Y-124710461D01*
X99939539Y-120064359D01*
X100270334Y-120064359D01*
X100290711Y-120414213D01*
X100290712Y-120414224D01*
X100351563Y-120759331D01*
X100351565Y-120759338D01*
X100452076Y-121095069D01*
X100590879Y-121416848D01*
X100590885Y-121416861D01*
X100766108Y-121720357D01*
X100975378Y-122001456D01*
X100975383Y-122001462D01*
X100978394Y-122004653D01*
X101215876Y-122256368D01*
X101215882Y-122256373D01*
X101215884Y-122256375D01*
X101476197Y-122474805D01*
X101484336Y-122481634D01*
X101777133Y-122674209D01*
X102090307Y-122831491D01*
X102419623Y-122951352D01*
X102419629Y-122951353D01*
X102419631Y-122951354D01*
X102760611Y-123032169D01*
X102760618Y-123032170D01*
X102760627Y-123032172D01*
X103108708Y-123072856D01*
X103108715Y-123072856D01*
X103459151Y-123072856D01*
X103459158Y-123072856D01*
X103807239Y-123032172D01*
X103807248Y-123032169D01*
X103807254Y-123032169D01*
X104082304Y-122966979D01*
X104148243Y-122951352D01*
X104477559Y-122831491D01*
X104790733Y-122674209D01*
X105083530Y-122481634D01*
X105351990Y-122256368D01*
X105592484Y-122001460D01*
X105801758Y-121720356D01*
X105976983Y-121416857D01*
X106115790Y-121095068D01*
X106216300Y-120759340D01*
X106216650Y-120757358D01*
X106277153Y-120414224D01*
X106277152Y-120414224D01*
X106277155Y-120414213D01*
X106297532Y-120064356D01*
X106277155Y-119714499D01*
X106251868Y-119571089D01*
X106216302Y-119369380D01*
X106216300Y-119369373D01*
X106141407Y-119119212D01*
X106115790Y-119033644D01*
X105976983Y-118711855D01*
X105801758Y-118408356D01*
X105774567Y-118371832D01*
X105592487Y-118127255D01*
X105592482Y-118127249D01*
X105476195Y-118003994D01*
X105351990Y-117872344D01*
X105351983Y-117872338D01*
X105351981Y-117872336D01*
X105083533Y-117647080D01*
X104790727Y-117454499D01*
X104790725Y-117454498D01*
X104610782Y-117364127D01*
X104559708Y-117316449D01*
X104542433Y-117253317D01*
X104542433Y-113899870D01*
X104562118Y-113832831D01*
X104595308Y-113798296D01*
X104618300Y-113782198D01*
X104780198Y-113620300D01*
X104911523Y-113432749D01*
X105008284Y-113225243D01*
X105067543Y-113004087D01*
X105087498Y-112776000D01*
X105067543Y-112547913D01*
X105008284Y-112326757D01*
X104911523Y-112119251D01*
X104780198Y-111931700D01*
X104618300Y-111769802D01*
X104430749Y-111638477D01*
X104430745Y-111638475D01*
X104223249Y-111541718D01*
X104223238Y-111541714D01*
X104002089Y-111482457D01*
X104002081Y-111482456D01*
X103774002Y-111462502D01*
X103773998Y-111462502D01*
X103545918Y-111482456D01*
X103545910Y-111482457D01*
X103324761Y-111541714D01*
X103324750Y-111541718D01*
X103117254Y-111638475D01*
X103117252Y-111638476D01*
X103117251Y-111638477D01*
X102929700Y-111769802D01*
X102929698Y-111769803D01*
X102929695Y-111769806D01*
X102767806Y-111931695D01*
X102636473Y-112119256D01*
X102633057Y-112126582D01*
X102608360Y-112161850D01*
X102448939Y-112321271D01*
X102438574Y-112330535D01*
X102410716Y-112352751D01*
X102410710Y-112352757D01*
X102366822Y-112402991D01*
X102361133Y-112409078D01*
X102354067Y-112416144D01*
X102327767Y-112447646D01*
X102325963Y-112449758D01*
X102261670Y-112523348D01*
X102261665Y-112523354D01*
X102259379Y-112527181D01*
X102248132Y-112543034D01*
X102245261Y-112546472D01*
X102197022Y-112631487D01*
X102195623Y-112633889D01*
X102145485Y-112717807D01*
X102145476Y-112717825D01*
X102143904Y-112722014D01*
X102135672Y-112739610D01*
X102133465Y-112743500D01*
X102133464Y-112743501D01*
X102101167Y-112835798D01*
X102100220Y-112838410D01*
X102065883Y-112929902D01*
X102065881Y-112929908D01*
X102065082Y-112934312D01*
X102060121Y-112953104D01*
X102058647Y-112957316D01*
X102058646Y-112957319D01*
X102043357Y-113053845D01*
X102042892Y-113056584D01*
X102025433Y-113152800D01*
X102025433Y-113157259D01*
X102023906Y-113176662D01*
X102023207Y-113181068D01*
X102025402Y-113278821D01*
X102025433Y-113281603D01*
X102025433Y-117253317D01*
X102005748Y-117320356D01*
X101957084Y-117364127D01*
X101777140Y-117454498D01*
X101777138Y-117454499D01*
X101484332Y-117647080D01*
X101215884Y-117872336D01*
X101215874Y-117872346D01*
X100975383Y-118127249D01*
X100975378Y-118127255D01*
X100766108Y-118408354D01*
X100590885Y-118711850D01*
X100590879Y-118711863D01*
X100452076Y-119033642D01*
X100351565Y-119369373D01*
X100351563Y-119369380D01*
X100290712Y-119714487D01*
X100290711Y-119714498D01*
X100270334Y-120064352D01*
X100270334Y-120064359D01*
X99939539Y-120064359D01*
X99939539Y-109474001D01*
X106880502Y-109474001D01*
X106900456Y-109702081D01*
X106900457Y-109702089D01*
X106959714Y-109923238D01*
X106959718Y-109923249D01*
X107056475Y-110130745D01*
X107056477Y-110130749D01*
X107187802Y-110318300D01*
X107349700Y-110480198D01*
X107537251Y-110611523D01*
X107544573Y-110614937D01*
X107579850Y-110639638D01*
X108655780Y-111715568D01*
X108689265Y-111776891D01*
X108692099Y-111803249D01*
X108692099Y-117253317D01*
X108672414Y-117320356D01*
X108623750Y-117364127D01*
X108443806Y-117454498D01*
X108443804Y-117454499D01*
X108150998Y-117647080D01*
X107882550Y-117872336D01*
X107882540Y-117872346D01*
X107642049Y-118127249D01*
X107642044Y-118127255D01*
X107432774Y-118408354D01*
X107257551Y-118711850D01*
X107257545Y-118711863D01*
X107118742Y-119033642D01*
X107018231Y-119369373D01*
X107018229Y-119369380D01*
X106957378Y-119714487D01*
X106957377Y-119714498D01*
X106937000Y-120064352D01*
X106937000Y-120064359D01*
X106957377Y-120414213D01*
X106957378Y-120414224D01*
X107018229Y-120759331D01*
X107018231Y-120759338D01*
X107118742Y-121095069D01*
X107257545Y-121416848D01*
X107257551Y-121416861D01*
X107432774Y-121720357D01*
X107642044Y-122001456D01*
X107642049Y-122001462D01*
X107645060Y-122004653D01*
X107882542Y-122256368D01*
X107882548Y-122256373D01*
X107882550Y-122256375D01*
X108142863Y-122474805D01*
X108151002Y-122481634D01*
X108443799Y-122674209D01*
X108756973Y-122831491D01*
X109086289Y-122951352D01*
X109086295Y-122951353D01*
X109086297Y-122951354D01*
X109427277Y-123032169D01*
X109427284Y-123032170D01*
X109427293Y-123032172D01*
X109775374Y-123072856D01*
X109775381Y-123072856D01*
X110125817Y-123072856D01*
X110125824Y-123072856D01*
X110473905Y-123032172D01*
X110473914Y-123032169D01*
X110473920Y-123032169D01*
X110748970Y-122966979D01*
X110814909Y-122951352D01*
X111144225Y-122831491D01*
X111457399Y-122674209D01*
X111750196Y-122481634D01*
X112018656Y-122256368D01*
X112259150Y-122001460D01*
X112468424Y-121720356D01*
X112643649Y-121416857D01*
X112782456Y-121095068D01*
X112882966Y-120759340D01*
X112883316Y-120757358D01*
X112943819Y-120414224D01*
X112943818Y-120414224D01*
X112943821Y-120414213D01*
X112964198Y-120064359D01*
X113603666Y-120064359D01*
X113624043Y-120414213D01*
X113624044Y-120414224D01*
X113684895Y-120759331D01*
X113684897Y-120759338D01*
X113785408Y-121095069D01*
X113924211Y-121416848D01*
X113924217Y-121416861D01*
X114099440Y-121720357D01*
X114308710Y-122001456D01*
X114308715Y-122001462D01*
X114311726Y-122004653D01*
X114549208Y-122256368D01*
X114549214Y-122256373D01*
X114549216Y-122256375D01*
X114809529Y-122474805D01*
X114817668Y-122481634D01*
X115110465Y-122674209D01*
X115423639Y-122831491D01*
X115752955Y-122951352D01*
X115752961Y-122951353D01*
X115752963Y-122951354D01*
X116093943Y-123032169D01*
X116093950Y-123032170D01*
X116093959Y-123032172D01*
X116442040Y-123072856D01*
X116442047Y-123072856D01*
X116792483Y-123072856D01*
X116792490Y-123072856D01*
X117140571Y-123032172D01*
X117140580Y-123032169D01*
X117140586Y-123032169D01*
X117415636Y-122966979D01*
X117481575Y-122951352D01*
X117810891Y-122831491D01*
X118124065Y-122674209D01*
X118416862Y-122481634D01*
X118685322Y-122256368D01*
X118925816Y-122001460D01*
X119135090Y-121720356D01*
X119310315Y-121416857D01*
X119449122Y-121095068D01*
X119549632Y-120759340D01*
X119549982Y-120757358D01*
X119610485Y-120414224D01*
X119610484Y-120414224D01*
X119610487Y-120414213D01*
X119630864Y-120064359D01*
X120278849Y-120064359D01*
X120299168Y-120413225D01*
X120299169Y-120413236D01*
X120359847Y-120757358D01*
X120359849Y-120757367D01*
X120460078Y-121092156D01*
X120598488Y-121413026D01*
X120598494Y-121413039D01*
X120773222Y-121715678D01*
X120981900Y-121995981D01*
X120990081Y-122004652D01*
X122237597Y-120757136D01*
X122376788Y-120931676D01*
X122546232Y-121079714D01*
X122593741Y-121108099D01*
X121346751Y-122355089D01*
X121346752Y-122355090D01*
X121489417Y-122474801D01*
X121781394Y-122666836D01*
X122093672Y-122823670D01*
X122093678Y-122823672D01*
X122422063Y-122943194D01*
X122422066Y-122943195D01*
X122762104Y-123023785D01*
X123109209Y-123064355D01*
X123109210Y-123064356D01*
X123458656Y-123064356D01*
X123458656Y-123064355D01*
X123805760Y-123023785D01*
X123805762Y-123023785D01*
X124145799Y-122943195D01*
X124145802Y-122943194D01*
X124474187Y-122823672D01*
X124474193Y-122823670D01*
X124786471Y-122666836D01*
X125078442Y-122474805D01*
X125078443Y-122474804D01*
X125221112Y-122355090D01*
X125221113Y-122355089D01*
X123974059Y-121108034D01*
X124109680Y-121009500D01*
X124265172Y-120846868D01*
X124326734Y-120753605D01*
X125577782Y-122004653D01*
X125577784Y-122004652D01*
X125585955Y-121995992D01*
X125585966Y-121995979D01*
X125794643Y-121715678D01*
X125969371Y-121413039D01*
X125969377Y-121413026D01*
X126107787Y-121092156D01*
X126208016Y-120757367D01*
X126208018Y-120757358D01*
X126268696Y-120413236D01*
X126268697Y-120413225D01*
X126289017Y-120064359D01*
X126289017Y-120064352D01*
X126268697Y-119715486D01*
X126268696Y-119715475D01*
X126208018Y-119371353D01*
X126208016Y-119371344D01*
X126107787Y-119036555D01*
X125969377Y-118715685D01*
X125969371Y-118715672D01*
X125794643Y-118413033D01*
X125585965Y-118132730D01*
X125577783Y-118124058D01*
X124330267Y-119371573D01*
X124191078Y-119197036D01*
X124021634Y-119048998D01*
X123974123Y-119020611D01*
X125221113Y-117773621D01*
X125221112Y-117773620D01*
X125078452Y-117653913D01*
X124786471Y-117461875D01*
X124474193Y-117305041D01*
X124474187Y-117305039D01*
X124145802Y-117185517D01*
X124145799Y-117185516D01*
X123805761Y-117104926D01*
X123458656Y-117064356D01*
X123109210Y-117064356D01*
X122762105Y-117104926D01*
X122762103Y-117104926D01*
X122422066Y-117185516D01*
X122422063Y-117185517D01*
X122093678Y-117305039D01*
X122093672Y-117305041D01*
X121781394Y-117461875D01*
X121489413Y-117653913D01*
X121346752Y-117773620D01*
X121346751Y-117773621D01*
X122593807Y-119020677D01*
X122458186Y-119119212D01*
X122302694Y-119281844D01*
X122241131Y-119375107D01*
X120990081Y-118124057D01*
X120990080Y-118124058D01*
X120981909Y-118132719D01*
X120981905Y-118132724D01*
X120773222Y-118413033D01*
X120598494Y-118715672D01*
X120598488Y-118715685D01*
X120460078Y-119036555D01*
X120359849Y-119371344D01*
X120359847Y-119371353D01*
X120299169Y-119715475D01*
X120299168Y-119715486D01*
X120278849Y-120064352D01*
X120278849Y-120064359D01*
X119630864Y-120064359D01*
X119630864Y-120064356D01*
X119610487Y-119714499D01*
X119585200Y-119571089D01*
X119549634Y-119369380D01*
X119549632Y-119369373D01*
X119474739Y-119119212D01*
X119449122Y-119033644D01*
X119310315Y-118711855D01*
X119135090Y-118408356D01*
X119107898Y-118371831D01*
X119083656Y-118306303D01*
X119098689Y-118238069D01*
X119119678Y-118210108D01*
X123388149Y-113941637D01*
X123423429Y-113916936D01*
X123430749Y-113913523D01*
X123618300Y-113782198D01*
X123780198Y-113620300D01*
X123911523Y-113432749D01*
X124008284Y-113225243D01*
X124067543Y-113004087D01*
X124087498Y-112776000D01*
X124067543Y-112547913D01*
X124008284Y-112326757D01*
X123911523Y-112119251D01*
X123780198Y-111931700D01*
X123618300Y-111769802D01*
X123430749Y-111638477D01*
X123430745Y-111638475D01*
X123223249Y-111541718D01*
X123223238Y-111541714D01*
X123002089Y-111482457D01*
X123002081Y-111482456D01*
X122774002Y-111462502D01*
X122773998Y-111462502D01*
X122545918Y-111482456D01*
X122545910Y-111482457D01*
X122324761Y-111541714D01*
X122324750Y-111541718D01*
X122117254Y-111638475D01*
X122117252Y-111638476D01*
X122117251Y-111638477D01*
X121929700Y-111769802D01*
X121929698Y-111769803D01*
X121929695Y-111769806D01*
X121767806Y-111931695D01*
X121636473Y-112119256D01*
X121633057Y-112126582D01*
X121608360Y-112161850D01*
X116750675Y-117019537D01*
X116689352Y-117053022D01*
X116662994Y-117055856D01*
X116442040Y-117055856D01*
X116137469Y-117091454D01*
X116093958Y-117096540D01*
X116093943Y-117096542D01*
X115752963Y-117177357D01*
X115752942Y-117177364D01*
X115423637Y-117297221D01*
X115423631Y-117297224D01*
X115110468Y-117454501D01*
X114817664Y-117647080D01*
X114549216Y-117872336D01*
X114549206Y-117872346D01*
X114308715Y-118127249D01*
X114308710Y-118127255D01*
X114099440Y-118408354D01*
X113924217Y-118711850D01*
X113924211Y-118711863D01*
X113785408Y-119033642D01*
X113684897Y-119369373D01*
X113684895Y-119369380D01*
X113624044Y-119714487D01*
X113624043Y-119714498D01*
X113603666Y-120064352D01*
X113603666Y-120064359D01*
X112964198Y-120064359D01*
X112964198Y-120064356D01*
X112943821Y-119714499D01*
X112918534Y-119571089D01*
X112882968Y-119369380D01*
X112882966Y-119369373D01*
X112808073Y-119119212D01*
X112782456Y-119033644D01*
X112643649Y-118711855D01*
X112468424Y-118408356D01*
X112441233Y-118371832D01*
X112259153Y-118127255D01*
X112259148Y-118127249D01*
X112142861Y-118003994D01*
X112018656Y-117872344D01*
X112018649Y-117872338D01*
X112018647Y-117872336D01*
X111750199Y-117647080D01*
X111457393Y-117454499D01*
X111457391Y-117454498D01*
X111277448Y-117364127D01*
X111226374Y-117316449D01*
X111209099Y-117253317D01*
X111209099Y-115056330D01*
X112019710Y-115056330D01*
X112049925Y-115279387D01*
X112049926Y-115279390D01*
X112119483Y-115493465D01*
X112226146Y-115691678D01*
X112226148Y-115691681D01*
X112366489Y-115867663D01*
X112366491Y-115867664D01*
X112366492Y-115867666D01*
X112536004Y-116015765D01*
X112729236Y-116131215D01*
X112939976Y-116210307D01*
X113161450Y-116250500D01*
X113161453Y-116250500D01*
X113330148Y-116250500D01*
X113330155Y-116250500D01*
X113498188Y-116235377D01*
X113498192Y-116235376D01*
X113715160Y-116175496D01*
X113715162Y-116175495D01*
X113715170Y-116175493D01*
X113917973Y-116077829D01*
X114100078Y-115945522D01*
X114255632Y-115782825D01*
X114379635Y-115594968D01*
X114468103Y-115387988D01*
X114518191Y-115168537D01*
X114528290Y-114943670D01*
X114498075Y-114720613D01*
X114428517Y-114506536D01*
X114321852Y-114308319D01*
X114181508Y-114132334D01*
X114011996Y-113984235D01*
X113818764Y-113868785D01*
X113700775Y-113824503D01*
X113608023Y-113789692D01*
X113386550Y-113749500D01*
X113386547Y-113749500D01*
X113217845Y-113749500D01*
X113179399Y-113752960D01*
X113049813Y-113764622D01*
X113049807Y-113764623D01*
X112832839Y-113824503D01*
X112832826Y-113824508D01*
X112630033Y-113922167D01*
X112630025Y-113922171D01*
X112447927Y-114054473D01*
X112447925Y-114054474D01*
X112292366Y-114217176D01*
X112168363Y-114405033D01*
X112079899Y-114612004D01*
X112079895Y-114612017D01*
X112029810Y-114831457D01*
X112029808Y-114831468D01*
X112024769Y-114943674D01*
X112019710Y-115056330D01*
X111209099Y-115056330D01*
X111209099Y-111308238D01*
X111209879Y-111294353D01*
X111213868Y-111258951D01*
X111209379Y-111192385D01*
X111209099Y-111184044D01*
X111209099Y-111174084D01*
X111209099Y-111174077D01*
X111205417Y-111133173D01*
X111205203Y-111130441D01*
X111198630Y-111032935D01*
X111198629Y-111032930D01*
X111197540Y-111028608D01*
X111194280Y-111009418D01*
X111193881Y-111004982D01*
X111193879Y-111004975D01*
X111167864Y-110910713D01*
X111167167Y-110908072D01*
X111143277Y-110813260D01*
X111143276Y-110813258D01*
X111141434Y-110809202D01*
X111134796Y-110790893D01*
X111133612Y-110786604D01*
X111091196Y-110698526D01*
X111090039Y-110696054D01*
X111049593Y-110607009D01*
X111047051Y-110603340D01*
X111037257Y-110586521D01*
X111035325Y-110582508D01*
X111035324Y-110582507D01*
X111035324Y-110582506D01*
X110977837Y-110503383D01*
X110976263Y-110501165D01*
X110961734Y-110480193D01*
X110920585Y-110420797D01*
X110917431Y-110417643D01*
X110904796Y-110402850D01*
X110902171Y-110399238D01*
X110902172Y-110399238D01*
X110893673Y-110391112D01*
X110831463Y-110331633D01*
X110829519Y-110329731D01*
X109359638Y-108859850D01*
X109334937Y-108824573D01*
X109331523Y-108817251D01*
X109200198Y-108629700D01*
X109038300Y-108467802D01*
X108850749Y-108336477D01*
X108850745Y-108336475D01*
X108643249Y-108239718D01*
X108643238Y-108239714D01*
X108422089Y-108180457D01*
X108422081Y-108180456D01*
X108194002Y-108160502D01*
X108193998Y-108160502D01*
X107965918Y-108180456D01*
X107965910Y-108180457D01*
X107744761Y-108239714D01*
X107744750Y-108239718D01*
X107537254Y-108336475D01*
X107537252Y-108336476D01*
X107537251Y-108336477D01*
X107349700Y-108467802D01*
X107349698Y-108467803D01*
X107349695Y-108467806D01*
X107187806Y-108629695D01*
X107056476Y-108817252D01*
X107056475Y-108817254D01*
X106959718Y-109024750D01*
X106959714Y-109024761D01*
X106900457Y-109245910D01*
X106900456Y-109245918D01*
X106880502Y-109473998D01*
X106880502Y-109474001D01*
X99939539Y-109474001D01*
X99939539Y-102616001D01*
X102460502Y-102616001D01*
X102480456Y-102844081D01*
X102480457Y-102844089D01*
X102539714Y-103065238D01*
X102539718Y-103065249D01*
X102625869Y-103250000D01*
X102636477Y-103272749D01*
X102767802Y-103460300D01*
X102929700Y-103622198D01*
X103117251Y-103753523D01*
X103124573Y-103756937D01*
X103159850Y-103781638D01*
X106131203Y-106752991D01*
X106140469Y-106763359D01*
X106162685Y-106791217D01*
X106212927Y-106835112D01*
X106219024Y-106840812D01*
X106226073Y-106847861D01*
X106257633Y-106874208D01*
X106259616Y-106875902D01*
X106326478Y-106934318D01*
X106333283Y-106940264D01*
X106337105Y-106942547D01*
X106352977Y-106953808D01*
X106356406Y-106956671D01*
X106441470Y-107004938D01*
X106443789Y-107006288D01*
X106527750Y-107056453D01*
X106531931Y-107058022D01*
X106549554Y-107066267D01*
X106553433Y-107068468D01*
X106645797Y-107100787D01*
X106648258Y-107101680D01*
X106739839Y-107136051D01*
X106744231Y-107136848D01*
X106763047Y-107141815D01*
X106767254Y-107143287D01*
X106863896Y-107158592D01*
X106866490Y-107159033D01*
X106938611Y-107172122D01*
X106962732Y-107176500D01*
X106962733Y-107176500D01*
X106967192Y-107176500D01*
X106986591Y-107178026D01*
X106991000Y-107178725D01*
X106991000Y-107178724D01*
X106991001Y-107178725D01*
X107088755Y-107176531D01*
X107091537Y-107176500D01*
X108279900Y-107176500D01*
X108346939Y-107196185D01*
X108354211Y-107201234D01*
X108377792Y-107218887D01*
X108377793Y-107218888D01*
X108457545Y-107248634D01*
X108514799Y-107269989D01*
X108542050Y-107272918D01*
X108575345Y-107276499D01*
X108575362Y-107276500D01*
X110372638Y-107276500D01*
X110372654Y-107276499D01*
X110399692Y-107273591D01*
X110433201Y-107269989D01*
X110570204Y-107218889D01*
X110570204Y-107218888D01*
X110570206Y-107218888D01*
X110577992Y-107214637D01*
X110579058Y-107216590D01*
X110632986Y-107196467D01*
X110701261Y-107211309D01*
X110750674Y-107260707D01*
X110765568Y-107311799D01*
X110765968Y-107317738D01*
X110765972Y-107317762D01*
X110767061Y-107322083D01*
X110770317Y-107341243D01*
X110770718Y-107345698D01*
X110796725Y-107439935D01*
X110797434Y-107442623D01*
X110821318Y-107537410D01*
X110821324Y-107537427D01*
X110823168Y-107541486D01*
X110829797Y-107559767D01*
X110830986Y-107564074D01*
X110873403Y-107652155D01*
X110874565Y-107654639D01*
X110915002Y-107743665D01*
X110915003Y-107743666D01*
X110917543Y-107747332D01*
X110927340Y-107764156D01*
X110929270Y-107768165D01*
X110929273Y-107768169D01*
X110929275Y-107768174D01*
X110929278Y-107768178D01*
X110986728Y-107847251D01*
X110988338Y-107849520D01*
X111044014Y-107929883D01*
X111047168Y-107933037D01*
X111059801Y-107947827D01*
X111062427Y-107951442D01*
X111062428Y-107951443D01*
X111062429Y-107951444D01*
X111133135Y-108019046D01*
X111135078Y-108020947D01*
X113423122Y-110308991D01*
X113432388Y-110319359D01*
X113454604Y-110347217D01*
X113504846Y-110391112D01*
X113510943Y-110396812D01*
X113517992Y-110403861D01*
X113549552Y-110430208D01*
X113551535Y-110431902D01*
X113618397Y-110490318D01*
X113625202Y-110496264D01*
X113629024Y-110498547D01*
X113644896Y-110509808D01*
X113648325Y-110512671D01*
X113733389Y-110560938D01*
X113735708Y-110562288D01*
X113819669Y-110612453D01*
X113823850Y-110614022D01*
X113841473Y-110622267D01*
X113845352Y-110624468D01*
X113937716Y-110656787D01*
X113940177Y-110657680D01*
X114031758Y-110692051D01*
X114036150Y-110692848D01*
X114054966Y-110697815D01*
X114059173Y-110699287D01*
X114155815Y-110714592D01*
X114158409Y-110715033D01*
X114230530Y-110728122D01*
X114254651Y-110732500D01*
X114254652Y-110732500D01*
X114259111Y-110732500D01*
X114278510Y-110734026D01*
X114282919Y-110734725D01*
X114282919Y-110734724D01*
X114282920Y-110734725D01*
X114380674Y-110732531D01*
X114383456Y-110732500D01*
X117978806Y-110732500D01*
X118010899Y-110736724D01*
X118125913Y-110767543D01*
X118288832Y-110781796D01*
X118353998Y-110787498D01*
X118354000Y-110787498D01*
X118354002Y-110787498D01*
X118411021Y-110782509D01*
X118582087Y-110767543D01*
X118803243Y-110708284D01*
X119010749Y-110611523D01*
X119198300Y-110480198D01*
X119360198Y-110318300D01*
X119491523Y-110130749D01*
X119588284Y-109923243D01*
X119647543Y-109702087D01*
X119667498Y-109474000D01*
X119647543Y-109245913D01*
X119588284Y-109024757D01*
X119491523Y-108817251D01*
X119360198Y-108629700D01*
X119198300Y-108467802D01*
X119010749Y-108336477D01*
X119010745Y-108336475D01*
X118803249Y-108239718D01*
X118803238Y-108239714D01*
X118582089Y-108180457D01*
X118582081Y-108180456D01*
X118354002Y-108160502D01*
X118353998Y-108160502D01*
X118125918Y-108180456D01*
X118125910Y-108180457D01*
X118010900Y-108211275D01*
X117978806Y-108215500D01*
X114940569Y-108215500D01*
X114873530Y-108195815D01*
X114852888Y-108179181D01*
X114125517Y-107451810D01*
X114092032Y-107390487D01*
X114097016Y-107320795D01*
X114138888Y-107264862D01*
X114204352Y-107240445D01*
X114233601Y-107241819D01*
X114441431Y-107276500D01*
X114441432Y-107276500D01*
X114666569Y-107276500D01*
X114888635Y-107239444D01*
X115101574Y-107166342D01*
X115299576Y-107059189D01*
X115477240Y-106920906D01*
X115576614Y-106812957D01*
X115629715Y-106755276D01*
X115629715Y-106755275D01*
X115629722Y-106755268D01*
X115723749Y-106611347D01*
X115776894Y-106565994D01*
X115846125Y-106556570D01*
X115909461Y-106586072D01*
X115929130Y-106608048D01*
X116055890Y-106789078D01*
X116222917Y-106956105D01*
X116416421Y-107091600D01*
X116630507Y-107191429D01*
X116630516Y-107191433D01*
X116844000Y-107248634D01*
X116844000Y-106353501D01*
X116951685Y-106402680D01*
X117058237Y-106418000D01*
X117129763Y-106418000D01*
X117236315Y-106402680D01*
X117344000Y-106353501D01*
X117344000Y-107248633D01*
X117557483Y-107191433D01*
X117557492Y-107191429D01*
X117771578Y-107091600D01*
X117965082Y-106956105D01*
X118132105Y-106789082D01*
X118267600Y-106595578D01*
X118367429Y-106381492D01*
X118367432Y-106381486D01*
X118424636Y-106168000D01*
X117527686Y-106168000D01*
X117553493Y-106127844D01*
X117594000Y-105989889D01*
X117594000Y-105846111D01*
X117553493Y-105708156D01*
X117527686Y-105668000D01*
X118424636Y-105668000D01*
X118424635Y-105667999D01*
X118367432Y-105454513D01*
X118367429Y-105454507D01*
X118267600Y-105240422D01*
X118267599Y-105240420D01*
X118132113Y-105046926D01*
X118132108Y-105046920D01*
X117965082Y-104879894D01*
X117771578Y-104744399D01*
X117716855Y-104718882D01*
X117664416Y-104672710D01*
X117645264Y-104605516D01*
X117665480Y-104538635D01*
X117718645Y-104493300D01*
X117769260Y-104482500D01*
X117992638Y-104482500D01*
X117992654Y-104482499D01*
X118019692Y-104479591D01*
X118053201Y-104475989D01*
X118190204Y-104424889D01*
X118307261Y-104337261D01*
X118394889Y-104220204D01*
X118445989Y-104083201D01*
X118449591Y-104049692D01*
X118452499Y-104022654D01*
X118452500Y-104022637D01*
X118452500Y-102616001D01*
X121460502Y-102616001D01*
X121480456Y-102844081D01*
X121480457Y-102844089D01*
X121539714Y-103065238D01*
X121539718Y-103065249D01*
X121625869Y-103250000D01*
X121636477Y-103272749D01*
X121767802Y-103460300D01*
X121929700Y-103622198D01*
X122117251Y-103753523D01*
X122205670Y-103794753D01*
X122324750Y-103850281D01*
X122324752Y-103850281D01*
X122324757Y-103850284D01*
X122545913Y-103909543D01*
X122708832Y-103923796D01*
X122773998Y-103929498D01*
X122774000Y-103929498D01*
X122774002Y-103929498D01*
X122831021Y-103924509D01*
X123002087Y-103909543D01*
X123223243Y-103850284D01*
X123430749Y-103753523D01*
X123618300Y-103622198D01*
X123780198Y-103460300D01*
X123911523Y-103272749D01*
X124008284Y-103065243D01*
X124067543Y-102844087D01*
X124087498Y-102616000D01*
X124067543Y-102387913D01*
X124008284Y-102166757D01*
X123911523Y-101959251D01*
X123780198Y-101771700D01*
X123618300Y-101609802D01*
X123430749Y-101478477D01*
X123430745Y-101478475D01*
X123223249Y-101381718D01*
X123223238Y-101381714D01*
X123002089Y-101322457D01*
X123002081Y-101322456D01*
X122774002Y-101302502D01*
X122773998Y-101302502D01*
X122545918Y-101322456D01*
X122545910Y-101322457D01*
X122324761Y-101381714D01*
X122324750Y-101381718D01*
X122117254Y-101478475D01*
X122117252Y-101478476D01*
X122117251Y-101478477D01*
X121929700Y-101609802D01*
X121929698Y-101609803D01*
X121929695Y-101609806D01*
X121767806Y-101771695D01*
X121767803Y-101771698D01*
X121767802Y-101771700D01*
X121695011Y-101875656D01*
X121636476Y-101959252D01*
X121636475Y-101959254D01*
X121539718Y-102166750D01*
X121539714Y-102166761D01*
X121480457Y-102387910D01*
X121480456Y-102387918D01*
X121460502Y-102615998D01*
X121460502Y-102616001D01*
X118452500Y-102616001D01*
X118452500Y-102225362D01*
X118452499Y-102225345D01*
X118448672Y-102189759D01*
X118445989Y-102164799D01*
X118394889Y-102027796D01*
X118307261Y-101910739D01*
X118190204Y-101823111D01*
X118053203Y-101772011D01*
X117992654Y-101765500D01*
X117992638Y-101765500D01*
X116195362Y-101765500D01*
X116195345Y-101765500D01*
X116134797Y-101772011D01*
X116134795Y-101772011D01*
X115997795Y-101823111D01*
X115880739Y-101910739D01*
X115793111Y-102027795D01*
X115747861Y-102149111D01*
X115705989Y-102205044D01*
X115640524Y-102229460D01*
X115572252Y-102214607D01*
X115540454Y-102189762D01*
X115477240Y-102121094D01*
X115299576Y-101982811D01*
X115299575Y-101982810D01*
X115299572Y-101982808D01*
X115101580Y-101875661D01*
X115101577Y-101875659D01*
X115101574Y-101875658D01*
X115101571Y-101875657D01*
X115101569Y-101875656D01*
X114888637Y-101802556D01*
X114666569Y-101765500D01*
X114441431Y-101765500D01*
X114219362Y-101802556D01*
X114006430Y-101875656D01*
X114006419Y-101875661D01*
X113808427Y-101982808D01*
X113808422Y-101982812D01*
X113630761Y-102121092D01*
X113630756Y-102121097D01*
X113478284Y-102286723D01*
X113478276Y-102286734D01*
X113387808Y-102425206D01*
X113334662Y-102470562D01*
X113265431Y-102479986D01*
X113202095Y-102450484D01*
X113180192Y-102425206D01*
X113089723Y-102286734D01*
X113089715Y-102286723D01*
X112937243Y-102121097D01*
X112937238Y-102121092D01*
X112759577Y-101982812D01*
X112759572Y-101982808D01*
X112561580Y-101875661D01*
X112561577Y-101875659D01*
X112561574Y-101875658D01*
X112561571Y-101875657D01*
X112561569Y-101875656D01*
X112348637Y-101802556D01*
X112126569Y-101765500D01*
X111901431Y-101765500D01*
X111679362Y-101802556D01*
X111466430Y-101875656D01*
X111466419Y-101875661D01*
X111268427Y-101982808D01*
X111268422Y-101982812D01*
X111090761Y-102121092D01*
X111090756Y-102121097D01*
X110938284Y-102286723D01*
X110938276Y-102286734D01*
X110844251Y-102430650D01*
X110791105Y-102476007D01*
X110721873Y-102485430D01*
X110658538Y-102455928D01*
X110638868Y-102433951D01*
X110512113Y-102252926D01*
X110512108Y-102252920D01*
X110345082Y-102085894D01*
X110151578Y-101950399D01*
X109937492Y-101850570D01*
X109937486Y-101850567D01*
X109724000Y-101793364D01*
X109724000Y-102688498D01*
X109616315Y-102639320D01*
X109509763Y-102624000D01*
X109438237Y-102624000D01*
X109331685Y-102639320D01*
X109224000Y-102688498D01*
X109224000Y-101793364D01*
X109223999Y-101793364D01*
X109010513Y-101850567D01*
X109010507Y-101850570D01*
X108796422Y-101950399D01*
X108796420Y-101950400D01*
X108602926Y-102085886D01*
X108602920Y-102085891D01*
X108435891Y-102252920D01*
X108435886Y-102252926D01*
X108300400Y-102446420D01*
X108300399Y-102446422D01*
X108200570Y-102660507D01*
X108200567Y-102660513D01*
X108143364Y-102873999D01*
X108143364Y-102874000D01*
X109040314Y-102874000D01*
X109014507Y-102914156D01*
X108974000Y-103052111D01*
X108974000Y-103195889D01*
X109014507Y-103333844D01*
X109040314Y-103374000D01*
X108143364Y-103374000D01*
X108200567Y-103587486D01*
X108200570Y-103587492D01*
X108300399Y-103801578D01*
X108435894Y-103995082D01*
X108602917Y-104162105D01*
X108796421Y-104297600D01*
X108851145Y-104323118D01*
X108903584Y-104369290D01*
X108922736Y-104436484D01*
X108902520Y-104503365D01*
X108849355Y-104548700D01*
X108798740Y-104559500D01*
X108575345Y-104559500D01*
X108514797Y-104566011D01*
X108514795Y-104566011D01*
X108377793Y-104617111D01*
X108377792Y-104617112D01*
X108354211Y-104634766D01*
X108288747Y-104659184D01*
X108279900Y-104659500D01*
X107648650Y-104659500D01*
X107581611Y-104639815D01*
X107560969Y-104623181D01*
X104939638Y-102001850D01*
X104914937Y-101966573D01*
X104911523Y-101959251D01*
X104780198Y-101771700D01*
X104618300Y-101609802D01*
X104430749Y-101478477D01*
X104430745Y-101478475D01*
X104223249Y-101381718D01*
X104223238Y-101381714D01*
X104002089Y-101322457D01*
X104002081Y-101322456D01*
X103774002Y-101302502D01*
X103773998Y-101302502D01*
X103545918Y-101322456D01*
X103545910Y-101322457D01*
X103324761Y-101381714D01*
X103324750Y-101381718D01*
X103117254Y-101478475D01*
X103117252Y-101478476D01*
X103117251Y-101478477D01*
X102929700Y-101609802D01*
X102929698Y-101609803D01*
X102929695Y-101609806D01*
X102767806Y-101771695D01*
X102767803Y-101771698D01*
X102767802Y-101771700D01*
X102695011Y-101875656D01*
X102636476Y-101959252D01*
X102636475Y-101959254D01*
X102539718Y-102166750D01*
X102539714Y-102166761D01*
X102480457Y-102387910D01*
X102480456Y-102387918D01*
X102460502Y-102615998D01*
X102460502Y-102616001D01*
X99939539Y-102616001D01*
X99939539Y-100289539D01*
X99959224Y-100222500D01*
X100012028Y-100176745D01*
X100063539Y-100165539D01*
X126484461Y-100165539D01*
X126551500Y-100185224D01*
G37*
G04 #@! TD.AperFunction*
M02*
