%TF.GenerationSoftware,KiCad,Pcbnew,7.0.10*%
%TF.CreationDate,2024-07-28T21:48:20+02:00*%
%TF.ProjectId,Traffic LED Board,54726166-6669-4632-904c-454420426f61,rev?*%
%TF.SameCoordinates,Original*%
%TF.FileFunction,Drillmap*%
%TF.FilePolarity,Positive*%
%FSLAX45Y45*%
G04 Gerber Fmt 4.5, Leading zero omitted, Abs format (unit mm)*
G04 Created by KiCad (PCBNEW 7.0.10) date 2024-07-28 21:48:20*
%MOMM*%
%LPD*%
G01*
G04 APERTURE LIST*
%ADD10C,0.050000*%
%ADD11C,0.200000*%
%ADD12C,0.100000*%
%ADD13C,0.250000*%
G04 APERTURE END LIST*
D10*
X9977400Y-10000000D02*
X12677400Y-10000000D01*
X12677400Y-12500000D01*
X9977400Y-12500000D01*
X9977400Y-10000000D01*
D11*
D12*
X10337400Y-10221600D02*
X10417400Y-10301600D01*
X10417400Y-10221600D02*
X10337400Y-10301600D01*
X10337400Y-11237600D02*
X10417400Y-11317600D01*
X10417400Y-11237600D02*
X10337400Y-11317600D01*
X10779400Y-10907400D02*
X10859400Y-10987400D01*
X10859400Y-10907400D02*
X10779400Y-10987400D01*
X11795400Y-10907400D02*
X11875400Y-10987400D01*
X11875400Y-10907400D02*
X11795400Y-10987400D01*
X12237400Y-10221600D02*
X12317400Y-10301600D01*
X12317400Y-10221600D02*
X12237400Y-10301600D01*
X12237400Y-11237600D02*
X12317400Y-11317600D01*
X12317400Y-11237600D02*
X12237400Y-11317600D01*
X10997400Y-10312400D02*
G75*
G03*
X10897400Y-10312400I-50000J0D01*
G01*
X10897400Y-10312400D02*
G75*
G03*
X10997400Y-10312400I50000J0D01*
G01*
X10997400Y-10591800D02*
G75*
G03*
X10897400Y-10591800I-50000J0D01*
G01*
X10897400Y-10591800D02*
G75*
G03*
X10997400Y-10591800I50000J0D01*
G01*
X11251400Y-10312400D02*
G75*
G03*
X11151400Y-10312400I-50000J0D01*
G01*
X11151400Y-10312400D02*
G75*
G03*
X11251400Y-10312400I50000J0D01*
G01*
X11251400Y-10591800D02*
G75*
G03*
X11151400Y-10591800I-50000J0D01*
G01*
X11151400Y-10591800D02*
G75*
G03*
X11251400Y-10591800I50000J0D01*
G01*
X11505400Y-10312400D02*
G75*
G03*
X11405400Y-10312400I-50000J0D01*
G01*
X11405400Y-10312400D02*
G75*
G03*
X11505400Y-10312400I50000J0D01*
G01*
X11505400Y-10591800D02*
G75*
G03*
X11405400Y-10591800I-50000J0D01*
G01*
X11405400Y-10591800D02*
G75*
G03*
X11505400Y-10591800I50000J0D01*
G01*
X11759400Y-10312400D02*
G75*
G03*
X11659400Y-10312400I-50000J0D01*
G01*
X11659400Y-10312400D02*
G75*
G03*
X11759400Y-10312400I50000J0D01*
G01*
X11759400Y-10591800D02*
G75*
G03*
X11659400Y-10591800I-50000J0D01*
G01*
X11659400Y-10591800D02*
G75*
G03*
X11759400Y-10591800I50000J0D01*
G01*
D13*
X10328393Y-11881436D02*
X10328393Y-12131436D01*
X10203393Y-12006436D02*
X10453393Y-12006436D01*
X10995060Y-11881436D02*
X10995060Y-12131436D01*
X10870060Y-12006436D02*
X11120060Y-12006436D01*
X11661726Y-11881436D02*
X11661726Y-12131436D01*
X11536726Y-12006436D02*
X11786726Y-12006436D01*
X12328393Y-11881436D02*
X12328393Y-12131436D01*
X12203393Y-12006436D02*
X12453393Y-12006436D01*
D11*
X10235677Y-12813984D02*
X10235677Y-12613984D01*
X10235677Y-12613984D02*
X10283296Y-12613984D01*
X10283296Y-12613984D02*
X10311867Y-12623508D01*
X10311867Y-12623508D02*
X10330915Y-12642555D01*
X10330915Y-12642555D02*
X10340439Y-12661603D01*
X10340439Y-12661603D02*
X10349963Y-12699698D01*
X10349963Y-12699698D02*
X10349963Y-12728269D01*
X10349963Y-12728269D02*
X10340439Y-12766365D01*
X10340439Y-12766365D02*
X10330915Y-12785412D01*
X10330915Y-12785412D02*
X10311867Y-12804460D01*
X10311867Y-12804460D02*
X10283296Y-12813984D01*
X10283296Y-12813984D02*
X10235677Y-12813984D01*
X10435677Y-12813984D02*
X10435677Y-12680650D01*
X10435677Y-12718746D02*
X10445201Y-12699698D01*
X10445201Y-12699698D02*
X10454724Y-12690174D01*
X10454724Y-12690174D02*
X10473772Y-12680650D01*
X10473772Y-12680650D02*
X10492820Y-12680650D01*
X10559486Y-12813984D02*
X10559486Y-12680650D01*
X10559486Y-12613984D02*
X10549963Y-12623508D01*
X10549963Y-12623508D02*
X10559486Y-12633031D01*
X10559486Y-12633031D02*
X10569010Y-12623508D01*
X10569010Y-12623508D02*
X10559486Y-12613984D01*
X10559486Y-12613984D02*
X10559486Y-12633031D01*
X10683296Y-12813984D02*
X10664248Y-12804460D01*
X10664248Y-12804460D02*
X10654724Y-12785412D01*
X10654724Y-12785412D02*
X10654724Y-12613984D01*
X10788058Y-12813984D02*
X10769010Y-12804460D01*
X10769010Y-12804460D02*
X10759486Y-12785412D01*
X10759486Y-12785412D02*
X10759486Y-12613984D01*
X11016629Y-12813984D02*
X11016629Y-12613984D01*
X11016629Y-12613984D02*
X11083296Y-12756841D01*
X11083296Y-12756841D02*
X11149963Y-12613984D01*
X11149963Y-12613984D02*
X11149963Y-12813984D01*
X11330915Y-12813984D02*
X11330915Y-12709222D01*
X11330915Y-12709222D02*
X11321391Y-12690174D01*
X11321391Y-12690174D02*
X11302343Y-12680650D01*
X11302343Y-12680650D02*
X11264248Y-12680650D01*
X11264248Y-12680650D02*
X11245201Y-12690174D01*
X11330915Y-12804460D02*
X11311867Y-12813984D01*
X11311867Y-12813984D02*
X11264248Y-12813984D01*
X11264248Y-12813984D02*
X11245201Y-12804460D01*
X11245201Y-12804460D02*
X11235677Y-12785412D01*
X11235677Y-12785412D02*
X11235677Y-12766365D01*
X11235677Y-12766365D02*
X11245201Y-12747317D01*
X11245201Y-12747317D02*
X11264248Y-12737793D01*
X11264248Y-12737793D02*
X11311867Y-12737793D01*
X11311867Y-12737793D02*
X11330915Y-12728269D01*
X11426153Y-12680650D02*
X11426153Y-12880650D01*
X11426153Y-12690174D02*
X11445201Y-12680650D01*
X11445201Y-12680650D02*
X11483296Y-12680650D01*
X11483296Y-12680650D02*
X11502343Y-12690174D01*
X11502343Y-12690174D02*
X11511867Y-12699698D01*
X11511867Y-12699698D02*
X11521391Y-12718746D01*
X11521391Y-12718746D02*
X11521391Y-12775888D01*
X11521391Y-12775888D02*
X11511867Y-12794936D01*
X11511867Y-12794936D02*
X11502343Y-12804460D01*
X11502343Y-12804460D02*
X11483296Y-12813984D01*
X11483296Y-12813984D02*
X11445201Y-12813984D01*
X11445201Y-12813984D02*
X11426153Y-12804460D01*
X11607105Y-12794936D02*
X11616629Y-12804460D01*
X11616629Y-12804460D02*
X11607105Y-12813984D01*
X11607105Y-12813984D02*
X11597582Y-12804460D01*
X11597582Y-12804460D02*
X11607105Y-12794936D01*
X11607105Y-12794936D02*
X11607105Y-12813984D01*
X11607105Y-12690174D02*
X11616629Y-12699698D01*
X11616629Y-12699698D02*
X11607105Y-12709222D01*
X11607105Y-12709222D02*
X11597582Y-12699698D01*
X11597582Y-12699698D02*
X11607105Y-12690174D01*
X11607105Y-12690174D02*
X11607105Y-12709222D01*
D12*
X9894900Y-13102500D02*
X9974900Y-13182500D01*
X9974900Y-13102500D02*
X9894900Y-13182500D01*
D11*
X10273772Y-13033984D02*
X10292820Y-13033984D01*
X10292820Y-13033984D02*
X10311867Y-13043508D01*
X10311867Y-13043508D02*
X10321391Y-13053031D01*
X10321391Y-13053031D02*
X10330915Y-13072079D01*
X10330915Y-13072079D02*
X10340439Y-13110174D01*
X10340439Y-13110174D02*
X10340439Y-13157793D01*
X10340439Y-13157793D02*
X10330915Y-13195888D01*
X10330915Y-13195888D02*
X10321391Y-13214936D01*
X10321391Y-13214936D02*
X10311867Y-13224460D01*
X10311867Y-13224460D02*
X10292820Y-13233984D01*
X10292820Y-13233984D02*
X10273772Y-13233984D01*
X10273772Y-13233984D02*
X10254724Y-13224460D01*
X10254724Y-13224460D02*
X10245201Y-13214936D01*
X10245201Y-13214936D02*
X10235677Y-13195888D01*
X10235677Y-13195888D02*
X10226153Y-13157793D01*
X10226153Y-13157793D02*
X10226153Y-13110174D01*
X10226153Y-13110174D02*
X10235677Y-13072079D01*
X10235677Y-13072079D02*
X10245201Y-13053031D01*
X10245201Y-13053031D02*
X10254724Y-13043508D01*
X10254724Y-13043508D02*
X10273772Y-13033984D01*
X10426153Y-13214936D02*
X10435677Y-13224460D01*
X10435677Y-13224460D02*
X10426153Y-13233984D01*
X10426153Y-13233984D02*
X10416629Y-13224460D01*
X10416629Y-13224460D02*
X10426153Y-13214936D01*
X10426153Y-13214936D02*
X10426153Y-13233984D01*
X10549963Y-13119698D02*
X10530915Y-13110174D01*
X10530915Y-13110174D02*
X10521391Y-13100650D01*
X10521391Y-13100650D02*
X10511867Y-13081603D01*
X10511867Y-13081603D02*
X10511867Y-13072079D01*
X10511867Y-13072079D02*
X10521391Y-13053031D01*
X10521391Y-13053031D02*
X10530915Y-13043508D01*
X10530915Y-13043508D02*
X10549963Y-13033984D01*
X10549963Y-13033984D02*
X10588058Y-13033984D01*
X10588058Y-13033984D02*
X10607105Y-13043508D01*
X10607105Y-13043508D02*
X10616629Y-13053031D01*
X10616629Y-13053031D02*
X10626153Y-13072079D01*
X10626153Y-13072079D02*
X10626153Y-13081603D01*
X10626153Y-13081603D02*
X10616629Y-13100650D01*
X10616629Y-13100650D02*
X10607105Y-13110174D01*
X10607105Y-13110174D02*
X10588058Y-13119698D01*
X10588058Y-13119698D02*
X10549963Y-13119698D01*
X10549963Y-13119698D02*
X10530915Y-13129222D01*
X10530915Y-13129222D02*
X10521391Y-13138746D01*
X10521391Y-13138746D02*
X10511867Y-13157793D01*
X10511867Y-13157793D02*
X10511867Y-13195888D01*
X10511867Y-13195888D02*
X10521391Y-13214936D01*
X10521391Y-13214936D02*
X10530915Y-13224460D01*
X10530915Y-13224460D02*
X10549963Y-13233984D01*
X10549963Y-13233984D02*
X10588058Y-13233984D01*
X10588058Y-13233984D02*
X10607105Y-13224460D01*
X10607105Y-13224460D02*
X10616629Y-13214936D01*
X10616629Y-13214936D02*
X10626153Y-13195888D01*
X10626153Y-13195888D02*
X10626153Y-13157793D01*
X10626153Y-13157793D02*
X10616629Y-13138746D01*
X10616629Y-13138746D02*
X10607105Y-13129222D01*
X10607105Y-13129222D02*
X10588058Y-13119698D01*
X10749963Y-13033984D02*
X10769010Y-13033984D01*
X10769010Y-13033984D02*
X10788058Y-13043508D01*
X10788058Y-13043508D02*
X10797582Y-13053031D01*
X10797582Y-13053031D02*
X10807105Y-13072079D01*
X10807105Y-13072079D02*
X10816629Y-13110174D01*
X10816629Y-13110174D02*
X10816629Y-13157793D01*
X10816629Y-13157793D02*
X10807105Y-13195888D01*
X10807105Y-13195888D02*
X10797582Y-13214936D01*
X10797582Y-13214936D02*
X10788058Y-13224460D01*
X10788058Y-13224460D02*
X10769010Y-13233984D01*
X10769010Y-13233984D02*
X10749963Y-13233984D01*
X10749963Y-13233984D02*
X10730915Y-13224460D01*
X10730915Y-13224460D02*
X10721391Y-13214936D01*
X10721391Y-13214936D02*
X10711867Y-13195888D01*
X10711867Y-13195888D02*
X10702344Y-13157793D01*
X10702344Y-13157793D02*
X10702344Y-13110174D01*
X10702344Y-13110174D02*
X10711867Y-13072079D01*
X10711867Y-13072079D02*
X10721391Y-13053031D01*
X10721391Y-13053031D02*
X10730915Y-13043508D01*
X10730915Y-13043508D02*
X10749963Y-13033984D01*
X10940439Y-13033984D02*
X10959486Y-13033984D01*
X10959486Y-13033984D02*
X10978534Y-13043508D01*
X10978534Y-13043508D02*
X10988058Y-13053031D01*
X10988058Y-13053031D02*
X10997582Y-13072079D01*
X10997582Y-13072079D02*
X11007105Y-13110174D01*
X11007105Y-13110174D02*
X11007105Y-13157793D01*
X11007105Y-13157793D02*
X10997582Y-13195888D01*
X10997582Y-13195888D02*
X10988058Y-13214936D01*
X10988058Y-13214936D02*
X10978534Y-13224460D01*
X10978534Y-13224460D02*
X10959486Y-13233984D01*
X10959486Y-13233984D02*
X10940439Y-13233984D01*
X10940439Y-13233984D02*
X10921391Y-13224460D01*
X10921391Y-13224460D02*
X10911867Y-13214936D01*
X10911867Y-13214936D02*
X10902344Y-13195888D01*
X10902344Y-13195888D02*
X10892820Y-13157793D01*
X10892820Y-13157793D02*
X10892820Y-13110174D01*
X10892820Y-13110174D02*
X10902344Y-13072079D01*
X10902344Y-13072079D02*
X10911867Y-13053031D01*
X10911867Y-13053031D02*
X10921391Y-13043508D01*
X10921391Y-13043508D02*
X10940439Y-13033984D01*
X11092820Y-13233984D02*
X11092820Y-13100650D01*
X11092820Y-13119698D02*
X11102344Y-13110174D01*
X11102344Y-13110174D02*
X11121391Y-13100650D01*
X11121391Y-13100650D02*
X11149963Y-13100650D01*
X11149963Y-13100650D02*
X11169010Y-13110174D01*
X11169010Y-13110174D02*
X11178534Y-13129222D01*
X11178534Y-13129222D02*
X11178534Y-13233984D01*
X11178534Y-13129222D02*
X11188058Y-13110174D01*
X11188058Y-13110174D02*
X11207105Y-13100650D01*
X11207105Y-13100650D02*
X11235677Y-13100650D01*
X11235677Y-13100650D02*
X11254724Y-13110174D01*
X11254724Y-13110174D02*
X11264248Y-13129222D01*
X11264248Y-13129222D02*
X11264248Y-13233984D01*
X11359486Y-13233984D02*
X11359486Y-13100650D01*
X11359486Y-13119698D02*
X11369010Y-13110174D01*
X11369010Y-13110174D02*
X11388058Y-13100650D01*
X11388058Y-13100650D02*
X11416629Y-13100650D01*
X11416629Y-13100650D02*
X11435677Y-13110174D01*
X11435677Y-13110174D02*
X11445201Y-13129222D01*
X11445201Y-13129222D02*
X11445201Y-13233984D01*
X11445201Y-13129222D02*
X11454724Y-13110174D01*
X11454724Y-13110174D02*
X11473772Y-13100650D01*
X11473772Y-13100650D02*
X11502343Y-13100650D01*
X11502343Y-13100650D02*
X11521391Y-13110174D01*
X11521391Y-13110174D02*
X11530915Y-13129222D01*
X11530915Y-13129222D02*
X11530915Y-13233984D01*
X11921391Y-13024460D02*
X11749963Y-13281603D01*
X12178534Y-13033984D02*
X12197582Y-13033984D01*
X12197582Y-13033984D02*
X12216629Y-13043508D01*
X12216629Y-13043508D02*
X12226153Y-13053031D01*
X12226153Y-13053031D02*
X12235677Y-13072079D01*
X12235677Y-13072079D02*
X12245201Y-13110174D01*
X12245201Y-13110174D02*
X12245201Y-13157793D01*
X12245201Y-13157793D02*
X12235677Y-13195888D01*
X12235677Y-13195888D02*
X12226153Y-13214936D01*
X12226153Y-13214936D02*
X12216629Y-13224460D01*
X12216629Y-13224460D02*
X12197582Y-13233984D01*
X12197582Y-13233984D02*
X12178534Y-13233984D01*
X12178534Y-13233984D02*
X12159486Y-13224460D01*
X12159486Y-13224460D02*
X12149963Y-13214936D01*
X12149963Y-13214936D02*
X12140439Y-13195888D01*
X12140439Y-13195888D02*
X12130915Y-13157793D01*
X12130915Y-13157793D02*
X12130915Y-13110174D01*
X12130915Y-13110174D02*
X12140439Y-13072079D01*
X12140439Y-13072079D02*
X12149963Y-13053031D01*
X12149963Y-13053031D02*
X12159486Y-13043508D01*
X12159486Y-13043508D02*
X12178534Y-13033984D01*
X12330915Y-13214936D02*
X12340439Y-13224460D01*
X12340439Y-13224460D02*
X12330915Y-13233984D01*
X12330915Y-13233984D02*
X12321391Y-13224460D01*
X12321391Y-13224460D02*
X12330915Y-13214936D01*
X12330915Y-13214936D02*
X12330915Y-13233984D01*
X12464248Y-13033984D02*
X12483296Y-13033984D01*
X12483296Y-13033984D02*
X12502344Y-13043508D01*
X12502344Y-13043508D02*
X12511867Y-13053031D01*
X12511867Y-13053031D02*
X12521391Y-13072079D01*
X12521391Y-13072079D02*
X12530915Y-13110174D01*
X12530915Y-13110174D02*
X12530915Y-13157793D01*
X12530915Y-13157793D02*
X12521391Y-13195888D01*
X12521391Y-13195888D02*
X12511867Y-13214936D01*
X12511867Y-13214936D02*
X12502344Y-13224460D01*
X12502344Y-13224460D02*
X12483296Y-13233984D01*
X12483296Y-13233984D02*
X12464248Y-13233984D01*
X12464248Y-13233984D02*
X12445201Y-13224460D01*
X12445201Y-13224460D02*
X12435677Y-13214936D01*
X12435677Y-13214936D02*
X12426153Y-13195888D01*
X12426153Y-13195888D02*
X12416629Y-13157793D01*
X12416629Y-13157793D02*
X12416629Y-13110174D01*
X12416629Y-13110174D02*
X12426153Y-13072079D01*
X12426153Y-13072079D02*
X12435677Y-13053031D01*
X12435677Y-13053031D02*
X12445201Y-13043508D01*
X12445201Y-13043508D02*
X12464248Y-13033984D01*
X12597582Y-13033984D02*
X12721391Y-13033984D01*
X12721391Y-13033984D02*
X12654725Y-13110174D01*
X12654725Y-13110174D02*
X12683296Y-13110174D01*
X12683296Y-13110174D02*
X12702344Y-13119698D01*
X12702344Y-13119698D02*
X12711867Y-13129222D01*
X12711867Y-13129222D02*
X12721391Y-13148269D01*
X12721391Y-13148269D02*
X12721391Y-13195888D01*
X12721391Y-13195888D02*
X12711867Y-13214936D01*
X12711867Y-13214936D02*
X12702344Y-13224460D01*
X12702344Y-13224460D02*
X12683296Y-13233984D01*
X12683296Y-13233984D02*
X12626153Y-13233984D01*
X12626153Y-13233984D02*
X12607106Y-13224460D01*
X12607106Y-13224460D02*
X12597582Y-13214936D01*
X12911867Y-13233984D02*
X12797582Y-13233984D01*
X12854725Y-13233984D02*
X12854725Y-13033984D01*
X12854725Y-13033984D02*
X12835677Y-13062555D01*
X12835677Y-13062555D02*
X12816629Y-13081603D01*
X12816629Y-13081603D02*
X12797582Y-13091127D01*
X13092820Y-13033984D02*
X12997582Y-13033984D01*
X12997582Y-13033984D02*
X12988058Y-13129222D01*
X12988058Y-13129222D02*
X12997582Y-13119698D01*
X12997582Y-13119698D02*
X13016629Y-13110174D01*
X13016629Y-13110174D02*
X13064248Y-13110174D01*
X13064248Y-13110174D02*
X13083296Y-13119698D01*
X13083296Y-13119698D02*
X13092820Y-13129222D01*
X13092820Y-13129222D02*
X13102344Y-13148269D01*
X13102344Y-13148269D02*
X13102344Y-13195888D01*
X13102344Y-13195888D02*
X13092820Y-13214936D01*
X13092820Y-13214936D02*
X13083296Y-13224460D01*
X13083296Y-13224460D02*
X13064248Y-13233984D01*
X13064248Y-13233984D02*
X13016629Y-13233984D01*
X13016629Y-13233984D02*
X12997582Y-13224460D01*
X12997582Y-13224460D02*
X12988058Y-13214936D01*
X13178534Y-13033984D02*
X13178534Y-13072079D01*
X13254725Y-13033984D02*
X13254725Y-13072079D01*
X13549963Y-13310174D02*
X13540439Y-13300650D01*
X13540439Y-13300650D02*
X13521391Y-13272079D01*
X13521391Y-13272079D02*
X13511868Y-13253031D01*
X13511868Y-13253031D02*
X13502344Y-13224460D01*
X13502344Y-13224460D02*
X13492820Y-13176841D01*
X13492820Y-13176841D02*
X13492820Y-13138746D01*
X13492820Y-13138746D02*
X13502344Y-13091127D01*
X13502344Y-13091127D02*
X13511868Y-13062555D01*
X13511868Y-13062555D02*
X13521391Y-13043508D01*
X13521391Y-13043508D02*
X13540439Y-13014936D01*
X13540439Y-13014936D02*
X13549963Y-13005412D01*
X13711868Y-13033984D02*
X13673772Y-13033984D01*
X13673772Y-13033984D02*
X13654725Y-13043508D01*
X13654725Y-13043508D02*
X13645201Y-13053031D01*
X13645201Y-13053031D02*
X13626153Y-13081603D01*
X13626153Y-13081603D02*
X13616629Y-13119698D01*
X13616629Y-13119698D02*
X13616629Y-13195888D01*
X13616629Y-13195888D02*
X13626153Y-13214936D01*
X13626153Y-13214936D02*
X13635677Y-13224460D01*
X13635677Y-13224460D02*
X13654725Y-13233984D01*
X13654725Y-13233984D02*
X13692820Y-13233984D01*
X13692820Y-13233984D02*
X13711868Y-13224460D01*
X13711868Y-13224460D02*
X13721391Y-13214936D01*
X13721391Y-13214936D02*
X13730915Y-13195888D01*
X13730915Y-13195888D02*
X13730915Y-13148269D01*
X13730915Y-13148269D02*
X13721391Y-13129222D01*
X13721391Y-13129222D02*
X13711868Y-13119698D01*
X13711868Y-13119698D02*
X13692820Y-13110174D01*
X13692820Y-13110174D02*
X13654725Y-13110174D01*
X13654725Y-13110174D02*
X13635677Y-13119698D01*
X13635677Y-13119698D02*
X13626153Y-13129222D01*
X13626153Y-13129222D02*
X13616629Y-13148269D01*
X13969010Y-13233984D02*
X13969010Y-13033984D01*
X14054725Y-13233984D02*
X14054725Y-13129222D01*
X14054725Y-13129222D02*
X14045201Y-13110174D01*
X14045201Y-13110174D02*
X14026153Y-13100650D01*
X14026153Y-13100650D02*
X13997582Y-13100650D01*
X13997582Y-13100650D02*
X13978534Y-13110174D01*
X13978534Y-13110174D02*
X13969010Y-13119698D01*
X14178534Y-13233984D02*
X14159487Y-13224460D01*
X14159487Y-13224460D02*
X14149963Y-13214936D01*
X14149963Y-13214936D02*
X14140439Y-13195888D01*
X14140439Y-13195888D02*
X14140439Y-13138746D01*
X14140439Y-13138746D02*
X14149963Y-13119698D01*
X14149963Y-13119698D02*
X14159487Y-13110174D01*
X14159487Y-13110174D02*
X14178534Y-13100650D01*
X14178534Y-13100650D02*
X14207106Y-13100650D01*
X14207106Y-13100650D02*
X14226153Y-13110174D01*
X14226153Y-13110174D02*
X14235677Y-13119698D01*
X14235677Y-13119698D02*
X14245201Y-13138746D01*
X14245201Y-13138746D02*
X14245201Y-13195888D01*
X14245201Y-13195888D02*
X14235677Y-13214936D01*
X14235677Y-13214936D02*
X14226153Y-13224460D01*
X14226153Y-13224460D02*
X14207106Y-13233984D01*
X14207106Y-13233984D02*
X14178534Y-13233984D01*
X14359487Y-13233984D02*
X14340439Y-13224460D01*
X14340439Y-13224460D02*
X14330915Y-13205412D01*
X14330915Y-13205412D02*
X14330915Y-13033984D01*
X14511868Y-13224460D02*
X14492820Y-13233984D01*
X14492820Y-13233984D02*
X14454725Y-13233984D01*
X14454725Y-13233984D02*
X14435677Y-13224460D01*
X14435677Y-13224460D02*
X14426153Y-13205412D01*
X14426153Y-13205412D02*
X14426153Y-13129222D01*
X14426153Y-13129222D02*
X14435677Y-13110174D01*
X14435677Y-13110174D02*
X14454725Y-13100650D01*
X14454725Y-13100650D02*
X14492820Y-13100650D01*
X14492820Y-13100650D02*
X14511868Y-13110174D01*
X14511868Y-13110174D02*
X14521391Y-13129222D01*
X14521391Y-13129222D02*
X14521391Y-13148269D01*
X14521391Y-13148269D02*
X14426153Y-13167317D01*
X14597582Y-13224460D02*
X14616630Y-13233984D01*
X14616630Y-13233984D02*
X14654725Y-13233984D01*
X14654725Y-13233984D02*
X14673772Y-13224460D01*
X14673772Y-13224460D02*
X14683296Y-13205412D01*
X14683296Y-13205412D02*
X14683296Y-13195888D01*
X14683296Y-13195888D02*
X14673772Y-13176841D01*
X14673772Y-13176841D02*
X14654725Y-13167317D01*
X14654725Y-13167317D02*
X14626153Y-13167317D01*
X14626153Y-13167317D02*
X14607106Y-13157793D01*
X14607106Y-13157793D02*
X14597582Y-13138746D01*
X14597582Y-13138746D02*
X14597582Y-13129222D01*
X14597582Y-13129222D02*
X14607106Y-13110174D01*
X14607106Y-13110174D02*
X14626153Y-13100650D01*
X14626153Y-13100650D02*
X14654725Y-13100650D01*
X14654725Y-13100650D02*
X14673772Y-13110174D01*
X14749963Y-13310174D02*
X14759487Y-13300650D01*
X14759487Y-13300650D02*
X14778534Y-13272079D01*
X14778534Y-13272079D02*
X14788058Y-13253031D01*
X14788058Y-13253031D02*
X14797582Y-13224460D01*
X14797582Y-13224460D02*
X14807106Y-13176841D01*
X14807106Y-13176841D02*
X14807106Y-13138746D01*
X14807106Y-13138746D02*
X14797582Y-13091127D01*
X14797582Y-13091127D02*
X14788058Y-13062555D01*
X14788058Y-13062555D02*
X14778534Y-13043508D01*
X14778534Y-13043508D02*
X14759487Y-13014936D01*
X14759487Y-13014936D02*
X14749963Y-13005412D01*
D12*
X9974900Y-13406500D02*
G75*
G03*
X9874900Y-13406500I-50000J0D01*
G01*
X9874900Y-13406500D02*
G75*
G03*
X9974900Y-13406500I50000J0D01*
G01*
D11*
X10340439Y-13497984D02*
X10226153Y-13497984D01*
X10283296Y-13497984D02*
X10283296Y-13297984D01*
X10283296Y-13297984D02*
X10264248Y-13326555D01*
X10264248Y-13326555D02*
X10245201Y-13345603D01*
X10245201Y-13345603D02*
X10226153Y-13355127D01*
X10426153Y-13478936D02*
X10435677Y-13488460D01*
X10435677Y-13488460D02*
X10426153Y-13497984D01*
X10426153Y-13497984D02*
X10416629Y-13488460D01*
X10416629Y-13488460D02*
X10426153Y-13478936D01*
X10426153Y-13478936D02*
X10426153Y-13497984D01*
X10559486Y-13297984D02*
X10578534Y-13297984D01*
X10578534Y-13297984D02*
X10597582Y-13307508D01*
X10597582Y-13307508D02*
X10607105Y-13317031D01*
X10607105Y-13317031D02*
X10616629Y-13336079D01*
X10616629Y-13336079D02*
X10626153Y-13374174D01*
X10626153Y-13374174D02*
X10626153Y-13421793D01*
X10626153Y-13421793D02*
X10616629Y-13459888D01*
X10616629Y-13459888D02*
X10607105Y-13478936D01*
X10607105Y-13478936D02*
X10597582Y-13488460D01*
X10597582Y-13488460D02*
X10578534Y-13497984D01*
X10578534Y-13497984D02*
X10559486Y-13497984D01*
X10559486Y-13497984D02*
X10540439Y-13488460D01*
X10540439Y-13488460D02*
X10530915Y-13478936D01*
X10530915Y-13478936D02*
X10521391Y-13459888D01*
X10521391Y-13459888D02*
X10511867Y-13421793D01*
X10511867Y-13421793D02*
X10511867Y-13374174D01*
X10511867Y-13374174D02*
X10521391Y-13336079D01*
X10521391Y-13336079D02*
X10530915Y-13317031D01*
X10530915Y-13317031D02*
X10540439Y-13307508D01*
X10540439Y-13307508D02*
X10559486Y-13297984D01*
X10749963Y-13297984D02*
X10769010Y-13297984D01*
X10769010Y-13297984D02*
X10788058Y-13307508D01*
X10788058Y-13307508D02*
X10797582Y-13317031D01*
X10797582Y-13317031D02*
X10807105Y-13336079D01*
X10807105Y-13336079D02*
X10816629Y-13374174D01*
X10816629Y-13374174D02*
X10816629Y-13421793D01*
X10816629Y-13421793D02*
X10807105Y-13459888D01*
X10807105Y-13459888D02*
X10797582Y-13478936D01*
X10797582Y-13478936D02*
X10788058Y-13488460D01*
X10788058Y-13488460D02*
X10769010Y-13497984D01*
X10769010Y-13497984D02*
X10749963Y-13497984D01*
X10749963Y-13497984D02*
X10730915Y-13488460D01*
X10730915Y-13488460D02*
X10721391Y-13478936D01*
X10721391Y-13478936D02*
X10711867Y-13459888D01*
X10711867Y-13459888D02*
X10702344Y-13421793D01*
X10702344Y-13421793D02*
X10702344Y-13374174D01*
X10702344Y-13374174D02*
X10711867Y-13336079D01*
X10711867Y-13336079D02*
X10721391Y-13317031D01*
X10721391Y-13317031D02*
X10730915Y-13307508D01*
X10730915Y-13307508D02*
X10749963Y-13297984D01*
X10940439Y-13297984D02*
X10959486Y-13297984D01*
X10959486Y-13297984D02*
X10978534Y-13307508D01*
X10978534Y-13307508D02*
X10988058Y-13317031D01*
X10988058Y-13317031D02*
X10997582Y-13336079D01*
X10997582Y-13336079D02*
X11007105Y-13374174D01*
X11007105Y-13374174D02*
X11007105Y-13421793D01*
X11007105Y-13421793D02*
X10997582Y-13459888D01*
X10997582Y-13459888D02*
X10988058Y-13478936D01*
X10988058Y-13478936D02*
X10978534Y-13488460D01*
X10978534Y-13488460D02*
X10959486Y-13497984D01*
X10959486Y-13497984D02*
X10940439Y-13497984D01*
X10940439Y-13497984D02*
X10921391Y-13488460D01*
X10921391Y-13488460D02*
X10911867Y-13478936D01*
X10911867Y-13478936D02*
X10902344Y-13459888D01*
X10902344Y-13459888D02*
X10892820Y-13421793D01*
X10892820Y-13421793D02*
X10892820Y-13374174D01*
X10892820Y-13374174D02*
X10902344Y-13336079D01*
X10902344Y-13336079D02*
X10911867Y-13317031D01*
X10911867Y-13317031D02*
X10921391Y-13307508D01*
X10921391Y-13307508D02*
X10940439Y-13297984D01*
X11092820Y-13497984D02*
X11092820Y-13364650D01*
X11092820Y-13383698D02*
X11102344Y-13374174D01*
X11102344Y-13374174D02*
X11121391Y-13364650D01*
X11121391Y-13364650D02*
X11149963Y-13364650D01*
X11149963Y-13364650D02*
X11169010Y-13374174D01*
X11169010Y-13374174D02*
X11178534Y-13393222D01*
X11178534Y-13393222D02*
X11178534Y-13497984D01*
X11178534Y-13393222D02*
X11188058Y-13374174D01*
X11188058Y-13374174D02*
X11207105Y-13364650D01*
X11207105Y-13364650D02*
X11235677Y-13364650D01*
X11235677Y-13364650D02*
X11254724Y-13374174D01*
X11254724Y-13374174D02*
X11264248Y-13393222D01*
X11264248Y-13393222D02*
X11264248Y-13497984D01*
X11359486Y-13497984D02*
X11359486Y-13364650D01*
X11359486Y-13383698D02*
X11369010Y-13374174D01*
X11369010Y-13374174D02*
X11388058Y-13364650D01*
X11388058Y-13364650D02*
X11416629Y-13364650D01*
X11416629Y-13364650D02*
X11435677Y-13374174D01*
X11435677Y-13374174D02*
X11445201Y-13393222D01*
X11445201Y-13393222D02*
X11445201Y-13497984D01*
X11445201Y-13393222D02*
X11454724Y-13374174D01*
X11454724Y-13374174D02*
X11473772Y-13364650D01*
X11473772Y-13364650D02*
X11502343Y-13364650D01*
X11502343Y-13364650D02*
X11521391Y-13374174D01*
X11521391Y-13374174D02*
X11530915Y-13393222D01*
X11530915Y-13393222D02*
X11530915Y-13497984D01*
X11921391Y-13288460D02*
X11749963Y-13545603D01*
X12178534Y-13297984D02*
X12197582Y-13297984D01*
X12197582Y-13297984D02*
X12216629Y-13307508D01*
X12216629Y-13307508D02*
X12226153Y-13317031D01*
X12226153Y-13317031D02*
X12235677Y-13336079D01*
X12235677Y-13336079D02*
X12245201Y-13374174D01*
X12245201Y-13374174D02*
X12245201Y-13421793D01*
X12245201Y-13421793D02*
X12235677Y-13459888D01*
X12235677Y-13459888D02*
X12226153Y-13478936D01*
X12226153Y-13478936D02*
X12216629Y-13488460D01*
X12216629Y-13488460D02*
X12197582Y-13497984D01*
X12197582Y-13497984D02*
X12178534Y-13497984D01*
X12178534Y-13497984D02*
X12159486Y-13488460D01*
X12159486Y-13488460D02*
X12149963Y-13478936D01*
X12149963Y-13478936D02*
X12140439Y-13459888D01*
X12140439Y-13459888D02*
X12130915Y-13421793D01*
X12130915Y-13421793D02*
X12130915Y-13374174D01*
X12130915Y-13374174D02*
X12140439Y-13336079D01*
X12140439Y-13336079D02*
X12149963Y-13317031D01*
X12149963Y-13317031D02*
X12159486Y-13307508D01*
X12159486Y-13307508D02*
X12178534Y-13297984D01*
X12330915Y-13478936D02*
X12340439Y-13488460D01*
X12340439Y-13488460D02*
X12330915Y-13497984D01*
X12330915Y-13497984D02*
X12321391Y-13488460D01*
X12321391Y-13488460D02*
X12330915Y-13478936D01*
X12330915Y-13478936D02*
X12330915Y-13497984D01*
X12464248Y-13297984D02*
X12483296Y-13297984D01*
X12483296Y-13297984D02*
X12502344Y-13307508D01*
X12502344Y-13307508D02*
X12511867Y-13317031D01*
X12511867Y-13317031D02*
X12521391Y-13336079D01*
X12521391Y-13336079D02*
X12530915Y-13374174D01*
X12530915Y-13374174D02*
X12530915Y-13421793D01*
X12530915Y-13421793D02*
X12521391Y-13459888D01*
X12521391Y-13459888D02*
X12511867Y-13478936D01*
X12511867Y-13478936D02*
X12502344Y-13488460D01*
X12502344Y-13488460D02*
X12483296Y-13497984D01*
X12483296Y-13497984D02*
X12464248Y-13497984D01*
X12464248Y-13497984D02*
X12445201Y-13488460D01*
X12445201Y-13488460D02*
X12435677Y-13478936D01*
X12435677Y-13478936D02*
X12426153Y-13459888D01*
X12426153Y-13459888D02*
X12416629Y-13421793D01*
X12416629Y-13421793D02*
X12416629Y-13374174D01*
X12416629Y-13374174D02*
X12426153Y-13336079D01*
X12426153Y-13336079D02*
X12435677Y-13317031D01*
X12435677Y-13317031D02*
X12445201Y-13307508D01*
X12445201Y-13307508D02*
X12464248Y-13297984D01*
X12597582Y-13297984D02*
X12721391Y-13297984D01*
X12721391Y-13297984D02*
X12654725Y-13374174D01*
X12654725Y-13374174D02*
X12683296Y-13374174D01*
X12683296Y-13374174D02*
X12702344Y-13383698D01*
X12702344Y-13383698D02*
X12711867Y-13393222D01*
X12711867Y-13393222D02*
X12721391Y-13412269D01*
X12721391Y-13412269D02*
X12721391Y-13459888D01*
X12721391Y-13459888D02*
X12711867Y-13478936D01*
X12711867Y-13478936D02*
X12702344Y-13488460D01*
X12702344Y-13488460D02*
X12683296Y-13497984D01*
X12683296Y-13497984D02*
X12626153Y-13497984D01*
X12626153Y-13497984D02*
X12607106Y-13488460D01*
X12607106Y-13488460D02*
X12597582Y-13478936D01*
X12816629Y-13497984D02*
X12854725Y-13497984D01*
X12854725Y-13497984D02*
X12873772Y-13488460D01*
X12873772Y-13488460D02*
X12883296Y-13478936D01*
X12883296Y-13478936D02*
X12902344Y-13450365D01*
X12902344Y-13450365D02*
X12911867Y-13412269D01*
X12911867Y-13412269D02*
X12911867Y-13336079D01*
X12911867Y-13336079D02*
X12902344Y-13317031D01*
X12902344Y-13317031D02*
X12892820Y-13307508D01*
X12892820Y-13307508D02*
X12873772Y-13297984D01*
X12873772Y-13297984D02*
X12835677Y-13297984D01*
X12835677Y-13297984D02*
X12816629Y-13307508D01*
X12816629Y-13307508D02*
X12807106Y-13317031D01*
X12807106Y-13317031D02*
X12797582Y-13336079D01*
X12797582Y-13336079D02*
X12797582Y-13383698D01*
X12797582Y-13383698D02*
X12807106Y-13402746D01*
X12807106Y-13402746D02*
X12816629Y-13412269D01*
X12816629Y-13412269D02*
X12835677Y-13421793D01*
X12835677Y-13421793D02*
X12873772Y-13421793D01*
X12873772Y-13421793D02*
X12892820Y-13412269D01*
X12892820Y-13412269D02*
X12902344Y-13402746D01*
X12902344Y-13402746D02*
X12911867Y-13383698D01*
X13083296Y-13364650D02*
X13083296Y-13497984D01*
X13035677Y-13288460D02*
X12988058Y-13431317D01*
X12988058Y-13431317D02*
X13111867Y-13431317D01*
X13178534Y-13297984D02*
X13178534Y-13336079D01*
X13254725Y-13297984D02*
X13254725Y-13336079D01*
X13549963Y-13574174D02*
X13540439Y-13564650D01*
X13540439Y-13564650D02*
X13521391Y-13536079D01*
X13521391Y-13536079D02*
X13511868Y-13517031D01*
X13511868Y-13517031D02*
X13502344Y-13488460D01*
X13502344Y-13488460D02*
X13492820Y-13440841D01*
X13492820Y-13440841D02*
X13492820Y-13402746D01*
X13492820Y-13402746D02*
X13502344Y-13355127D01*
X13502344Y-13355127D02*
X13511868Y-13326555D01*
X13511868Y-13326555D02*
X13521391Y-13307508D01*
X13521391Y-13307508D02*
X13540439Y-13278936D01*
X13540439Y-13278936D02*
X13549963Y-13269412D01*
X13654725Y-13383698D02*
X13635677Y-13374174D01*
X13635677Y-13374174D02*
X13626153Y-13364650D01*
X13626153Y-13364650D02*
X13616629Y-13345603D01*
X13616629Y-13345603D02*
X13616629Y-13336079D01*
X13616629Y-13336079D02*
X13626153Y-13317031D01*
X13626153Y-13317031D02*
X13635677Y-13307508D01*
X13635677Y-13307508D02*
X13654725Y-13297984D01*
X13654725Y-13297984D02*
X13692820Y-13297984D01*
X13692820Y-13297984D02*
X13711868Y-13307508D01*
X13711868Y-13307508D02*
X13721391Y-13317031D01*
X13721391Y-13317031D02*
X13730915Y-13336079D01*
X13730915Y-13336079D02*
X13730915Y-13345603D01*
X13730915Y-13345603D02*
X13721391Y-13364650D01*
X13721391Y-13364650D02*
X13711868Y-13374174D01*
X13711868Y-13374174D02*
X13692820Y-13383698D01*
X13692820Y-13383698D02*
X13654725Y-13383698D01*
X13654725Y-13383698D02*
X13635677Y-13393222D01*
X13635677Y-13393222D02*
X13626153Y-13402746D01*
X13626153Y-13402746D02*
X13616629Y-13421793D01*
X13616629Y-13421793D02*
X13616629Y-13459888D01*
X13616629Y-13459888D02*
X13626153Y-13478936D01*
X13626153Y-13478936D02*
X13635677Y-13488460D01*
X13635677Y-13488460D02*
X13654725Y-13497984D01*
X13654725Y-13497984D02*
X13692820Y-13497984D01*
X13692820Y-13497984D02*
X13711868Y-13488460D01*
X13711868Y-13488460D02*
X13721391Y-13478936D01*
X13721391Y-13478936D02*
X13730915Y-13459888D01*
X13730915Y-13459888D02*
X13730915Y-13421793D01*
X13730915Y-13421793D02*
X13721391Y-13402746D01*
X13721391Y-13402746D02*
X13711868Y-13393222D01*
X13711868Y-13393222D02*
X13692820Y-13383698D01*
X13969010Y-13497984D02*
X13969010Y-13297984D01*
X14054725Y-13497984D02*
X14054725Y-13393222D01*
X14054725Y-13393222D02*
X14045201Y-13374174D01*
X14045201Y-13374174D02*
X14026153Y-13364650D01*
X14026153Y-13364650D02*
X13997582Y-13364650D01*
X13997582Y-13364650D02*
X13978534Y-13374174D01*
X13978534Y-13374174D02*
X13969010Y-13383698D01*
X14178534Y-13497984D02*
X14159487Y-13488460D01*
X14159487Y-13488460D02*
X14149963Y-13478936D01*
X14149963Y-13478936D02*
X14140439Y-13459888D01*
X14140439Y-13459888D02*
X14140439Y-13402746D01*
X14140439Y-13402746D02*
X14149963Y-13383698D01*
X14149963Y-13383698D02*
X14159487Y-13374174D01*
X14159487Y-13374174D02*
X14178534Y-13364650D01*
X14178534Y-13364650D02*
X14207106Y-13364650D01*
X14207106Y-13364650D02*
X14226153Y-13374174D01*
X14226153Y-13374174D02*
X14235677Y-13383698D01*
X14235677Y-13383698D02*
X14245201Y-13402746D01*
X14245201Y-13402746D02*
X14245201Y-13459888D01*
X14245201Y-13459888D02*
X14235677Y-13478936D01*
X14235677Y-13478936D02*
X14226153Y-13488460D01*
X14226153Y-13488460D02*
X14207106Y-13497984D01*
X14207106Y-13497984D02*
X14178534Y-13497984D01*
X14359487Y-13497984D02*
X14340439Y-13488460D01*
X14340439Y-13488460D02*
X14330915Y-13469412D01*
X14330915Y-13469412D02*
X14330915Y-13297984D01*
X14511868Y-13488460D02*
X14492820Y-13497984D01*
X14492820Y-13497984D02*
X14454725Y-13497984D01*
X14454725Y-13497984D02*
X14435677Y-13488460D01*
X14435677Y-13488460D02*
X14426153Y-13469412D01*
X14426153Y-13469412D02*
X14426153Y-13393222D01*
X14426153Y-13393222D02*
X14435677Y-13374174D01*
X14435677Y-13374174D02*
X14454725Y-13364650D01*
X14454725Y-13364650D02*
X14492820Y-13364650D01*
X14492820Y-13364650D02*
X14511868Y-13374174D01*
X14511868Y-13374174D02*
X14521391Y-13393222D01*
X14521391Y-13393222D02*
X14521391Y-13412269D01*
X14521391Y-13412269D02*
X14426153Y-13431317D01*
X14597582Y-13488460D02*
X14616630Y-13497984D01*
X14616630Y-13497984D02*
X14654725Y-13497984D01*
X14654725Y-13497984D02*
X14673772Y-13488460D01*
X14673772Y-13488460D02*
X14683296Y-13469412D01*
X14683296Y-13469412D02*
X14683296Y-13459888D01*
X14683296Y-13459888D02*
X14673772Y-13440841D01*
X14673772Y-13440841D02*
X14654725Y-13431317D01*
X14654725Y-13431317D02*
X14626153Y-13431317D01*
X14626153Y-13431317D02*
X14607106Y-13421793D01*
X14607106Y-13421793D02*
X14597582Y-13402746D01*
X14597582Y-13402746D02*
X14597582Y-13393222D01*
X14597582Y-13393222D02*
X14607106Y-13374174D01*
X14607106Y-13374174D02*
X14626153Y-13364650D01*
X14626153Y-13364650D02*
X14654725Y-13364650D01*
X14654725Y-13364650D02*
X14673772Y-13374174D01*
X14749963Y-13574174D02*
X14759487Y-13564650D01*
X14759487Y-13564650D02*
X14778534Y-13536079D01*
X14778534Y-13536079D02*
X14788058Y-13517031D01*
X14788058Y-13517031D02*
X14797582Y-13488460D01*
X14797582Y-13488460D02*
X14807106Y-13440841D01*
X14807106Y-13440841D02*
X14807106Y-13402746D01*
X14807106Y-13402746D02*
X14797582Y-13355127D01*
X14797582Y-13355127D02*
X14788058Y-13326555D01*
X14788058Y-13326555D02*
X14778534Y-13307508D01*
X14778534Y-13307508D02*
X14759487Y-13278936D01*
X14759487Y-13278936D02*
X14749963Y-13269412D01*
X9874900Y-13570500D02*
X9874900Y-13770500D01*
X9774900Y-13670500D02*
X9974900Y-13670500D01*
X10226153Y-13581031D02*
X10235677Y-13571508D01*
X10235677Y-13571508D02*
X10254724Y-13561984D01*
X10254724Y-13561984D02*
X10302344Y-13561984D01*
X10302344Y-13561984D02*
X10321391Y-13571508D01*
X10321391Y-13571508D02*
X10330915Y-13581031D01*
X10330915Y-13581031D02*
X10340439Y-13600079D01*
X10340439Y-13600079D02*
X10340439Y-13619127D01*
X10340439Y-13619127D02*
X10330915Y-13647698D01*
X10330915Y-13647698D02*
X10216629Y-13761984D01*
X10216629Y-13761984D02*
X10340439Y-13761984D01*
X10426153Y-13742936D02*
X10435677Y-13752460D01*
X10435677Y-13752460D02*
X10426153Y-13761984D01*
X10426153Y-13761984D02*
X10416629Y-13752460D01*
X10416629Y-13752460D02*
X10426153Y-13742936D01*
X10426153Y-13742936D02*
X10426153Y-13761984D01*
X10616629Y-13561984D02*
X10521391Y-13561984D01*
X10521391Y-13561984D02*
X10511867Y-13657222D01*
X10511867Y-13657222D02*
X10521391Y-13647698D01*
X10521391Y-13647698D02*
X10540439Y-13638174D01*
X10540439Y-13638174D02*
X10588058Y-13638174D01*
X10588058Y-13638174D02*
X10607105Y-13647698D01*
X10607105Y-13647698D02*
X10616629Y-13657222D01*
X10616629Y-13657222D02*
X10626153Y-13676269D01*
X10626153Y-13676269D02*
X10626153Y-13723888D01*
X10626153Y-13723888D02*
X10616629Y-13742936D01*
X10616629Y-13742936D02*
X10607105Y-13752460D01*
X10607105Y-13752460D02*
X10588058Y-13761984D01*
X10588058Y-13761984D02*
X10540439Y-13761984D01*
X10540439Y-13761984D02*
X10521391Y-13752460D01*
X10521391Y-13752460D02*
X10511867Y-13742936D01*
X10749963Y-13561984D02*
X10769010Y-13561984D01*
X10769010Y-13561984D02*
X10788058Y-13571508D01*
X10788058Y-13571508D02*
X10797582Y-13581031D01*
X10797582Y-13581031D02*
X10807105Y-13600079D01*
X10807105Y-13600079D02*
X10816629Y-13638174D01*
X10816629Y-13638174D02*
X10816629Y-13685793D01*
X10816629Y-13685793D02*
X10807105Y-13723888D01*
X10807105Y-13723888D02*
X10797582Y-13742936D01*
X10797582Y-13742936D02*
X10788058Y-13752460D01*
X10788058Y-13752460D02*
X10769010Y-13761984D01*
X10769010Y-13761984D02*
X10749963Y-13761984D01*
X10749963Y-13761984D02*
X10730915Y-13752460D01*
X10730915Y-13752460D02*
X10721391Y-13742936D01*
X10721391Y-13742936D02*
X10711867Y-13723888D01*
X10711867Y-13723888D02*
X10702344Y-13685793D01*
X10702344Y-13685793D02*
X10702344Y-13638174D01*
X10702344Y-13638174D02*
X10711867Y-13600079D01*
X10711867Y-13600079D02*
X10721391Y-13581031D01*
X10721391Y-13581031D02*
X10730915Y-13571508D01*
X10730915Y-13571508D02*
X10749963Y-13561984D01*
X10940439Y-13561984D02*
X10959486Y-13561984D01*
X10959486Y-13561984D02*
X10978534Y-13571508D01*
X10978534Y-13571508D02*
X10988058Y-13581031D01*
X10988058Y-13581031D02*
X10997582Y-13600079D01*
X10997582Y-13600079D02*
X11007105Y-13638174D01*
X11007105Y-13638174D02*
X11007105Y-13685793D01*
X11007105Y-13685793D02*
X10997582Y-13723888D01*
X10997582Y-13723888D02*
X10988058Y-13742936D01*
X10988058Y-13742936D02*
X10978534Y-13752460D01*
X10978534Y-13752460D02*
X10959486Y-13761984D01*
X10959486Y-13761984D02*
X10940439Y-13761984D01*
X10940439Y-13761984D02*
X10921391Y-13752460D01*
X10921391Y-13752460D02*
X10911867Y-13742936D01*
X10911867Y-13742936D02*
X10902344Y-13723888D01*
X10902344Y-13723888D02*
X10892820Y-13685793D01*
X10892820Y-13685793D02*
X10892820Y-13638174D01*
X10892820Y-13638174D02*
X10902344Y-13600079D01*
X10902344Y-13600079D02*
X10911867Y-13581031D01*
X10911867Y-13581031D02*
X10921391Y-13571508D01*
X10921391Y-13571508D02*
X10940439Y-13561984D01*
X11092820Y-13761984D02*
X11092820Y-13628650D01*
X11092820Y-13647698D02*
X11102344Y-13638174D01*
X11102344Y-13638174D02*
X11121391Y-13628650D01*
X11121391Y-13628650D02*
X11149963Y-13628650D01*
X11149963Y-13628650D02*
X11169010Y-13638174D01*
X11169010Y-13638174D02*
X11178534Y-13657222D01*
X11178534Y-13657222D02*
X11178534Y-13761984D01*
X11178534Y-13657222D02*
X11188058Y-13638174D01*
X11188058Y-13638174D02*
X11207105Y-13628650D01*
X11207105Y-13628650D02*
X11235677Y-13628650D01*
X11235677Y-13628650D02*
X11254724Y-13638174D01*
X11254724Y-13638174D02*
X11264248Y-13657222D01*
X11264248Y-13657222D02*
X11264248Y-13761984D01*
X11359486Y-13761984D02*
X11359486Y-13628650D01*
X11359486Y-13647698D02*
X11369010Y-13638174D01*
X11369010Y-13638174D02*
X11388058Y-13628650D01*
X11388058Y-13628650D02*
X11416629Y-13628650D01*
X11416629Y-13628650D02*
X11435677Y-13638174D01*
X11435677Y-13638174D02*
X11445201Y-13657222D01*
X11445201Y-13657222D02*
X11445201Y-13761984D01*
X11445201Y-13657222D02*
X11454724Y-13638174D01*
X11454724Y-13638174D02*
X11473772Y-13628650D01*
X11473772Y-13628650D02*
X11502343Y-13628650D01*
X11502343Y-13628650D02*
X11521391Y-13638174D01*
X11521391Y-13638174D02*
X11530915Y-13657222D01*
X11530915Y-13657222D02*
X11530915Y-13761984D01*
X11921391Y-13552460D02*
X11749963Y-13809603D01*
X12178534Y-13561984D02*
X12197582Y-13561984D01*
X12197582Y-13561984D02*
X12216629Y-13571508D01*
X12216629Y-13571508D02*
X12226153Y-13581031D01*
X12226153Y-13581031D02*
X12235677Y-13600079D01*
X12235677Y-13600079D02*
X12245201Y-13638174D01*
X12245201Y-13638174D02*
X12245201Y-13685793D01*
X12245201Y-13685793D02*
X12235677Y-13723888D01*
X12235677Y-13723888D02*
X12226153Y-13742936D01*
X12226153Y-13742936D02*
X12216629Y-13752460D01*
X12216629Y-13752460D02*
X12197582Y-13761984D01*
X12197582Y-13761984D02*
X12178534Y-13761984D01*
X12178534Y-13761984D02*
X12159486Y-13752460D01*
X12159486Y-13752460D02*
X12149963Y-13742936D01*
X12149963Y-13742936D02*
X12140439Y-13723888D01*
X12140439Y-13723888D02*
X12130915Y-13685793D01*
X12130915Y-13685793D02*
X12130915Y-13638174D01*
X12130915Y-13638174D02*
X12140439Y-13600079D01*
X12140439Y-13600079D02*
X12149963Y-13581031D01*
X12149963Y-13581031D02*
X12159486Y-13571508D01*
X12159486Y-13571508D02*
X12178534Y-13561984D01*
X12330915Y-13742936D02*
X12340439Y-13752460D01*
X12340439Y-13752460D02*
X12330915Y-13761984D01*
X12330915Y-13761984D02*
X12321391Y-13752460D01*
X12321391Y-13752460D02*
X12330915Y-13742936D01*
X12330915Y-13742936D02*
X12330915Y-13761984D01*
X12464248Y-13561984D02*
X12483296Y-13561984D01*
X12483296Y-13561984D02*
X12502344Y-13571508D01*
X12502344Y-13571508D02*
X12511867Y-13581031D01*
X12511867Y-13581031D02*
X12521391Y-13600079D01*
X12521391Y-13600079D02*
X12530915Y-13638174D01*
X12530915Y-13638174D02*
X12530915Y-13685793D01*
X12530915Y-13685793D02*
X12521391Y-13723888D01*
X12521391Y-13723888D02*
X12511867Y-13742936D01*
X12511867Y-13742936D02*
X12502344Y-13752460D01*
X12502344Y-13752460D02*
X12483296Y-13761984D01*
X12483296Y-13761984D02*
X12464248Y-13761984D01*
X12464248Y-13761984D02*
X12445201Y-13752460D01*
X12445201Y-13752460D02*
X12435677Y-13742936D01*
X12435677Y-13742936D02*
X12426153Y-13723888D01*
X12426153Y-13723888D02*
X12416629Y-13685793D01*
X12416629Y-13685793D02*
X12416629Y-13638174D01*
X12416629Y-13638174D02*
X12426153Y-13600079D01*
X12426153Y-13600079D02*
X12435677Y-13581031D01*
X12435677Y-13581031D02*
X12445201Y-13571508D01*
X12445201Y-13571508D02*
X12464248Y-13561984D01*
X12626153Y-13761984D02*
X12664248Y-13761984D01*
X12664248Y-13761984D02*
X12683296Y-13752460D01*
X12683296Y-13752460D02*
X12692820Y-13742936D01*
X12692820Y-13742936D02*
X12711867Y-13714365D01*
X12711867Y-13714365D02*
X12721391Y-13676269D01*
X12721391Y-13676269D02*
X12721391Y-13600079D01*
X12721391Y-13600079D02*
X12711867Y-13581031D01*
X12711867Y-13581031D02*
X12702344Y-13571508D01*
X12702344Y-13571508D02*
X12683296Y-13561984D01*
X12683296Y-13561984D02*
X12645201Y-13561984D01*
X12645201Y-13561984D02*
X12626153Y-13571508D01*
X12626153Y-13571508D02*
X12616629Y-13581031D01*
X12616629Y-13581031D02*
X12607106Y-13600079D01*
X12607106Y-13600079D02*
X12607106Y-13647698D01*
X12607106Y-13647698D02*
X12616629Y-13666746D01*
X12616629Y-13666746D02*
X12626153Y-13676269D01*
X12626153Y-13676269D02*
X12645201Y-13685793D01*
X12645201Y-13685793D02*
X12683296Y-13685793D01*
X12683296Y-13685793D02*
X12702344Y-13676269D01*
X12702344Y-13676269D02*
X12711867Y-13666746D01*
X12711867Y-13666746D02*
X12721391Y-13647698D01*
X12835677Y-13647698D02*
X12816629Y-13638174D01*
X12816629Y-13638174D02*
X12807106Y-13628650D01*
X12807106Y-13628650D02*
X12797582Y-13609603D01*
X12797582Y-13609603D02*
X12797582Y-13600079D01*
X12797582Y-13600079D02*
X12807106Y-13581031D01*
X12807106Y-13581031D02*
X12816629Y-13571508D01*
X12816629Y-13571508D02*
X12835677Y-13561984D01*
X12835677Y-13561984D02*
X12873772Y-13561984D01*
X12873772Y-13561984D02*
X12892820Y-13571508D01*
X12892820Y-13571508D02*
X12902344Y-13581031D01*
X12902344Y-13581031D02*
X12911867Y-13600079D01*
X12911867Y-13600079D02*
X12911867Y-13609603D01*
X12911867Y-13609603D02*
X12902344Y-13628650D01*
X12902344Y-13628650D02*
X12892820Y-13638174D01*
X12892820Y-13638174D02*
X12873772Y-13647698D01*
X12873772Y-13647698D02*
X12835677Y-13647698D01*
X12835677Y-13647698D02*
X12816629Y-13657222D01*
X12816629Y-13657222D02*
X12807106Y-13666746D01*
X12807106Y-13666746D02*
X12797582Y-13685793D01*
X12797582Y-13685793D02*
X12797582Y-13723888D01*
X12797582Y-13723888D02*
X12807106Y-13742936D01*
X12807106Y-13742936D02*
X12816629Y-13752460D01*
X12816629Y-13752460D02*
X12835677Y-13761984D01*
X12835677Y-13761984D02*
X12873772Y-13761984D01*
X12873772Y-13761984D02*
X12892820Y-13752460D01*
X12892820Y-13752460D02*
X12902344Y-13742936D01*
X12902344Y-13742936D02*
X12911867Y-13723888D01*
X12911867Y-13723888D02*
X12911867Y-13685793D01*
X12911867Y-13685793D02*
X12902344Y-13666746D01*
X12902344Y-13666746D02*
X12892820Y-13657222D01*
X12892820Y-13657222D02*
X12873772Y-13647698D01*
X13083296Y-13628650D02*
X13083296Y-13761984D01*
X13035677Y-13552460D02*
X12988058Y-13695317D01*
X12988058Y-13695317D02*
X13111867Y-13695317D01*
X13178534Y-13561984D02*
X13178534Y-13600079D01*
X13254725Y-13561984D02*
X13254725Y-13600079D01*
X13549963Y-13838174D02*
X13540439Y-13828650D01*
X13540439Y-13828650D02*
X13521391Y-13800079D01*
X13521391Y-13800079D02*
X13511868Y-13781031D01*
X13511868Y-13781031D02*
X13502344Y-13752460D01*
X13502344Y-13752460D02*
X13492820Y-13704841D01*
X13492820Y-13704841D02*
X13492820Y-13666746D01*
X13492820Y-13666746D02*
X13502344Y-13619127D01*
X13502344Y-13619127D02*
X13511868Y-13590555D01*
X13511868Y-13590555D02*
X13521391Y-13571508D01*
X13521391Y-13571508D02*
X13540439Y-13542936D01*
X13540439Y-13542936D02*
X13549963Y-13533412D01*
X13711868Y-13628650D02*
X13711868Y-13761984D01*
X13664248Y-13552460D02*
X13616629Y-13695317D01*
X13616629Y-13695317D02*
X13740439Y-13695317D01*
X13969010Y-13761984D02*
X13969010Y-13561984D01*
X14054725Y-13761984D02*
X14054725Y-13657222D01*
X14054725Y-13657222D02*
X14045201Y-13638174D01*
X14045201Y-13638174D02*
X14026153Y-13628650D01*
X14026153Y-13628650D02*
X13997582Y-13628650D01*
X13997582Y-13628650D02*
X13978534Y-13638174D01*
X13978534Y-13638174D02*
X13969010Y-13647698D01*
X14178534Y-13761984D02*
X14159487Y-13752460D01*
X14159487Y-13752460D02*
X14149963Y-13742936D01*
X14149963Y-13742936D02*
X14140439Y-13723888D01*
X14140439Y-13723888D02*
X14140439Y-13666746D01*
X14140439Y-13666746D02*
X14149963Y-13647698D01*
X14149963Y-13647698D02*
X14159487Y-13638174D01*
X14159487Y-13638174D02*
X14178534Y-13628650D01*
X14178534Y-13628650D02*
X14207106Y-13628650D01*
X14207106Y-13628650D02*
X14226153Y-13638174D01*
X14226153Y-13638174D02*
X14235677Y-13647698D01*
X14235677Y-13647698D02*
X14245201Y-13666746D01*
X14245201Y-13666746D02*
X14245201Y-13723888D01*
X14245201Y-13723888D02*
X14235677Y-13742936D01*
X14235677Y-13742936D02*
X14226153Y-13752460D01*
X14226153Y-13752460D02*
X14207106Y-13761984D01*
X14207106Y-13761984D02*
X14178534Y-13761984D01*
X14359487Y-13761984D02*
X14340439Y-13752460D01*
X14340439Y-13752460D02*
X14330915Y-13733412D01*
X14330915Y-13733412D02*
X14330915Y-13561984D01*
X14511868Y-13752460D02*
X14492820Y-13761984D01*
X14492820Y-13761984D02*
X14454725Y-13761984D01*
X14454725Y-13761984D02*
X14435677Y-13752460D01*
X14435677Y-13752460D02*
X14426153Y-13733412D01*
X14426153Y-13733412D02*
X14426153Y-13657222D01*
X14426153Y-13657222D02*
X14435677Y-13638174D01*
X14435677Y-13638174D02*
X14454725Y-13628650D01*
X14454725Y-13628650D02*
X14492820Y-13628650D01*
X14492820Y-13628650D02*
X14511868Y-13638174D01*
X14511868Y-13638174D02*
X14521391Y-13657222D01*
X14521391Y-13657222D02*
X14521391Y-13676269D01*
X14521391Y-13676269D02*
X14426153Y-13695317D01*
X14597582Y-13752460D02*
X14616630Y-13761984D01*
X14616630Y-13761984D02*
X14654725Y-13761984D01*
X14654725Y-13761984D02*
X14673772Y-13752460D01*
X14673772Y-13752460D02*
X14683296Y-13733412D01*
X14683296Y-13733412D02*
X14683296Y-13723888D01*
X14683296Y-13723888D02*
X14673772Y-13704841D01*
X14673772Y-13704841D02*
X14654725Y-13695317D01*
X14654725Y-13695317D02*
X14626153Y-13695317D01*
X14626153Y-13695317D02*
X14607106Y-13685793D01*
X14607106Y-13685793D02*
X14597582Y-13666746D01*
X14597582Y-13666746D02*
X14597582Y-13657222D01*
X14597582Y-13657222D02*
X14607106Y-13638174D01*
X14607106Y-13638174D02*
X14626153Y-13628650D01*
X14626153Y-13628650D02*
X14654725Y-13628650D01*
X14654725Y-13628650D02*
X14673772Y-13638174D01*
X14749963Y-13838174D02*
X14759487Y-13828650D01*
X14759487Y-13828650D02*
X14778534Y-13800079D01*
X14778534Y-13800079D02*
X14788058Y-13781031D01*
X14788058Y-13781031D02*
X14797582Y-13752460D01*
X14797582Y-13752460D02*
X14807106Y-13704841D01*
X14807106Y-13704841D02*
X14807106Y-13666746D01*
X14807106Y-13666746D02*
X14797582Y-13619127D01*
X14797582Y-13619127D02*
X14788058Y-13590555D01*
X14788058Y-13590555D02*
X14778534Y-13571508D01*
X14778534Y-13571508D02*
X14759487Y-13542936D01*
X14759487Y-13542936D02*
X14749963Y-13533412D01*
M02*
