%TF.GenerationSoftware,KiCad,Pcbnew,7.0.10*%
%TF.CreationDate,2024-07-28T21:48:20+02:00*%
%TF.ProjectId,Traffic LED Board,54726166-6669-4632-904c-454420426f61,rev?*%
%TF.SameCoordinates,Original*%
%TF.FileFunction,Drillmap*%
%TF.FilePolarity,Positive*%
%FSLAX45Y45*%
G04 Gerber Fmt 4.5, Leading zero omitted, Abs format (unit mm)*
G04 Created by KiCad (PCBNEW 7.0.10) date 2024-07-28 21:48:20*
%MOMM*%
%LPD*%
G01*
G04 APERTURE LIST*
%ADD10C,0.050000*%
%ADD11C,0.200000*%
G04 APERTURE END LIST*
D10*
X9977400Y-10000000D02*
X12677400Y-10000000D01*
X12677400Y-12500000D01*
X9977400Y-12500000D01*
X9977400Y-10000000D01*
D11*
X11227400Y-11400000D02*
X11427400Y-11600000D01*
X11427400Y-11400000D02*
X11227400Y-11600000D01*
X10235677Y-12813984D02*
X10235677Y-12613984D01*
X10235677Y-12613984D02*
X10283296Y-12613984D01*
X10283296Y-12613984D02*
X10311867Y-12623508D01*
X10311867Y-12623508D02*
X10330915Y-12642555D01*
X10330915Y-12642555D02*
X10340439Y-12661603D01*
X10340439Y-12661603D02*
X10349963Y-12699698D01*
X10349963Y-12699698D02*
X10349963Y-12728269D01*
X10349963Y-12728269D02*
X10340439Y-12766365D01*
X10340439Y-12766365D02*
X10330915Y-12785412D01*
X10330915Y-12785412D02*
X10311867Y-12804460D01*
X10311867Y-12804460D02*
X10283296Y-12813984D01*
X10283296Y-12813984D02*
X10235677Y-12813984D01*
X10435677Y-12813984D02*
X10435677Y-12680650D01*
X10435677Y-12718746D02*
X10445201Y-12699698D01*
X10445201Y-12699698D02*
X10454724Y-12690174D01*
X10454724Y-12690174D02*
X10473772Y-12680650D01*
X10473772Y-12680650D02*
X10492820Y-12680650D01*
X10559486Y-12813984D02*
X10559486Y-12680650D01*
X10559486Y-12613984D02*
X10549963Y-12623508D01*
X10549963Y-12623508D02*
X10559486Y-12633031D01*
X10559486Y-12633031D02*
X10569010Y-12623508D01*
X10569010Y-12623508D02*
X10559486Y-12613984D01*
X10559486Y-12613984D02*
X10559486Y-12633031D01*
X10683296Y-12813984D02*
X10664248Y-12804460D01*
X10664248Y-12804460D02*
X10654724Y-12785412D01*
X10654724Y-12785412D02*
X10654724Y-12613984D01*
X10788058Y-12813984D02*
X10769010Y-12804460D01*
X10769010Y-12804460D02*
X10759486Y-12785412D01*
X10759486Y-12785412D02*
X10759486Y-12613984D01*
X11016629Y-12813984D02*
X11016629Y-12613984D01*
X11016629Y-12613984D02*
X11083296Y-12756841D01*
X11083296Y-12756841D02*
X11149963Y-12613984D01*
X11149963Y-12613984D02*
X11149963Y-12813984D01*
X11330915Y-12813984D02*
X11330915Y-12709222D01*
X11330915Y-12709222D02*
X11321391Y-12690174D01*
X11321391Y-12690174D02*
X11302343Y-12680650D01*
X11302343Y-12680650D02*
X11264248Y-12680650D01*
X11264248Y-12680650D02*
X11245201Y-12690174D01*
X11330915Y-12804460D02*
X11311867Y-12813984D01*
X11311867Y-12813984D02*
X11264248Y-12813984D01*
X11264248Y-12813984D02*
X11245201Y-12804460D01*
X11245201Y-12804460D02*
X11235677Y-12785412D01*
X11235677Y-12785412D02*
X11235677Y-12766365D01*
X11235677Y-12766365D02*
X11245201Y-12747317D01*
X11245201Y-12747317D02*
X11264248Y-12737793D01*
X11264248Y-12737793D02*
X11311867Y-12737793D01*
X11311867Y-12737793D02*
X11330915Y-12728269D01*
X11426153Y-12680650D02*
X11426153Y-12880650D01*
X11426153Y-12690174D02*
X11445201Y-12680650D01*
X11445201Y-12680650D02*
X11483296Y-12680650D01*
X11483296Y-12680650D02*
X11502343Y-12690174D01*
X11502343Y-12690174D02*
X11511867Y-12699698D01*
X11511867Y-12699698D02*
X11521391Y-12718746D01*
X11521391Y-12718746D02*
X11521391Y-12775888D01*
X11521391Y-12775888D02*
X11511867Y-12794936D01*
X11511867Y-12794936D02*
X11502343Y-12804460D01*
X11502343Y-12804460D02*
X11483296Y-12813984D01*
X11483296Y-12813984D02*
X11445201Y-12813984D01*
X11445201Y-12813984D02*
X11426153Y-12804460D01*
X11607105Y-12794936D02*
X11616629Y-12804460D01*
X11616629Y-12804460D02*
X11607105Y-12813984D01*
X11607105Y-12813984D02*
X11597582Y-12804460D01*
X11597582Y-12804460D02*
X11607105Y-12794936D01*
X11607105Y-12794936D02*
X11607105Y-12813984D01*
X11607105Y-12690174D02*
X11616629Y-12699698D01*
X11616629Y-12699698D02*
X11607105Y-12709222D01*
X11607105Y-12709222D02*
X11597582Y-12699698D01*
X11597582Y-12699698D02*
X11607105Y-12690174D01*
X11607105Y-12690174D02*
X11607105Y-12709222D01*
X9774900Y-13042500D02*
X9974900Y-13242500D01*
X9974900Y-13042500D02*
X9774900Y-13242500D01*
X10226153Y-13053031D02*
X10235677Y-13043508D01*
X10235677Y-13043508D02*
X10254724Y-13033984D01*
X10254724Y-13033984D02*
X10302344Y-13033984D01*
X10302344Y-13033984D02*
X10321391Y-13043508D01*
X10321391Y-13043508D02*
X10330915Y-13053031D01*
X10330915Y-13053031D02*
X10340439Y-13072079D01*
X10340439Y-13072079D02*
X10340439Y-13091127D01*
X10340439Y-13091127D02*
X10330915Y-13119698D01*
X10330915Y-13119698D02*
X10216629Y-13233984D01*
X10216629Y-13233984D02*
X10340439Y-13233984D01*
X10426153Y-13214936D02*
X10435677Y-13224460D01*
X10435677Y-13224460D02*
X10426153Y-13233984D01*
X10426153Y-13233984D02*
X10416629Y-13224460D01*
X10416629Y-13224460D02*
X10426153Y-13214936D01*
X10426153Y-13214936D02*
X10426153Y-13233984D01*
X10559486Y-13033984D02*
X10578534Y-13033984D01*
X10578534Y-13033984D02*
X10597582Y-13043508D01*
X10597582Y-13043508D02*
X10607105Y-13053031D01*
X10607105Y-13053031D02*
X10616629Y-13072079D01*
X10616629Y-13072079D02*
X10626153Y-13110174D01*
X10626153Y-13110174D02*
X10626153Y-13157793D01*
X10626153Y-13157793D02*
X10616629Y-13195888D01*
X10616629Y-13195888D02*
X10607105Y-13214936D01*
X10607105Y-13214936D02*
X10597582Y-13224460D01*
X10597582Y-13224460D02*
X10578534Y-13233984D01*
X10578534Y-13233984D02*
X10559486Y-13233984D01*
X10559486Y-13233984D02*
X10540439Y-13224460D01*
X10540439Y-13224460D02*
X10530915Y-13214936D01*
X10530915Y-13214936D02*
X10521391Y-13195888D01*
X10521391Y-13195888D02*
X10511867Y-13157793D01*
X10511867Y-13157793D02*
X10511867Y-13110174D01*
X10511867Y-13110174D02*
X10521391Y-13072079D01*
X10521391Y-13072079D02*
X10530915Y-13053031D01*
X10530915Y-13053031D02*
X10540439Y-13043508D01*
X10540439Y-13043508D02*
X10559486Y-13033984D01*
X10749963Y-13033984D02*
X10769010Y-13033984D01*
X10769010Y-13033984D02*
X10788058Y-13043508D01*
X10788058Y-13043508D02*
X10797582Y-13053031D01*
X10797582Y-13053031D02*
X10807105Y-13072079D01*
X10807105Y-13072079D02*
X10816629Y-13110174D01*
X10816629Y-13110174D02*
X10816629Y-13157793D01*
X10816629Y-13157793D02*
X10807105Y-13195888D01*
X10807105Y-13195888D02*
X10797582Y-13214936D01*
X10797582Y-13214936D02*
X10788058Y-13224460D01*
X10788058Y-13224460D02*
X10769010Y-13233984D01*
X10769010Y-13233984D02*
X10749963Y-13233984D01*
X10749963Y-13233984D02*
X10730915Y-13224460D01*
X10730915Y-13224460D02*
X10721391Y-13214936D01*
X10721391Y-13214936D02*
X10711867Y-13195888D01*
X10711867Y-13195888D02*
X10702344Y-13157793D01*
X10702344Y-13157793D02*
X10702344Y-13110174D01*
X10702344Y-13110174D02*
X10711867Y-13072079D01*
X10711867Y-13072079D02*
X10721391Y-13053031D01*
X10721391Y-13053031D02*
X10730915Y-13043508D01*
X10730915Y-13043508D02*
X10749963Y-13033984D01*
X10940439Y-13033984D02*
X10959486Y-13033984D01*
X10959486Y-13033984D02*
X10978534Y-13043508D01*
X10978534Y-13043508D02*
X10988058Y-13053031D01*
X10988058Y-13053031D02*
X10997582Y-13072079D01*
X10997582Y-13072079D02*
X11007105Y-13110174D01*
X11007105Y-13110174D02*
X11007105Y-13157793D01*
X11007105Y-13157793D02*
X10997582Y-13195888D01*
X10997582Y-13195888D02*
X10988058Y-13214936D01*
X10988058Y-13214936D02*
X10978534Y-13224460D01*
X10978534Y-13224460D02*
X10959486Y-13233984D01*
X10959486Y-13233984D02*
X10940439Y-13233984D01*
X10940439Y-13233984D02*
X10921391Y-13224460D01*
X10921391Y-13224460D02*
X10911867Y-13214936D01*
X10911867Y-13214936D02*
X10902344Y-13195888D01*
X10902344Y-13195888D02*
X10892820Y-13157793D01*
X10892820Y-13157793D02*
X10892820Y-13110174D01*
X10892820Y-13110174D02*
X10902344Y-13072079D01*
X10902344Y-13072079D02*
X10911867Y-13053031D01*
X10911867Y-13053031D02*
X10921391Y-13043508D01*
X10921391Y-13043508D02*
X10940439Y-13033984D01*
X11092820Y-13233984D02*
X11092820Y-13100650D01*
X11092820Y-13119698D02*
X11102344Y-13110174D01*
X11102344Y-13110174D02*
X11121391Y-13100650D01*
X11121391Y-13100650D02*
X11149963Y-13100650D01*
X11149963Y-13100650D02*
X11169010Y-13110174D01*
X11169010Y-13110174D02*
X11178534Y-13129222D01*
X11178534Y-13129222D02*
X11178534Y-13233984D01*
X11178534Y-13129222D02*
X11188058Y-13110174D01*
X11188058Y-13110174D02*
X11207105Y-13100650D01*
X11207105Y-13100650D02*
X11235677Y-13100650D01*
X11235677Y-13100650D02*
X11254724Y-13110174D01*
X11254724Y-13110174D02*
X11264248Y-13129222D01*
X11264248Y-13129222D02*
X11264248Y-13233984D01*
X11359486Y-13233984D02*
X11359486Y-13100650D01*
X11359486Y-13119698D02*
X11369010Y-13110174D01*
X11369010Y-13110174D02*
X11388058Y-13100650D01*
X11388058Y-13100650D02*
X11416629Y-13100650D01*
X11416629Y-13100650D02*
X11435677Y-13110174D01*
X11435677Y-13110174D02*
X11445201Y-13129222D01*
X11445201Y-13129222D02*
X11445201Y-13233984D01*
X11445201Y-13129222D02*
X11454724Y-13110174D01*
X11454724Y-13110174D02*
X11473772Y-13100650D01*
X11473772Y-13100650D02*
X11502343Y-13100650D01*
X11502343Y-13100650D02*
X11521391Y-13110174D01*
X11521391Y-13110174D02*
X11530915Y-13129222D01*
X11530915Y-13129222D02*
X11530915Y-13233984D01*
X11921391Y-13024460D02*
X11749963Y-13281603D01*
X12178534Y-13033984D02*
X12197582Y-13033984D01*
X12197582Y-13033984D02*
X12216629Y-13043508D01*
X12216629Y-13043508D02*
X12226153Y-13053031D01*
X12226153Y-13053031D02*
X12235677Y-13072079D01*
X12235677Y-13072079D02*
X12245201Y-13110174D01*
X12245201Y-13110174D02*
X12245201Y-13157793D01*
X12245201Y-13157793D02*
X12235677Y-13195888D01*
X12235677Y-13195888D02*
X12226153Y-13214936D01*
X12226153Y-13214936D02*
X12216629Y-13224460D01*
X12216629Y-13224460D02*
X12197582Y-13233984D01*
X12197582Y-13233984D02*
X12178534Y-13233984D01*
X12178534Y-13233984D02*
X12159486Y-13224460D01*
X12159486Y-13224460D02*
X12149963Y-13214936D01*
X12149963Y-13214936D02*
X12140439Y-13195888D01*
X12140439Y-13195888D02*
X12130915Y-13157793D01*
X12130915Y-13157793D02*
X12130915Y-13110174D01*
X12130915Y-13110174D02*
X12140439Y-13072079D01*
X12140439Y-13072079D02*
X12149963Y-13053031D01*
X12149963Y-13053031D02*
X12159486Y-13043508D01*
X12159486Y-13043508D02*
X12178534Y-13033984D01*
X12330915Y-13214936D02*
X12340439Y-13224460D01*
X12340439Y-13224460D02*
X12330915Y-13233984D01*
X12330915Y-13233984D02*
X12321391Y-13224460D01*
X12321391Y-13224460D02*
X12330915Y-13214936D01*
X12330915Y-13214936D02*
X12330915Y-13233984D01*
X12464248Y-13033984D02*
X12483296Y-13033984D01*
X12483296Y-13033984D02*
X12502344Y-13043508D01*
X12502344Y-13043508D02*
X12511867Y-13053031D01*
X12511867Y-13053031D02*
X12521391Y-13072079D01*
X12521391Y-13072079D02*
X12530915Y-13110174D01*
X12530915Y-13110174D02*
X12530915Y-13157793D01*
X12530915Y-13157793D02*
X12521391Y-13195888D01*
X12521391Y-13195888D02*
X12511867Y-13214936D01*
X12511867Y-13214936D02*
X12502344Y-13224460D01*
X12502344Y-13224460D02*
X12483296Y-13233984D01*
X12483296Y-13233984D02*
X12464248Y-13233984D01*
X12464248Y-13233984D02*
X12445201Y-13224460D01*
X12445201Y-13224460D02*
X12435677Y-13214936D01*
X12435677Y-13214936D02*
X12426153Y-13195888D01*
X12426153Y-13195888D02*
X12416629Y-13157793D01*
X12416629Y-13157793D02*
X12416629Y-13110174D01*
X12416629Y-13110174D02*
X12426153Y-13072079D01*
X12426153Y-13072079D02*
X12435677Y-13053031D01*
X12435677Y-13053031D02*
X12445201Y-13043508D01*
X12445201Y-13043508D02*
X12464248Y-13033984D01*
X12597582Y-13033984D02*
X12730915Y-13033984D01*
X12730915Y-13033984D02*
X12645201Y-13233984D01*
X12835677Y-13119698D02*
X12816629Y-13110174D01*
X12816629Y-13110174D02*
X12807106Y-13100650D01*
X12807106Y-13100650D02*
X12797582Y-13081603D01*
X12797582Y-13081603D02*
X12797582Y-13072079D01*
X12797582Y-13072079D02*
X12807106Y-13053031D01*
X12807106Y-13053031D02*
X12816629Y-13043508D01*
X12816629Y-13043508D02*
X12835677Y-13033984D01*
X12835677Y-13033984D02*
X12873772Y-13033984D01*
X12873772Y-13033984D02*
X12892820Y-13043508D01*
X12892820Y-13043508D02*
X12902344Y-13053031D01*
X12902344Y-13053031D02*
X12911867Y-13072079D01*
X12911867Y-13072079D02*
X12911867Y-13081603D01*
X12911867Y-13081603D02*
X12902344Y-13100650D01*
X12902344Y-13100650D02*
X12892820Y-13110174D01*
X12892820Y-13110174D02*
X12873772Y-13119698D01*
X12873772Y-13119698D02*
X12835677Y-13119698D01*
X12835677Y-13119698D02*
X12816629Y-13129222D01*
X12816629Y-13129222D02*
X12807106Y-13138746D01*
X12807106Y-13138746D02*
X12797582Y-13157793D01*
X12797582Y-13157793D02*
X12797582Y-13195888D01*
X12797582Y-13195888D02*
X12807106Y-13214936D01*
X12807106Y-13214936D02*
X12816629Y-13224460D01*
X12816629Y-13224460D02*
X12835677Y-13233984D01*
X12835677Y-13233984D02*
X12873772Y-13233984D01*
X12873772Y-13233984D02*
X12892820Y-13224460D01*
X12892820Y-13224460D02*
X12902344Y-13214936D01*
X12902344Y-13214936D02*
X12911867Y-13195888D01*
X12911867Y-13195888D02*
X12911867Y-13157793D01*
X12911867Y-13157793D02*
X12902344Y-13138746D01*
X12902344Y-13138746D02*
X12892820Y-13129222D01*
X12892820Y-13129222D02*
X12873772Y-13119698D01*
X12978534Y-13033984D02*
X13111867Y-13033984D01*
X13111867Y-13033984D02*
X13026153Y-13233984D01*
X13178534Y-13033984D02*
X13178534Y-13072079D01*
X13254725Y-13033984D02*
X13254725Y-13072079D01*
X13549963Y-13310174D02*
X13540439Y-13300650D01*
X13540439Y-13300650D02*
X13521391Y-13272079D01*
X13521391Y-13272079D02*
X13511868Y-13253031D01*
X13511868Y-13253031D02*
X13502344Y-13224460D01*
X13502344Y-13224460D02*
X13492820Y-13176841D01*
X13492820Y-13176841D02*
X13492820Y-13138746D01*
X13492820Y-13138746D02*
X13502344Y-13091127D01*
X13502344Y-13091127D02*
X13511868Y-13062555D01*
X13511868Y-13062555D02*
X13521391Y-13043508D01*
X13521391Y-13043508D02*
X13540439Y-13014936D01*
X13540439Y-13014936D02*
X13549963Y-13005412D01*
X13730915Y-13233984D02*
X13616629Y-13233984D01*
X13673772Y-13233984D02*
X13673772Y-13033984D01*
X13673772Y-13033984D02*
X13654725Y-13062555D01*
X13654725Y-13062555D02*
X13635677Y-13081603D01*
X13635677Y-13081603D02*
X13616629Y-13091127D01*
X13969010Y-13233984D02*
X13969010Y-13033984D01*
X14054725Y-13233984D02*
X14054725Y-13129222D01*
X14054725Y-13129222D02*
X14045201Y-13110174D01*
X14045201Y-13110174D02*
X14026153Y-13100650D01*
X14026153Y-13100650D02*
X13997582Y-13100650D01*
X13997582Y-13100650D02*
X13978534Y-13110174D01*
X13978534Y-13110174D02*
X13969010Y-13119698D01*
X14178534Y-13233984D02*
X14159487Y-13224460D01*
X14159487Y-13224460D02*
X14149963Y-13214936D01*
X14149963Y-13214936D02*
X14140439Y-13195888D01*
X14140439Y-13195888D02*
X14140439Y-13138746D01*
X14140439Y-13138746D02*
X14149963Y-13119698D01*
X14149963Y-13119698D02*
X14159487Y-13110174D01*
X14159487Y-13110174D02*
X14178534Y-13100650D01*
X14178534Y-13100650D02*
X14207106Y-13100650D01*
X14207106Y-13100650D02*
X14226153Y-13110174D01*
X14226153Y-13110174D02*
X14235677Y-13119698D01*
X14235677Y-13119698D02*
X14245201Y-13138746D01*
X14245201Y-13138746D02*
X14245201Y-13195888D01*
X14245201Y-13195888D02*
X14235677Y-13214936D01*
X14235677Y-13214936D02*
X14226153Y-13224460D01*
X14226153Y-13224460D02*
X14207106Y-13233984D01*
X14207106Y-13233984D02*
X14178534Y-13233984D01*
X14359487Y-13233984D02*
X14340439Y-13224460D01*
X14340439Y-13224460D02*
X14330915Y-13205412D01*
X14330915Y-13205412D02*
X14330915Y-13033984D01*
X14511868Y-13224460D02*
X14492820Y-13233984D01*
X14492820Y-13233984D02*
X14454725Y-13233984D01*
X14454725Y-13233984D02*
X14435677Y-13224460D01*
X14435677Y-13224460D02*
X14426153Y-13205412D01*
X14426153Y-13205412D02*
X14426153Y-13129222D01*
X14426153Y-13129222D02*
X14435677Y-13110174D01*
X14435677Y-13110174D02*
X14454725Y-13100650D01*
X14454725Y-13100650D02*
X14492820Y-13100650D01*
X14492820Y-13100650D02*
X14511868Y-13110174D01*
X14511868Y-13110174D02*
X14521391Y-13129222D01*
X14521391Y-13129222D02*
X14521391Y-13148269D01*
X14521391Y-13148269D02*
X14426153Y-13167317D01*
X14588058Y-13310174D02*
X14597582Y-13300650D01*
X14597582Y-13300650D02*
X14616630Y-13272079D01*
X14616630Y-13272079D02*
X14626153Y-13253031D01*
X14626153Y-13253031D02*
X14635677Y-13224460D01*
X14635677Y-13224460D02*
X14645201Y-13176841D01*
X14645201Y-13176841D02*
X14645201Y-13138746D01*
X14645201Y-13138746D02*
X14635677Y-13091127D01*
X14635677Y-13091127D02*
X14626153Y-13062555D01*
X14626153Y-13062555D02*
X14616630Y-13043508D01*
X14616630Y-13043508D02*
X14597582Y-13014936D01*
X14597582Y-13014936D02*
X14588058Y-13005412D01*
X14949963Y-13310174D02*
X14940439Y-13300650D01*
X14940439Y-13300650D02*
X14921391Y-13272079D01*
X14921391Y-13272079D02*
X14911868Y-13253031D01*
X14911868Y-13253031D02*
X14902344Y-13224460D01*
X14902344Y-13224460D02*
X14892820Y-13176841D01*
X14892820Y-13176841D02*
X14892820Y-13138746D01*
X14892820Y-13138746D02*
X14902344Y-13091127D01*
X14902344Y-13091127D02*
X14911868Y-13062555D01*
X14911868Y-13062555D02*
X14921391Y-13043508D01*
X14921391Y-13043508D02*
X14940439Y-13014936D01*
X14940439Y-13014936D02*
X14949963Y-13005412D01*
X15026153Y-13100650D02*
X15026153Y-13233984D01*
X15026153Y-13119698D02*
X15035677Y-13110174D01*
X15035677Y-13110174D02*
X15054725Y-13100650D01*
X15054725Y-13100650D02*
X15083296Y-13100650D01*
X15083296Y-13100650D02*
X15102344Y-13110174D01*
X15102344Y-13110174D02*
X15111868Y-13129222D01*
X15111868Y-13129222D02*
X15111868Y-13233984D01*
X15235677Y-13233984D02*
X15216630Y-13224460D01*
X15216630Y-13224460D02*
X15207106Y-13214936D01*
X15207106Y-13214936D02*
X15197582Y-13195888D01*
X15197582Y-13195888D02*
X15197582Y-13138746D01*
X15197582Y-13138746D02*
X15207106Y-13119698D01*
X15207106Y-13119698D02*
X15216630Y-13110174D01*
X15216630Y-13110174D02*
X15235677Y-13100650D01*
X15235677Y-13100650D02*
X15264249Y-13100650D01*
X15264249Y-13100650D02*
X15283296Y-13110174D01*
X15283296Y-13110174D02*
X15292820Y-13119698D01*
X15292820Y-13119698D02*
X15302344Y-13138746D01*
X15302344Y-13138746D02*
X15302344Y-13195888D01*
X15302344Y-13195888D02*
X15292820Y-13214936D01*
X15292820Y-13214936D02*
X15283296Y-13224460D01*
X15283296Y-13224460D02*
X15264249Y-13233984D01*
X15264249Y-13233984D02*
X15235677Y-13233984D01*
X15359487Y-13100650D02*
X15435677Y-13100650D01*
X15388058Y-13033984D02*
X15388058Y-13205412D01*
X15388058Y-13205412D02*
X15397582Y-13224460D01*
X15397582Y-13224460D02*
X15416630Y-13233984D01*
X15416630Y-13233984D02*
X15435677Y-13233984D01*
X15654725Y-13100650D02*
X15654725Y-13300650D01*
X15654725Y-13110174D02*
X15673772Y-13100650D01*
X15673772Y-13100650D02*
X15711868Y-13100650D01*
X15711868Y-13100650D02*
X15730915Y-13110174D01*
X15730915Y-13110174D02*
X15740439Y-13119698D01*
X15740439Y-13119698D02*
X15749963Y-13138746D01*
X15749963Y-13138746D02*
X15749963Y-13195888D01*
X15749963Y-13195888D02*
X15740439Y-13214936D01*
X15740439Y-13214936D02*
X15730915Y-13224460D01*
X15730915Y-13224460D02*
X15711868Y-13233984D01*
X15711868Y-13233984D02*
X15673772Y-13233984D01*
X15673772Y-13233984D02*
X15654725Y-13224460D01*
X15864249Y-13233984D02*
X15845201Y-13224460D01*
X15845201Y-13224460D02*
X15835677Y-13205412D01*
X15835677Y-13205412D02*
X15835677Y-13033984D01*
X16026153Y-13233984D02*
X16026153Y-13129222D01*
X16026153Y-13129222D02*
X16016630Y-13110174D01*
X16016630Y-13110174D02*
X15997582Y-13100650D01*
X15997582Y-13100650D02*
X15959487Y-13100650D01*
X15959487Y-13100650D02*
X15940439Y-13110174D01*
X16026153Y-13224460D02*
X16007106Y-13233984D01*
X16007106Y-13233984D02*
X15959487Y-13233984D01*
X15959487Y-13233984D02*
X15940439Y-13224460D01*
X15940439Y-13224460D02*
X15930915Y-13205412D01*
X15930915Y-13205412D02*
X15930915Y-13186365D01*
X15930915Y-13186365D02*
X15940439Y-13167317D01*
X15940439Y-13167317D02*
X15959487Y-13157793D01*
X15959487Y-13157793D02*
X16007106Y-13157793D01*
X16007106Y-13157793D02*
X16026153Y-13148269D01*
X16092820Y-13100650D02*
X16169011Y-13100650D01*
X16121392Y-13033984D02*
X16121392Y-13205412D01*
X16121392Y-13205412D02*
X16130915Y-13224460D01*
X16130915Y-13224460D02*
X16149963Y-13233984D01*
X16149963Y-13233984D02*
X16169011Y-13233984D01*
X16311868Y-13224460D02*
X16292820Y-13233984D01*
X16292820Y-13233984D02*
X16254725Y-13233984D01*
X16254725Y-13233984D02*
X16235677Y-13224460D01*
X16235677Y-13224460D02*
X16226153Y-13205412D01*
X16226153Y-13205412D02*
X16226153Y-13129222D01*
X16226153Y-13129222D02*
X16235677Y-13110174D01*
X16235677Y-13110174D02*
X16254725Y-13100650D01*
X16254725Y-13100650D02*
X16292820Y-13100650D01*
X16292820Y-13100650D02*
X16311868Y-13110174D01*
X16311868Y-13110174D02*
X16321392Y-13129222D01*
X16321392Y-13129222D02*
X16321392Y-13148269D01*
X16321392Y-13148269D02*
X16226153Y-13167317D01*
X16492820Y-13233984D02*
X16492820Y-13033984D01*
X16492820Y-13224460D02*
X16473773Y-13233984D01*
X16473773Y-13233984D02*
X16435677Y-13233984D01*
X16435677Y-13233984D02*
X16416630Y-13224460D01*
X16416630Y-13224460D02*
X16407106Y-13214936D01*
X16407106Y-13214936D02*
X16397582Y-13195888D01*
X16397582Y-13195888D02*
X16397582Y-13138746D01*
X16397582Y-13138746D02*
X16407106Y-13119698D01*
X16407106Y-13119698D02*
X16416630Y-13110174D01*
X16416630Y-13110174D02*
X16435677Y-13100650D01*
X16435677Y-13100650D02*
X16473773Y-13100650D01*
X16473773Y-13100650D02*
X16492820Y-13110174D01*
X16569011Y-13310174D02*
X16578534Y-13300650D01*
X16578534Y-13300650D02*
X16597582Y-13272079D01*
X16597582Y-13272079D02*
X16607106Y-13253031D01*
X16607106Y-13253031D02*
X16616630Y-13224460D01*
X16616630Y-13224460D02*
X16626153Y-13176841D01*
X16626153Y-13176841D02*
X16626153Y-13138746D01*
X16626153Y-13138746D02*
X16616630Y-13091127D01*
X16616630Y-13091127D02*
X16607106Y-13062555D01*
X16607106Y-13062555D02*
X16597582Y-13043508D01*
X16597582Y-13043508D02*
X16578534Y-13014936D01*
X16578534Y-13014936D02*
X16569011Y-13005412D01*
M02*
