G04 #@! TF.GenerationSoftware,KiCad,Pcbnew,7.0.10*
G04 #@! TF.CreationDate,2024-07-28T21:48:16+02:00*
G04 #@! TF.ProjectId,Traffic LED Board,54726166-6669-4632-904c-454420426f61,rev?*
G04 #@! TF.SameCoordinates,Original*
G04 #@! TF.FileFunction,Copper,L2,Bot*
G04 #@! TF.FilePolarity,Positive*
%FSLAX46Y46*%
G04 Gerber Fmt 4.6, Leading zero omitted, Abs format (unit mm)*
G04 Created by KiCad (PCBNEW 7.0.10) date 2024-07-28 21:48:16*
%MOMM*%
%LPD*%
G01*
G04 APERTURE LIST*
G04 #@! TA.AperFunction,ComponentPad*
%ADD10R,1.700000X1.700000*%
G04 #@! TD*
G04 #@! TA.AperFunction,ComponentPad*
%ADD11O,1.700000X1.700000*%
G04 #@! TD*
G04 #@! TA.AperFunction,ComponentPad*
%ADD12C,5.000000*%
G04 #@! TD*
G04 #@! TA.AperFunction,ComponentPad*
%ADD13C,1.600000*%
G04 #@! TD*
G04 #@! TA.AperFunction,ComponentPad*
%ADD14O,1.600000X1.600000*%
G04 #@! TD*
G04 #@! TA.AperFunction,Conductor*
%ADD15C,1.000000*%
G04 #@! TD*
G04 APERTURE END LIST*
D10*
X109474000Y-105918000D03*
D11*
X112014000Y-105918000D03*
X114554000Y-105918000D03*
X117094000Y-105918000D03*
D12*
X109950599Y-120064356D03*
D13*
X103774000Y-112776000D03*
D14*
X103774000Y-102616000D03*
D13*
X122774000Y-112776000D03*
D14*
X122774000Y-102616000D03*
D10*
X117094000Y-103124000D03*
D11*
X114554000Y-103124000D03*
X112014000Y-103124000D03*
X109474000Y-103124000D03*
D12*
X103283933Y-120064356D03*
X123283933Y-120064356D03*
D13*
X108194000Y-109474000D03*
D14*
X118354000Y-109474000D03*
D12*
X116617265Y-120064356D03*
D15*
X115316000Y-101346000D02*
X105044000Y-101346000D01*
X117094000Y-103124000D02*
X115316000Y-101346000D01*
X105044000Y-101346000D02*
X103774000Y-102616000D01*
X116104000Y-107468000D02*
X117922000Y-107468000D01*
X114554000Y-105664000D02*
X112014000Y-103124000D01*
X114554000Y-105918000D02*
X114554000Y-105664000D01*
X117922000Y-107468000D02*
X122774000Y-102616000D01*
X114554000Y-105918000D02*
X116104000Y-107468000D01*
G04 #@! TA.AperFunction,Conductor*
G36*
X104692381Y-100185224D02*
G01*
X104738136Y-100238028D01*
X104748080Y-100307186D01*
X104719055Y-100370742D01*
X104661338Y-100408199D01*
X104658800Y-100408968D01*
X104656191Y-100409760D01*
X104481001Y-100503401D01*
X104480994Y-100503405D01*
X104327431Y-100629432D01*
X104299706Y-100663215D01*
X104291535Y-100672229D01*
X103682368Y-101281396D01*
X103621045Y-101314881D01*
X103605497Y-101317243D01*
X103545916Y-101322456D01*
X103545910Y-101322457D01*
X103324761Y-101381714D01*
X103324750Y-101381718D01*
X103117254Y-101478475D01*
X103117252Y-101478476D01*
X103117251Y-101478477D01*
X102929700Y-101609802D01*
X102929698Y-101609803D01*
X102929695Y-101609806D01*
X102767806Y-101771695D01*
X102767803Y-101771698D01*
X102767802Y-101771700D01*
X102731804Y-101823111D01*
X102636476Y-101959252D01*
X102636475Y-101959254D01*
X102539718Y-102166750D01*
X102539714Y-102166761D01*
X102480457Y-102387910D01*
X102480456Y-102387918D01*
X102460502Y-102615998D01*
X102460502Y-102616001D01*
X102480456Y-102844081D01*
X102480457Y-102844089D01*
X102539714Y-103065238D01*
X102539718Y-103065249D01*
X102625869Y-103250000D01*
X102636477Y-103272749D01*
X102767802Y-103460300D01*
X102929700Y-103622198D01*
X103117251Y-103753523D01*
X103158572Y-103772791D01*
X103324750Y-103850281D01*
X103324752Y-103850281D01*
X103324757Y-103850284D01*
X103545913Y-103909543D01*
X103708832Y-103923796D01*
X103773998Y-103929498D01*
X103774000Y-103929498D01*
X103774002Y-103929498D01*
X103831021Y-103924509D01*
X104002087Y-103909543D01*
X104223243Y-103850284D01*
X104430749Y-103753523D01*
X104618300Y-103622198D01*
X104780198Y-103460300D01*
X104911523Y-103272749D01*
X105008284Y-103065243D01*
X105067543Y-102844087D01*
X105072755Y-102784503D01*
X105098207Y-102719436D01*
X105108586Y-102707646D01*
X105425416Y-102390816D01*
X105486738Y-102357334D01*
X105513096Y-102354500D01*
X108148623Y-102354500D01*
X108215662Y-102374185D01*
X108261417Y-102426989D01*
X108271361Y-102496147D01*
X108261005Y-102530905D01*
X108200569Y-102660507D01*
X108200567Y-102660513D01*
X108143364Y-102873999D01*
X108143364Y-102874000D01*
X109040314Y-102874000D01*
X109014507Y-102914156D01*
X108974000Y-103052111D01*
X108974000Y-103195889D01*
X109014507Y-103333844D01*
X109040314Y-103374000D01*
X108143364Y-103374000D01*
X108200567Y-103587486D01*
X108200570Y-103587492D01*
X108300399Y-103801578D01*
X108435894Y-103995082D01*
X108602917Y-104162105D01*
X108796421Y-104297600D01*
X108851145Y-104323118D01*
X108903584Y-104369290D01*
X108922736Y-104436484D01*
X108902520Y-104503365D01*
X108849355Y-104548700D01*
X108798740Y-104559500D01*
X108575345Y-104559500D01*
X108514797Y-104566011D01*
X108514795Y-104566011D01*
X108377795Y-104617111D01*
X108260739Y-104704739D01*
X108173111Y-104821795D01*
X108122011Y-104958795D01*
X108122011Y-104958797D01*
X108115500Y-105019345D01*
X108115500Y-106816654D01*
X108122011Y-106877202D01*
X108122011Y-106877204D01*
X108173111Y-107014204D01*
X108260739Y-107131261D01*
X108377796Y-107218889D01*
X108514799Y-107269989D01*
X108542050Y-107272918D01*
X108575345Y-107276499D01*
X108575362Y-107276500D01*
X110372638Y-107276500D01*
X110372654Y-107276499D01*
X110399692Y-107273591D01*
X110433201Y-107269989D01*
X110570204Y-107218889D01*
X110687261Y-107131261D01*
X110774889Y-107014204D01*
X110820138Y-106892887D01*
X110862009Y-106836956D01*
X110927474Y-106812539D01*
X110995746Y-106827391D01*
X111027545Y-106852236D01*
X111090760Y-106920906D01*
X111268424Y-107059189D01*
X111268425Y-107059189D01*
X111268427Y-107059191D01*
X111395135Y-107127761D01*
X111466426Y-107166342D01*
X111679365Y-107239444D01*
X111901431Y-107276500D01*
X112126569Y-107276500D01*
X112348635Y-107239444D01*
X112561574Y-107166342D01*
X112759576Y-107059189D01*
X112937240Y-106920906D01*
X113089722Y-106755268D01*
X113180193Y-106616790D01*
X113233338Y-106571437D01*
X113302569Y-106562013D01*
X113365905Y-106591515D01*
X113387804Y-106616787D01*
X113478278Y-106755268D01*
X113478283Y-106755273D01*
X113478284Y-106755276D01*
X113604968Y-106892889D01*
X113630760Y-106920906D01*
X113808424Y-107059189D01*
X113808425Y-107059189D01*
X113808427Y-107059191D01*
X113935135Y-107127761D01*
X114006426Y-107166342D01*
X114219365Y-107239444D01*
X114441431Y-107276500D01*
X114441441Y-107276500D01*
X114445008Y-107276796D01*
X114446382Y-107277326D01*
X114446489Y-107277344D01*
X114446485Y-107277365D01*
X114510194Y-107301944D01*
X114522458Y-107312692D01*
X115351534Y-108141768D01*
X115359706Y-108150784D01*
X115384057Y-108180456D01*
X115387432Y-108184568D01*
X115540994Y-108310594D01*
X115541001Y-108310598D01*
X115589414Y-108336475D01*
X115716196Y-108404241D01*
X115906299Y-108461909D01*
X116104000Y-108481380D01*
X116144490Y-108477392D01*
X116147489Y-108477097D01*
X116159642Y-108476500D01*
X117216872Y-108476500D01*
X117283911Y-108496185D01*
X117329666Y-108548989D01*
X117339610Y-108618147D01*
X117318447Y-108671622D01*
X117251031Y-108767902D01*
X117216476Y-108817252D01*
X117216475Y-108817254D01*
X117119718Y-109024750D01*
X117119714Y-109024761D01*
X117060457Y-109245910D01*
X117060456Y-109245918D01*
X117040502Y-109473998D01*
X117040502Y-109474001D01*
X117060456Y-109702081D01*
X117060457Y-109702089D01*
X117119714Y-109923238D01*
X117119718Y-109923249D01*
X117216475Y-110130745D01*
X117216477Y-110130749D01*
X117347802Y-110318300D01*
X117509700Y-110480198D01*
X117697251Y-110611523D01*
X117822091Y-110669736D01*
X117904750Y-110708281D01*
X117904752Y-110708281D01*
X117904757Y-110708284D01*
X118125913Y-110767543D01*
X118288832Y-110781796D01*
X118353998Y-110787498D01*
X118354000Y-110787498D01*
X118354002Y-110787498D01*
X118411021Y-110782509D01*
X118582087Y-110767543D01*
X118803243Y-110708284D01*
X119010749Y-110611523D01*
X119198300Y-110480198D01*
X119360198Y-110318300D01*
X119491523Y-110130749D01*
X119588284Y-109923243D01*
X119647543Y-109702087D01*
X119667498Y-109474000D01*
X119647543Y-109245913D01*
X119588284Y-109024757D01*
X119491523Y-108817251D01*
X119360198Y-108629700D01*
X119198300Y-108467802D01*
X119010749Y-108336477D01*
X118955242Y-108310594D01*
X118809117Y-108242455D01*
X118756677Y-108196283D01*
X118737525Y-108129090D01*
X118757740Y-108062208D01*
X118773835Y-108042397D01*
X122865632Y-103950600D01*
X122926953Y-103917117D01*
X122942496Y-103914756D01*
X123002087Y-103909543D01*
X123223243Y-103850284D01*
X123430749Y-103753523D01*
X123618300Y-103622198D01*
X123780198Y-103460300D01*
X123911523Y-103272749D01*
X124008284Y-103065243D01*
X124067543Y-102844087D01*
X124087498Y-102616000D01*
X124067543Y-102387913D01*
X124008284Y-102166757D01*
X123911523Y-101959251D01*
X123780198Y-101771700D01*
X123618300Y-101609802D01*
X123430749Y-101478477D01*
X123430745Y-101478475D01*
X123223249Y-101381718D01*
X123223238Y-101381714D01*
X123002089Y-101322457D01*
X123002081Y-101322456D01*
X122774002Y-101302502D01*
X122773998Y-101302502D01*
X122545918Y-101322456D01*
X122545910Y-101322457D01*
X122324761Y-101381714D01*
X122324750Y-101381718D01*
X122117254Y-101478475D01*
X122117252Y-101478476D01*
X122117251Y-101478477D01*
X121929700Y-101609802D01*
X121929698Y-101609803D01*
X121929695Y-101609806D01*
X121767806Y-101771695D01*
X121767803Y-101771698D01*
X121767802Y-101771700D01*
X121731804Y-101823111D01*
X121636476Y-101959252D01*
X121636475Y-101959254D01*
X121539718Y-102166750D01*
X121539714Y-102166761D01*
X121480457Y-102387910D01*
X121480456Y-102387916D01*
X121475243Y-102447497D01*
X121449789Y-102512565D01*
X121439396Y-102524368D01*
X118537754Y-105426010D01*
X118476431Y-105459495D01*
X118406739Y-105454511D01*
X118350806Y-105412639D01*
X118337691Y-105390733D01*
X118267602Y-105240426D01*
X118267599Y-105240420D01*
X118132113Y-105046926D01*
X118132108Y-105046920D01*
X117965082Y-104879894D01*
X117771578Y-104744399D01*
X117716855Y-104718882D01*
X117664416Y-104672710D01*
X117645264Y-104605516D01*
X117665480Y-104538635D01*
X117718645Y-104493300D01*
X117769260Y-104482500D01*
X117992638Y-104482500D01*
X117992654Y-104482499D01*
X118019692Y-104479591D01*
X118053201Y-104475989D01*
X118190204Y-104424889D01*
X118307261Y-104337261D01*
X118394889Y-104220204D01*
X118445989Y-104083201D01*
X118449591Y-104049692D01*
X118452499Y-104022654D01*
X118452500Y-104022637D01*
X118452500Y-102225362D01*
X118452499Y-102225345D01*
X118449157Y-102194270D01*
X118445989Y-102164799D01*
X118394889Y-102027796D01*
X118307261Y-101910739D01*
X118190204Y-101823111D01*
X118053203Y-101772011D01*
X117992654Y-101765500D01*
X117992638Y-101765500D01*
X117213096Y-101765500D01*
X117146057Y-101745815D01*
X117125415Y-101729181D01*
X116068464Y-100672230D01*
X116060291Y-100663213D01*
X116032567Y-100629430D01*
X115879005Y-100503405D01*
X115878998Y-100503401D01*
X115703808Y-100409760D01*
X115702329Y-100409311D01*
X115698661Y-100408199D01*
X115640224Y-100369902D01*
X115611768Y-100306090D01*
X115622328Y-100237023D01*
X115668552Y-100184629D01*
X115734658Y-100165539D01*
X126484461Y-100165539D01*
X126551500Y-100185224D01*
X126597255Y-100238028D01*
X126608461Y-100289539D01*
X126608461Y-124710461D01*
X126588776Y-124777500D01*
X126535972Y-124823255D01*
X126484461Y-124834461D01*
X100063539Y-124834461D01*
X99996500Y-124814776D01*
X99950745Y-124761972D01*
X99939539Y-124710461D01*
X99939539Y-120064359D01*
X100270334Y-120064359D01*
X100290711Y-120414213D01*
X100290712Y-120414224D01*
X100351563Y-120759331D01*
X100351565Y-120759338D01*
X100452076Y-121095069D01*
X100590879Y-121416848D01*
X100590885Y-121416861D01*
X100766108Y-121720357D01*
X100975378Y-122001456D01*
X100975383Y-122001462D01*
X100978394Y-122004653D01*
X101215876Y-122256368D01*
X101215882Y-122256373D01*
X101215884Y-122256375D01*
X101476197Y-122474805D01*
X101484336Y-122481634D01*
X101777133Y-122674209D01*
X102090307Y-122831491D01*
X102419623Y-122951352D01*
X102419629Y-122951353D01*
X102419631Y-122951354D01*
X102760611Y-123032169D01*
X102760618Y-123032170D01*
X102760627Y-123032172D01*
X103108708Y-123072856D01*
X103108715Y-123072856D01*
X103459151Y-123072856D01*
X103459158Y-123072856D01*
X103807239Y-123032172D01*
X103807248Y-123032169D01*
X103807254Y-123032169D01*
X104082304Y-122966979D01*
X104148243Y-122951352D01*
X104477559Y-122831491D01*
X104790733Y-122674209D01*
X105083530Y-122481634D01*
X105351990Y-122256368D01*
X105592484Y-122001460D01*
X105801758Y-121720356D01*
X105976983Y-121416857D01*
X106115790Y-121095068D01*
X106216300Y-120759340D01*
X106216650Y-120757358D01*
X106277153Y-120414224D01*
X106277152Y-120414224D01*
X106277155Y-120414213D01*
X106297532Y-120064359D01*
X106937000Y-120064359D01*
X106957377Y-120414213D01*
X106957378Y-120414224D01*
X107018229Y-120759331D01*
X107018231Y-120759338D01*
X107118742Y-121095069D01*
X107257545Y-121416848D01*
X107257551Y-121416861D01*
X107432774Y-121720357D01*
X107642044Y-122001456D01*
X107642049Y-122001462D01*
X107645060Y-122004653D01*
X107882542Y-122256368D01*
X107882548Y-122256373D01*
X107882550Y-122256375D01*
X108142863Y-122474805D01*
X108151002Y-122481634D01*
X108443799Y-122674209D01*
X108756973Y-122831491D01*
X109086289Y-122951352D01*
X109086295Y-122951353D01*
X109086297Y-122951354D01*
X109427277Y-123032169D01*
X109427284Y-123032170D01*
X109427293Y-123032172D01*
X109775374Y-123072856D01*
X109775381Y-123072856D01*
X110125817Y-123072856D01*
X110125824Y-123072856D01*
X110473905Y-123032172D01*
X110473914Y-123032169D01*
X110473920Y-123032169D01*
X110748970Y-122966979D01*
X110814909Y-122951352D01*
X111144225Y-122831491D01*
X111457399Y-122674209D01*
X111750196Y-122481634D01*
X112018656Y-122256368D01*
X112259150Y-122001460D01*
X112468424Y-121720356D01*
X112643649Y-121416857D01*
X112782456Y-121095068D01*
X112882966Y-120759340D01*
X112883316Y-120757358D01*
X112943819Y-120414224D01*
X112943818Y-120414224D01*
X112943821Y-120414213D01*
X112964198Y-120064359D01*
X113603666Y-120064359D01*
X113624043Y-120414213D01*
X113624044Y-120414224D01*
X113684895Y-120759331D01*
X113684897Y-120759338D01*
X113785408Y-121095069D01*
X113924211Y-121416848D01*
X113924217Y-121416861D01*
X114099440Y-121720357D01*
X114308710Y-122001456D01*
X114308715Y-122001462D01*
X114311726Y-122004653D01*
X114549208Y-122256368D01*
X114549214Y-122256373D01*
X114549216Y-122256375D01*
X114809529Y-122474805D01*
X114817668Y-122481634D01*
X115110465Y-122674209D01*
X115423639Y-122831491D01*
X115752955Y-122951352D01*
X115752961Y-122951353D01*
X115752963Y-122951354D01*
X116093943Y-123032169D01*
X116093950Y-123032170D01*
X116093959Y-123032172D01*
X116442040Y-123072856D01*
X116442047Y-123072856D01*
X116792483Y-123072856D01*
X116792490Y-123072856D01*
X117140571Y-123032172D01*
X117140580Y-123032169D01*
X117140586Y-123032169D01*
X117415636Y-122966979D01*
X117481575Y-122951352D01*
X117810891Y-122831491D01*
X118124065Y-122674209D01*
X118416862Y-122481634D01*
X118685322Y-122256368D01*
X118925816Y-122001460D01*
X119135090Y-121720356D01*
X119310315Y-121416857D01*
X119449122Y-121095068D01*
X119549632Y-120759340D01*
X119549982Y-120757358D01*
X119610485Y-120414224D01*
X119610484Y-120414224D01*
X119610487Y-120414213D01*
X119630864Y-120064359D01*
X120278849Y-120064359D01*
X120299168Y-120413225D01*
X120299169Y-120413236D01*
X120359847Y-120757358D01*
X120359849Y-120757367D01*
X120460078Y-121092156D01*
X120598488Y-121413026D01*
X120598494Y-121413039D01*
X120773222Y-121715678D01*
X120981900Y-121995981D01*
X120990081Y-122004652D01*
X122237597Y-120757136D01*
X122376788Y-120931676D01*
X122546232Y-121079714D01*
X122593741Y-121108099D01*
X121346751Y-122355089D01*
X121346752Y-122355090D01*
X121489417Y-122474801D01*
X121781394Y-122666836D01*
X122093672Y-122823670D01*
X122093678Y-122823672D01*
X122422063Y-122943194D01*
X122422066Y-122943195D01*
X122762104Y-123023785D01*
X123109209Y-123064355D01*
X123109210Y-123064356D01*
X123458656Y-123064356D01*
X123458656Y-123064355D01*
X123805760Y-123023785D01*
X123805762Y-123023785D01*
X124145799Y-122943195D01*
X124145802Y-122943194D01*
X124474187Y-122823672D01*
X124474193Y-122823670D01*
X124786471Y-122666836D01*
X125078442Y-122474805D01*
X125078443Y-122474804D01*
X125221112Y-122355090D01*
X125221113Y-122355089D01*
X123974059Y-121108034D01*
X124109680Y-121009500D01*
X124265172Y-120846868D01*
X124326734Y-120753605D01*
X125577782Y-122004653D01*
X125577784Y-122004652D01*
X125585955Y-121995992D01*
X125585966Y-121995979D01*
X125794643Y-121715678D01*
X125969371Y-121413039D01*
X125969377Y-121413026D01*
X126107787Y-121092156D01*
X126208016Y-120757367D01*
X126208018Y-120757358D01*
X126268696Y-120413236D01*
X126268697Y-120413225D01*
X126289017Y-120064359D01*
X126289017Y-120064352D01*
X126268697Y-119715486D01*
X126268696Y-119715475D01*
X126208018Y-119371353D01*
X126208016Y-119371344D01*
X126107787Y-119036555D01*
X125969377Y-118715685D01*
X125969371Y-118715672D01*
X125794643Y-118413033D01*
X125585965Y-118132730D01*
X125577783Y-118124058D01*
X124330267Y-119371573D01*
X124191078Y-119197036D01*
X124021634Y-119048998D01*
X123974123Y-119020611D01*
X125221113Y-117773621D01*
X125221112Y-117773620D01*
X125078452Y-117653913D01*
X124786471Y-117461875D01*
X124474193Y-117305041D01*
X124474187Y-117305039D01*
X124145802Y-117185517D01*
X124145799Y-117185516D01*
X123805761Y-117104926D01*
X123458656Y-117064356D01*
X123109210Y-117064356D01*
X122762105Y-117104926D01*
X122762103Y-117104926D01*
X122422066Y-117185516D01*
X122422063Y-117185517D01*
X122093678Y-117305039D01*
X122093672Y-117305041D01*
X121781394Y-117461875D01*
X121489413Y-117653913D01*
X121346752Y-117773620D01*
X121346751Y-117773621D01*
X122593807Y-119020677D01*
X122458186Y-119119212D01*
X122302694Y-119281844D01*
X122241131Y-119375107D01*
X120990081Y-118124057D01*
X120990080Y-118124058D01*
X120981909Y-118132719D01*
X120981905Y-118132724D01*
X120773222Y-118413033D01*
X120598494Y-118715672D01*
X120598488Y-118715685D01*
X120460078Y-119036555D01*
X120359849Y-119371344D01*
X120359847Y-119371353D01*
X120299169Y-119715475D01*
X120299168Y-119715486D01*
X120278849Y-120064352D01*
X120278849Y-120064359D01*
X119630864Y-120064359D01*
X119630864Y-120064356D01*
X119610487Y-119714499D01*
X119585200Y-119571089D01*
X119549634Y-119369380D01*
X119549632Y-119369373D01*
X119474739Y-119119212D01*
X119449122Y-119033644D01*
X119310315Y-118711855D01*
X119135090Y-118408356D01*
X119135089Y-118408354D01*
X118925819Y-118127255D01*
X118925814Y-118127249D01*
X118809527Y-118003994D01*
X118685322Y-117872344D01*
X118685315Y-117872338D01*
X118685313Y-117872336D01*
X118416865Y-117647080D01*
X118416862Y-117647078D01*
X118124065Y-117454503D01*
X118118760Y-117451838D01*
X117810898Y-117297224D01*
X117810892Y-117297221D01*
X117481587Y-117177364D01*
X117481566Y-117177357D01*
X117140586Y-117096542D01*
X117140571Y-117096540D01*
X116792490Y-117055856D01*
X116442040Y-117055856D01*
X116137469Y-117091454D01*
X116093958Y-117096540D01*
X116093943Y-117096542D01*
X115752963Y-117177357D01*
X115752942Y-117177364D01*
X115423637Y-117297221D01*
X115423631Y-117297224D01*
X115110468Y-117454501D01*
X114817664Y-117647080D01*
X114549216Y-117872336D01*
X114549206Y-117872346D01*
X114308715Y-118127249D01*
X114308710Y-118127255D01*
X114099440Y-118408354D01*
X113924217Y-118711850D01*
X113924211Y-118711863D01*
X113785408Y-119033642D01*
X113684897Y-119369373D01*
X113684895Y-119369380D01*
X113624044Y-119714487D01*
X113624043Y-119714498D01*
X113603666Y-120064352D01*
X113603666Y-120064359D01*
X112964198Y-120064359D01*
X112964198Y-120064356D01*
X112943821Y-119714499D01*
X112918534Y-119571089D01*
X112882968Y-119369380D01*
X112882966Y-119369373D01*
X112808073Y-119119212D01*
X112782456Y-119033644D01*
X112643649Y-118711855D01*
X112468424Y-118408356D01*
X112468423Y-118408354D01*
X112259153Y-118127255D01*
X112259148Y-118127249D01*
X112142861Y-118003994D01*
X112018656Y-117872344D01*
X112018649Y-117872338D01*
X112018647Y-117872336D01*
X111750199Y-117647080D01*
X111750196Y-117647078D01*
X111457399Y-117454503D01*
X111452094Y-117451838D01*
X111144232Y-117297224D01*
X111144226Y-117297221D01*
X110814921Y-117177364D01*
X110814900Y-117177357D01*
X110473920Y-117096542D01*
X110473905Y-117096540D01*
X110125824Y-117055856D01*
X109775374Y-117055856D01*
X109470803Y-117091454D01*
X109427292Y-117096540D01*
X109427277Y-117096542D01*
X109086297Y-117177357D01*
X109086276Y-117177364D01*
X108756971Y-117297221D01*
X108756965Y-117297224D01*
X108443802Y-117454501D01*
X108150998Y-117647080D01*
X107882550Y-117872336D01*
X107882540Y-117872346D01*
X107642049Y-118127249D01*
X107642044Y-118127255D01*
X107432774Y-118408354D01*
X107257551Y-118711850D01*
X107257545Y-118711863D01*
X107118742Y-119033642D01*
X107018231Y-119369373D01*
X107018229Y-119369380D01*
X106957378Y-119714487D01*
X106957377Y-119714498D01*
X106937000Y-120064352D01*
X106937000Y-120064359D01*
X106297532Y-120064359D01*
X106297532Y-120064356D01*
X106277155Y-119714499D01*
X106251868Y-119571089D01*
X106216302Y-119369380D01*
X106216300Y-119369373D01*
X106141407Y-119119212D01*
X106115790Y-119033644D01*
X105976983Y-118711855D01*
X105801758Y-118408356D01*
X105801757Y-118408354D01*
X105592487Y-118127255D01*
X105592482Y-118127249D01*
X105476195Y-118003994D01*
X105351990Y-117872344D01*
X105351983Y-117872338D01*
X105351981Y-117872336D01*
X105083533Y-117647080D01*
X105083530Y-117647078D01*
X104790733Y-117454503D01*
X104785428Y-117451838D01*
X104477566Y-117297224D01*
X104477560Y-117297221D01*
X104148255Y-117177364D01*
X104148234Y-117177357D01*
X103807254Y-117096542D01*
X103807239Y-117096540D01*
X103459158Y-117055856D01*
X103108708Y-117055856D01*
X102804137Y-117091454D01*
X102760626Y-117096540D01*
X102760611Y-117096542D01*
X102419631Y-117177357D01*
X102419610Y-117177364D01*
X102090305Y-117297221D01*
X102090299Y-117297224D01*
X101777136Y-117454501D01*
X101484332Y-117647080D01*
X101215884Y-117872336D01*
X101215874Y-117872346D01*
X100975383Y-118127249D01*
X100975378Y-118127255D01*
X100766108Y-118408354D01*
X100590885Y-118711850D01*
X100590879Y-118711863D01*
X100452076Y-119033642D01*
X100351565Y-119369373D01*
X100351563Y-119369380D01*
X100290712Y-119714487D01*
X100290711Y-119714498D01*
X100270334Y-120064352D01*
X100270334Y-120064359D01*
X99939539Y-120064359D01*
X99939539Y-115056330D01*
X112019710Y-115056330D01*
X112049925Y-115279387D01*
X112049926Y-115279390D01*
X112119483Y-115493465D01*
X112226146Y-115691678D01*
X112226148Y-115691681D01*
X112366489Y-115867663D01*
X112366491Y-115867664D01*
X112366492Y-115867666D01*
X112536004Y-116015765D01*
X112729236Y-116131215D01*
X112939976Y-116210307D01*
X113161450Y-116250500D01*
X113161453Y-116250500D01*
X113330148Y-116250500D01*
X113330155Y-116250500D01*
X113498188Y-116235377D01*
X113498192Y-116235376D01*
X113715160Y-116175496D01*
X113715162Y-116175495D01*
X113715170Y-116175493D01*
X113917973Y-116077829D01*
X114100078Y-115945522D01*
X114255632Y-115782825D01*
X114379635Y-115594968D01*
X114468103Y-115387988D01*
X114518191Y-115168537D01*
X114528290Y-114943670D01*
X114498075Y-114720613D01*
X114428517Y-114506536D01*
X114321852Y-114308319D01*
X114181508Y-114132334D01*
X114011996Y-113984235D01*
X113818764Y-113868785D01*
X113700775Y-113824503D01*
X113608023Y-113789692D01*
X113386550Y-113749500D01*
X113386547Y-113749500D01*
X113217845Y-113749500D01*
X113179399Y-113752960D01*
X113049813Y-113764622D01*
X113049807Y-113764623D01*
X112832839Y-113824503D01*
X112832826Y-113824508D01*
X112630033Y-113922167D01*
X112630025Y-113922171D01*
X112447927Y-114054473D01*
X112447925Y-114054474D01*
X112292366Y-114217176D01*
X112168363Y-114405033D01*
X112079899Y-114612004D01*
X112079895Y-114612017D01*
X112029810Y-114831457D01*
X112029808Y-114831468D01*
X112024769Y-114943674D01*
X112019710Y-115056330D01*
X99939539Y-115056330D01*
X99939539Y-112776001D01*
X102460502Y-112776001D01*
X102480456Y-113004081D01*
X102480457Y-113004089D01*
X102539714Y-113225238D01*
X102539718Y-113225249D01*
X102636475Y-113432745D01*
X102636477Y-113432749D01*
X102767802Y-113620300D01*
X102929700Y-113782198D01*
X103117251Y-113913523D01*
X103242091Y-113971736D01*
X103324750Y-114010281D01*
X103324752Y-114010281D01*
X103324757Y-114010284D01*
X103545913Y-114069543D01*
X103708832Y-114083796D01*
X103773998Y-114089498D01*
X103774000Y-114089498D01*
X103774002Y-114089498D01*
X103831021Y-114084509D01*
X104002087Y-114069543D01*
X104223243Y-114010284D01*
X104430749Y-113913523D01*
X104618300Y-113782198D01*
X104780198Y-113620300D01*
X104911523Y-113432749D01*
X105008284Y-113225243D01*
X105067543Y-113004087D01*
X105087498Y-112776001D01*
X121460502Y-112776001D01*
X121480456Y-113004081D01*
X121480457Y-113004089D01*
X121539714Y-113225238D01*
X121539718Y-113225249D01*
X121636475Y-113432745D01*
X121636477Y-113432749D01*
X121767802Y-113620300D01*
X121929700Y-113782198D01*
X122117251Y-113913523D01*
X122242091Y-113971736D01*
X122324750Y-114010281D01*
X122324752Y-114010281D01*
X122324757Y-114010284D01*
X122545913Y-114069543D01*
X122708832Y-114083796D01*
X122773998Y-114089498D01*
X122774000Y-114089498D01*
X122774002Y-114089498D01*
X122831021Y-114084509D01*
X123002087Y-114069543D01*
X123223243Y-114010284D01*
X123430749Y-113913523D01*
X123618300Y-113782198D01*
X123780198Y-113620300D01*
X123911523Y-113432749D01*
X124008284Y-113225243D01*
X124067543Y-113004087D01*
X124087498Y-112776000D01*
X124067543Y-112547913D01*
X124008284Y-112326757D01*
X123911523Y-112119251D01*
X123780198Y-111931700D01*
X123618300Y-111769802D01*
X123430749Y-111638477D01*
X123430745Y-111638475D01*
X123223249Y-111541718D01*
X123223238Y-111541714D01*
X123002089Y-111482457D01*
X123002081Y-111482456D01*
X122774002Y-111462502D01*
X122773998Y-111462502D01*
X122545918Y-111482456D01*
X122545910Y-111482457D01*
X122324761Y-111541714D01*
X122324750Y-111541718D01*
X122117254Y-111638475D01*
X122117252Y-111638476D01*
X122117251Y-111638477D01*
X121929700Y-111769802D01*
X121929698Y-111769803D01*
X121929695Y-111769806D01*
X121767806Y-111931695D01*
X121636476Y-112119252D01*
X121636475Y-112119254D01*
X121539718Y-112326750D01*
X121539714Y-112326761D01*
X121480457Y-112547910D01*
X121480456Y-112547918D01*
X121460502Y-112775998D01*
X121460502Y-112776001D01*
X105087498Y-112776001D01*
X105087498Y-112776000D01*
X105067543Y-112547913D01*
X105008284Y-112326757D01*
X104911523Y-112119251D01*
X104780198Y-111931700D01*
X104618300Y-111769802D01*
X104430749Y-111638477D01*
X104430745Y-111638475D01*
X104223249Y-111541718D01*
X104223238Y-111541714D01*
X104002089Y-111482457D01*
X104002081Y-111482456D01*
X103774002Y-111462502D01*
X103773998Y-111462502D01*
X103545918Y-111482456D01*
X103545910Y-111482457D01*
X103324761Y-111541714D01*
X103324750Y-111541718D01*
X103117254Y-111638475D01*
X103117252Y-111638476D01*
X103117251Y-111638477D01*
X102929700Y-111769802D01*
X102929698Y-111769803D01*
X102929695Y-111769806D01*
X102767806Y-111931695D01*
X102636476Y-112119252D01*
X102636475Y-112119254D01*
X102539718Y-112326750D01*
X102539714Y-112326761D01*
X102480457Y-112547910D01*
X102480456Y-112547918D01*
X102460502Y-112775998D01*
X102460502Y-112776001D01*
X99939539Y-112776001D01*
X99939539Y-109474001D01*
X106880502Y-109474001D01*
X106900456Y-109702081D01*
X106900457Y-109702089D01*
X106959714Y-109923238D01*
X106959718Y-109923249D01*
X107056475Y-110130745D01*
X107056477Y-110130749D01*
X107187802Y-110318300D01*
X107349700Y-110480198D01*
X107537251Y-110611523D01*
X107662091Y-110669736D01*
X107744750Y-110708281D01*
X107744752Y-110708281D01*
X107744757Y-110708284D01*
X107965913Y-110767543D01*
X108128832Y-110781796D01*
X108193998Y-110787498D01*
X108194000Y-110787498D01*
X108194002Y-110787498D01*
X108251021Y-110782509D01*
X108422087Y-110767543D01*
X108643243Y-110708284D01*
X108850749Y-110611523D01*
X109038300Y-110480198D01*
X109200198Y-110318300D01*
X109331523Y-110130749D01*
X109428284Y-109923243D01*
X109487543Y-109702087D01*
X109507498Y-109474000D01*
X109487543Y-109245913D01*
X109428284Y-109024757D01*
X109331523Y-108817251D01*
X109200198Y-108629700D01*
X109038300Y-108467802D01*
X108850749Y-108336477D01*
X108850745Y-108336475D01*
X108643249Y-108239718D01*
X108643238Y-108239714D01*
X108422089Y-108180457D01*
X108422081Y-108180456D01*
X108194002Y-108160502D01*
X108193998Y-108160502D01*
X107965918Y-108180456D01*
X107965910Y-108180457D01*
X107744761Y-108239714D01*
X107744750Y-108239718D01*
X107537254Y-108336475D01*
X107537252Y-108336476D01*
X107537251Y-108336477D01*
X107349700Y-108467802D01*
X107349698Y-108467803D01*
X107349695Y-108467806D01*
X107187806Y-108629695D01*
X107187803Y-108629698D01*
X107187802Y-108629700D01*
X107105767Y-108746856D01*
X107056476Y-108817252D01*
X107056475Y-108817254D01*
X106959718Y-109024750D01*
X106959714Y-109024761D01*
X106900457Y-109245910D01*
X106900456Y-109245918D01*
X106880502Y-109473998D01*
X106880502Y-109474001D01*
X99939539Y-109474001D01*
X99939539Y-100289539D01*
X99959224Y-100222500D01*
X100012028Y-100176745D01*
X100063539Y-100165539D01*
X104625342Y-100165539D01*
X104692381Y-100185224D01*
G37*
G04 #@! TD.AperFunction*
M02*
